M48
; DRILL file {KiCad (6.0.7)} date Fri Oct 28 17:52:10 2022
; FORMAT={-:-/ absolute / metric / decimal}
; #@! TF.CreationDate,2022-10-28T17:52:10-04:00
; #@! TF.GenerationSoftware,Kicad,Pcbnew,(6.0.7)
; #@! TF.FileFunction,Plated,1,2,PTH
FMAT,2
METRIC
; #@! TA.AperFunction,Plated,PTH,ViaDrill
T1C0.700
%
G90
G05
T1
X47.752Y-141.672
X72.415Y-131.14
X72.644Y-119.38
X74.041Y-114.494
X74.108Y-108.144
X76.14Y-108.144
X78.232Y-108.144
X78.426Y-125.222
X80.255Y-108.144
X80.518Y-125.222
X82.227Y-108.144
X82.541Y-125.222
X83.21Y-139.827
X84.319Y-108.144
X84.513Y-125.222
X86.233Y-120.71
X86.291Y-108.144
X86.605Y-125.222
X88.383Y-108.144
X88.577Y-125.222
X90.576Y-152.044
X90.669Y-125.222
T0
M30
