%TF.GenerationSoftware,KiCad,Pcbnew,(6.0.7)*%
%TF.CreationDate,2022-09-20T11:28:39-04:00*%
%TF.ProjectId,double_layer_grid,646f7562-6c65-45f6-9c61-7965725f6772,rev?*%
%TF.SameCoordinates,Original*%
%TF.FileFunction,Copper,L1,Top*%
%TF.FilePolarity,Positive*%
%FSLAX46Y46*%
G04 Gerber Fmt 4.6, Leading zero omitted, Abs format (unit mm)*
G04 Created by KiCad (PCBNEW (6.0.7)) date 2022-09-20 11:28:39*
%MOMM*%
%LPD*%
G01*
G04 APERTURE LIST*
%TA.AperFunction,SMDPad,CuDef*%
%ADD10R,1.000000X3.150000*%
%TD*%
%TA.AperFunction,Conductor*%
%ADD11C,0.250000*%
%TD*%
G04 APERTURE END LIST*
D10*
%TO.P,REF\u002A\u002A,1*%
%TO.N,N/C*%
X129540000Y-75169000D03*
%TO.P,REF\u002A\u002A,3*%
X132080000Y-75169000D03*
%TO.P,REF\u002A\u002A,5*%
X134620000Y-75169000D03*
%TO.P,REF\u002A\u002A,7*%
X137160000Y-75169000D03*
%TO.P,REF\u002A\u002A,9*%
X139700000Y-75169000D03*
%TO.P,REF\u002A\u002A,11*%
X142240000Y-75169000D03*
%TO.P,REF\u002A\u002A,13*%
X144780000Y-75169000D03*
%TO.P,REF\u002A\u002A,15*%
X147320000Y-75169000D03*
%TD*%
D11*
%TO.N,*%
X145034000Y-106680000D02*
X145288000Y-106680000D01*
X129416462Y-106213180D02*
X129416462Y-75834569D01*
X129670462Y-106721180D02*
X129924462Y-106721180D01*
X139192000Y-106680000D02*
X139446000Y-106680000D01*
X132334000Y-106426000D02*
X132080000Y-106426000D01*
X137160000Y-106172000D02*
X137668000Y-106680000D01*
X132080000Y-106172000D02*
X132588000Y-106680000D01*
X145034000Y-106680000D02*
X144780000Y-106426000D01*
X135128000Y-106680000D02*
X134874000Y-106426000D01*
X132080000Y-106680000D02*
X132334000Y-106680000D01*
X131572000Y-106680000D02*
X132080000Y-106680000D01*
X141732000Y-106680000D02*
X142240000Y-106172000D01*
X142494000Y-106680000D02*
X142240000Y-106426000D01*
X139446000Y-106680000D02*
X139700000Y-106426000D01*
X147320000Y-106680000D02*
X147320000Y-106426000D01*
X134620000Y-106426000D02*
X134620000Y-106172000D01*
X129416462Y-106721180D02*
X129416462Y-106467180D01*
X144780000Y-106426000D02*
X144780000Y-106172000D01*
X139954000Y-106426000D02*
X139700000Y-106426000D01*
X134874000Y-106680000D02*
X135128000Y-106680000D01*
X139700000Y-106172000D02*
X139700000Y-75793389D01*
X134112000Y-106680000D02*
X134620000Y-106172000D01*
X137414000Y-106680000D02*
X137160000Y-106426000D01*
X139192000Y-106680000D02*
X139700000Y-106172000D01*
X141732000Y-106680000D02*
X142240000Y-106680000D01*
X137160000Y-106680000D02*
X137414000Y-106680000D01*
X134112000Y-106680000D02*
X134366000Y-106680000D01*
X137160000Y-106426000D02*
X137160000Y-106172000D01*
X144272000Y-106680000D02*
X144780000Y-106172000D01*
X142240000Y-106172000D02*
X142748000Y-106680000D01*
X144526000Y-106680000D02*
X144780000Y-106426000D01*
X142240000Y-106172000D02*
X142240000Y-75793389D01*
X147278820Y-106721180D02*
X147320000Y-106680000D01*
X134366000Y-106680000D02*
X134620000Y-106426000D01*
X132334000Y-106680000D02*
X132588000Y-106680000D01*
X131572000Y-106680000D02*
X131826000Y-106680000D01*
X137160000Y-106172000D02*
X137160000Y-75793389D01*
X132080000Y-106680000D02*
X132080000Y-106426000D01*
X129670462Y-106721180D02*
X129416462Y-106467180D01*
X144780000Y-106172000D02*
X144780000Y-75793389D01*
X134112000Y-106680000D02*
X134620000Y-106680000D01*
X137668000Y-106680000D02*
X137414000Y-106426000D01*
X145288000Y-106680000D02*
X145034000Y-106426000D01*
X145034000Y-106426000D02*
X144780000Y-106426000D01*
X129416462Y-106467180D02*
X129416462Y-106213180D01*
X129670462Y-106467180D02*
X129416462Y-106467180D01*
X129416462Y-106721180D02*
X129670462Y-106721180D01*
X139700000Y-106680000D02*
X139954000Y-106680000D01*
X144780000Y-106172000D02*
X145288000Y-106680000D01*
X147066000Y-106680000D02*
X147320000Y-106426000D01*
X134620000Y-106172000D02*
X135128000Y-106680000D01*
X142240000Y-106680000D02*
X142494000Y-106680000D01*
X136906000Y-106680000D02*
X137160000Y-106426000D01*
X142240000Y-106426000D02*
X142240000Y-106172000D01*
X132080000Y-106426000D02*
X132080000Y-106172000D01*
X136652000Y-106680000D02*
X136906000Y-106680000D01*
X142240000Y-106680000D02*
X142240000Y-106426000D01*
X139700000Y-106172000D02*
X140208000Y-106680000D01*
X146812000Y-106680000D02*
X147320000Y-106172000D01*
X139954000Y-106680000D02*
X140208000Y-106680000D01*
X142494000Y-106680000D02*
X142748000Y-106680000D01*
X144272000Y-106680000D02*
X144526000Y-106680000D01*
X141732000Y-106680000D02*
X141986000Y-106680000D01*
X134620000Y-106680000D02*
X134874000Y-106680000D01*
X134620000Y-106680000D02*
X134620000Y-106426000D01*
X139192000Y-106680000D02*
X139700000Y-106680000D01*
X140208000Y-106680000D02*
X139954000Y-106426000D01*
X137160000Y-106680000D02*
X137160000Y-106426000D01*
X137414000Y-106426000D02*
X137160000Y-106426000D01*
X132334000Y-106680000D02*
X132080000Y-106426000D01*
X144272000Y-106680000D02*
X144780000Y-106680000D01*
X134620000Y-106172000D02*
X134620000Y-75793389D01*
X129924462Y-106721180D02*
X129670462Y-106467180D01*
X136652000Y-106680000D02*
X137160000Y-106172000D01*
X142494000Y-106426000D02*
X142240000Y-106426000D01*
X139700000Y-106680000D02*
X139700000Y-106426000D01*
X142748000Y-106680000D02*
X142494000Y-106426000D01*
X141986000Y-106680000D02*
X142240000Y-106426000D01*
X147320000Y-106426000D02*
X147320000Y-106172000D01*
X146812000Y-106680000D02*
X147320000Y-106680000D01*
X132588000Y-106680000D02*
X132334000Y-106426000D01*
X129416462Y-106721180D02*
X147278820Y-106721180D01*
X137414000Y-106680000D02*
X137668000Y-106680000D01*
X136652000Y-106680000D02*
X137160000Y-106680000D01*
X131572000Y-106680000D02*
X132080000Y-106172000D01*
X129416462Y-106213180D02*
X129924462Y-106721180D01*
X144780000Y-106680000D02*
X145034000Y-106680000D01*
X144780000Y-106680000D02*
X144780000Y-106426000D01*
X134874000Y-106426000D02*
X134620000Y-106426000D01*
X139954000Y-106680000D02*
X139700000Y-106426000D01*
X147320000Y-106172000D02*
X147320000Y-75793389D01*
X139700000Y-106426000D02*
X139700000Y-106172000D01*
X146812000Y-106680000D02*
X147066000Y-106680000D01*
X132080000Y-106172000D02*
X132080000Y-75793389D01*
X134874000Y-106680000D02*
X134620000Y-106426000D01*
X131826000Y-106680000D02*
X132080000Y-106426000D01*
%TD*%
M02*
