%TF.GenerationSoftware,KiCad,Pcbnew,(6.0.7)*%
%TF.CreationDate,2022-11-17T10:47:32-05:00*%
%TF.ProjectId,double_layer_prototype,646f7562-6c65-45f6-9c61-7965725f7072,rev?*%
%TF.SameCoordinates,Original*%
%TF.FileFunction,Copper,L1,Top*%
%TF.FilePolarity,Positive*%
%FSLAX46Y46*%
G04 Gerber Fmt 4.6, Leading zero omitted, Abs format (unit mm)*
G04 Created by KiCad (PCBNEW (6.0.7)) date 2022-11-17 10:47:32*
%MOMM*%
%LPD*%
G01*
G04 APERTURE LIST*
%TA.AperFunction,NonConductor*%
%ADD10C,0.667961*%
%TD*%
%TA.AperFunction,SMDPad,CuDef*%
%ADD11R,2.500000X1.750000*%
%TD*%
%TA.AperFunction,ViaPad*%
%ADD12C,0.710000*%
%TD*%
%TA.AperFunction,Conductor*%
%ADD13C,0.250000*%
%TD*%
G04 APERTURE END LIST*
D10*
X92145819Y-114782600D02*
G75*
G03*
X92145819Y-114782600I-333980J0D01*
G01*
X83154219Y-106019600D02*
G75*
G03*
X83154219Y-106019600I-333980J0D01*
G01*
X79023180Y-93005639D02*
G75*
G03*
X79023180Y-93005639I-333980J0D01*
G01*
X75610419Y-108804439D02*
G75*
G03*
X75610419Y-108804439I-333980J0D01*
G01*
X81791780Y-108804439D02*
G75*
G03*
X81791780Y-108804439I-333980J0D01*
G01*
X68904819Y-99364800D02*
G75*
G03*
X68904819Y-99364800I-333980J0D01*
G01*
X77676980Y-108804439D02*
G75*
G03*
X77676980Y-108804439I-333980J0D01*
G01*
X81062258Y-93014800D02*
G75*
G03*
X81062258Y-93014800I-333980J0D01*
G01*
X48723751Y-141158581D02*
G75*
G03*
X48723751Y-141158581I-333980J0D01*
G01*
X85661741Y-134442200D02*
G75*
G03*
X85661741Y-134442200I-333980J0D01*
G01*
X83036380Y-93005639D02*
G75*
G03*
X83036380Y-93005639I-333980J0D01*
G01*
X90884980Y-151171639D02*
G75*
G03*
X90884980Y-151171639I-333980J0D01*
G01*
X74425780Y-115256039D02*
G75*
G03*
X74425780Y-115256039I-333980J0D01*
G01*
X79750619Y-108804439D02*
G75*
G03*
X79750619Y-108804439I-333980J0D01*
G01*
%TO.P,U1,1,D3*%
%TO.N,unconnected-(U1-Pad1)*%
%TA.AperFunction,SMDPad,CuDef*%
G36*
G01*
X82831800Y-127360000D02*
X83131800Y-127360000D01*
G75*
G02*
X83281800Y-127510000I0J-150000D01*
G01*
X83281800Y-129160000D01*
G75*
G02*
X83131800Y-129310000I-150000J0D01*
G01*
X82831800Y-129310000D01*
G75*
G02*
X82681800Y-129160000I0J150000D01*
G01*
X82681800Y-127510000D01*
G75*
G02*
X82831800Y-127360000I150000J0D01*
G01*
G37*
%TD.AperFunction*%
%TO.P,U1,2,D2*%
%TO.N,unconnected-(U1-Pad2)*%
%TA.AperFunction,SMDPad,CuDef*%
G36*
G01*
X81561800Y-127360000D02*
X81861800Y-127360000D01*
G75*
G02*
X82011800Y-127510000I0J-150000D01*
G01*
X82011800Y-129160000D01*
G75*
G02*
X81861800Y-129310000I-150000J0D01*
G01*
X81561800Y-129310000D01*
G75*
G02*
X81411800Y-129160000I0J150000D01*
G01*
X81411800Y-127510000D01*
G75*
G02*
X81561800Y-127360000I150000J0D01*
G01*
G37*
%TD.AperFunction*%
%TO.P,U1,3,D1*%
%TO.N,unconnected-(U1-Pad3)*%
%TA.AperFunction,SMDPad,CuDef*%
G36*
G01*
X80291800Y-127360000D02*
X80591800Y-127360000D01*
G75*
G02*
X80741800Y-127510000I0J-150000D01*
G01*
X80741800Y-129160000D01*
G75*
G02*
X80591800Y-129310000I-150000J0D01*
G01*
X80291800Y-129310000D01*
G75*
G02*
X80141800Y-129160000I0J150000D01*
G01*
X80141800Y-127510000D01*
G75*
G02*
X80291800Y-127360000I150000J0D01*
G01*
G37*
%TD.AperFunction*%
%TO.P,U1,4,D0*%
%TO.N,unconnected-(U1-Pad4)*%
%TA.AperFunction,SMDPad,CuDef*%
G36*
G01*
X79021800Y-127360000D02*
X79321800Y-127360000D01*
G75*
G02*
X79471800Y-127510000I0J-150000D01*
G01*
X79471800Y-129160000D01*
G75*
G02*
X79321800Y-129310000I-150000J0D01*
G01*
X79021800Y-129310000D01*
G75*
G02*
X78871800Y-129160000I0J150000D01*
G01*
X78871800Y-127510000D01*
G75*
G02*
X79021800Y-127360000I150000J0D01*
G01*
G37*
%TD.AperFunction*%
%TO.P,U1,5,Y*%
%TO.N,Net-(A1-Pad8)*%
%TA.AperFunction,SMDPad,CuDef*%
G36*
G01*
X77751800Y-127360000D02*
X78051800Y-127360000D01*
G75*
G02*
X78201800Y-127510000I0J-150000D01*
G01*
X78201800Y-129160000D01*
G75*
G02*
X78051800Y-129310000I-150000J0D01*
G01*
X77751800Y-129310000D01*
G75*
G02*
X77601800Y-129160000I0J150000D01*
G01*
X77601800Y-127510000D01*
G75*
G02*
X77751800Y-127360000I150000J0D01*
G01*
G37*
%TD.AperFunction*%
%TO.P,U1,6,W*%
%TO.N,unconnected-(U1-Pad6)*%
%TA.AperFunction,SMDPad,CuDef*%
G36*
G01*
X76481800Y-127360000D02*
X76781800Y-127360000D01*
G75*
G02*
X76931800Y-127510000I0J-150000D01*
G01*
X76931800Y-129160000D01*
G75*
G02*
X76781800Y-129310000I-150000J0D01*
G01*
X76481800Y-129310000D01*
G75*
G02*
X76331800Y-129160000I0J150000D01*
G01*
X76331800Y-127510000D01*
G75*
G02*
X76481800Y-127360000I150000J0D01*
G01*
G37*
%TD.AperFunction*%
%TO.P,U1,7,G'*%
%TO.N,GND*%
%TA.AperFunction,SMDPad,CuDef*%
G36*
G01*
X75211800Y-127360000D02*
X75511800Y-127360000D01*
G75*
G02*
X75661800Y-127510000I0J-150000D01*
G01*
X75661800Y-129160000D01*
G75*
G02*
X75511800Y-129310000I-150000J0D01*
G01*
X75211800Y-129310000D01*
G75*
G02*
X75061800Y-129160000I0J150000D01*
G01*
X75061800Y-127510000D01*
G75*
G02*
X75211800Y-127360000I150000J0D01*
G01*
G37*
%TD.AperFunction*%
%TO.P,U1,8,GND*%
%TA.AperFunction,SMDPad,CuDef*%
G36*
G01*
X73941800Y-127360000D02*
X74241800Y-127360000D01*
G75*
G02*
X74391800Y-127510000I0J-150000D01*
G01*
X74391800Y-129160000D01*
G75*
G02*
X74241800Y-129310000I-150000J0D01*
G01*
X73941800Y-129310000D01*
G75*
G02*
X73791800Y-129160000I0J150000D01*
G01*
X73791800Y-127510000D01*
G75*
G02*
X73941800Y-127360000I150000J0D01*
G01*
G37*
%TD.AperFunction*%
%TO.P,U1,9,C*%
%TO.N,Net-(A1-Pad7)*%
%TA.AperFunction,SMDPad,CuDef*%
G36*
G01*
X73941800Y-132310000D02*
X74241800Y-132310000D01*
G75*
G02*
X74391800Y-132460000I0J-150000D01*
G01*
X74391800Y-134110000D01*
G75*
G02*
X74241800Y-134260000I-150000J0D01*
G01*
X73941800Y-134260000D01*
G75*
G02*
X73791800Y-134110000I0J150000D01*
G01*
X73791800Y-132460000D01*
G75*
G02*
X73941800Y-132310000I150000J0D01*
G01*
G37*
%TD.AperFunction*%
%TO.P,U1,10,B*%
%TO.N,Net-(A1-Pad6)*%
%TA.AperFunction,SMDPad,CuDef*%
G36*
G01*
X75211800Y-132310000D02*
X75511800Y-132310000D01*
G75*
G02*
X75661800Y-132460000I0J-150000D01*
G01*
X75661800Y-134110000D01*
G75*
G02*
X75511800Y-134260000I-150000J0D01*
G01*
X75211800Y-134260000D01*
G75*
G02*
X75061800Y-134110000I0J150000D01*
G01*
X75061800Y-132460000D01*
G75*
G02*
X75211800Y-132310000I150000J0D01*
G01*
G37*
%TD.AperFunction*%
%TO.P,U1,11,A*%
%TO.N,Net-(A1-Pad5)*%
%TA.AperFunction,SMDPad,CuDef*%
G36*
G01*
X76481800Y-132310000D02*
X76781800Y-132310000D01*
G75*
G02*
X76931800Y-132460000I0J-150000D01*
G01*
X76931800Y-134110000D01*
G75*
G02*
X76781800Y-134260000I-150000J0D01*
G01*
X76481800Y-134260000D01*
G75*
G02*
X76331800Y-134110000I0J150000D01*
G01*
X76331800Y-132460000D01*
G75*
G02*
X76481800Y-132310000I150000J0D01*
G01*
G37*
%TD.AperFunction*%
%TO.P,U1,12,D7*%
%TO.N,unconnected-(U1-Pad12)*%
%TA.AperFunction,SMDPad,CuDef*%
G36*
G01*
X77751800Y-132310000D02*
X78051800Y-132310000D01*
G75*
G02*
X78201800Y-132460000I0J-150000D01*
G01*
X78201800Y-134110000D01*
G75*
G02*
X78051800Y-134260000I-150000J0D01*
G01*
X77751800Y-134260000D01*
G75*
G02*
X77601800Y-134110000I0J150000D01*
G01*
X77601800Y-132460000D01*
G75*
G02*
X77751800Y-132310000I150000J0D01*
G01*
G37*
%TD.AperFunction*%
%TO.P,U1,13,D6*%
%TO.N,unconnected-(U1-Pad13)*%
%TA.AperFunction,SMDPad,CuDef*%
G36*
G01*
X79021800Y-132310000D02*
X79321800Y-132310000D01*
G75*
G02*
X79471800Y-132460000I0J-150000D01*
G01*
X79471800Y-134110000D01*
G75*
G02*
X79321800Y-134260000I-150000J0D01*
G01*
X79021800Y-134260000D01*
G75*
G02*
X78871800Y-134110000I0J150000D01*
G01*
X78871800Y-132460000D01*
G75*
G02*
X79021800Y-132310000I150000J0D01*
G01*
G37*
%TD.AperFunction*%
%TO.P,U1,14,D5*%
%TO.N,unconnected-(U1-Pad14)*%
%TA.AperFunction,SMDPad,CuDef*%
G36*
G01*
X80291800Y-132310000D02*
X80591800Y-132310000D01*
G75*
G02*
X80741800Y-132460000I0J-150000D01*
G01*
X80741800Y-134110000D01*
G75*
G02*
X80591800Y-134260000I-150000J0D01*
G01*
X80291800Y-134260000D01*
G75*
G02*
X80141800Y-134110000I0J150000D01*
G01*
X80141800Y-132460000D01*
G75*
G02*
X80291800Y-132310000I150000J0D01*
G01*
G37*
%TD.AperFunction*%
%TO.P,U1,15,D4*%
%TO.N,unconnected-(U1-Pad15)*%
%TA.AperFunction,SMDPad,CuDef*%
G36*
G01*
X81561800Y-132310000D02*
X81861800Y-132310000D01*
G75*
G02*
X82011800Y-132460000I0J-150000D01*
G01*
X82011800Y-134110000D01*
G75*
G02*
X81861800Y-134260000I-150000J0D01*
G01*
X81561800Y-134260000D01*
G75*
G02*
X81411800Y-134110000I0J150000D01*
G01*
X81411800Y-132460000D01*
G75*
G02*
X81561800Y-132310000I150000J0D01*
G01*
G37*
%TD.AperFunction*%
%TO.P,U1,16,Vcc*%
%TO.N,Net-(A1-Pad17)*%
%TA.AperFunction,SMDPad,CuDef*%
G36*
G01*
X82831800Y-132310000D02*
X83131800Y-132310000D01*
G75*
G02*
X83281800Y-132460000I0J-150000D01*
G01*
X83281800Y-134110000D01*
G75*
G02*
X83131800Y-134260000I-150000J0D01*
G01*
X82831800Y-134260000D01*
G75*
G02*
X82681800Y-134110000I0J150000D01*
G01*
X82681800Y-132460000D01*
G75*
G02*
X82831800Y-132310000I150000J0D01*
G01*
G37*
%TD.AperFunction*%
%TD*%
%TO.P,U2,1,D3*%
%TO.N,unconnected-(U2-Pad1)*%
%TA.AperFunction,SMDPad,CuDef*%
G36*
G01*
X80571200Y-98277000D02*
X80871200Y-98277000D01*
G75*
G02*
X81021200Y-98427000I0J-150000D01*
G01*
X81021200Y-100077000D01*
G75*
G02*
X80871200Y-100227000I-150000J0D01*
G01*
X80571200Y-100227000D01*
G75*
G02*
X80421200Y-100077000I0J150000D01*
G01*
X80421200Y-98427000D01*
G75*
G02*
X80571200Y-98277000I150000J0D01*
G01*
G37*
%TD.AperFunction*%
%TO.P,U2,2,D2*%
%TO.N,unconnected-(U2-Pad2)*%
%TA.AperFunction,SMDPad,CuDef*%
G36*
G01*
X79301200Y-98277000D02*
X79601200Y-98277000D01*
G75*
G02*
X79751200Y-98427000I0J-150000D01*
G01*
X79751200Y-100077000D01*
G75*
G02*
X79601200Y-100227000I-150000J0D01*
G01*
X79301200Y-100227000D01*
G75*
G02*
X79151200Y-100077000I0J150000D01*
G01*
X79151200Y-98427000D01*
G75*
G02*
X79301200Y-98277000I150000J0D01*
G01*
G37*
%TD.AperFunction*%
%TO.P,U2,3,D1*%
%TO.N,unconnected-(U2-Pad3)*%
%TA.AperFunction,SMDPad,CuDef*%
G36*
G01*
X78031200Y-98277000D02*
X78331200Y-98277000D01*
G75*
G02*
X78481200Y-98427000I0J-150000D01*
G01*
X78481200Y-100077000D01*
G75*
G02*
X78331200Y-100227000I-150000J0D01*
G01*
X78031200Y-100227000D01*
G75*
G02*
X77881200Y-100077000I0J150000D01*
G01*
X77881200Y-98427000D01*
G75*
G02*
X78031200Y-98277000I150000J0D01*
G01*
G37*
%TD.AperFunction*%
%TO.P,U2,4,D0*%
%TO.N,unconnected-(U2-Pad4)*%
%TA.AperFunction,SMDPad,CuDef*%
G36*
G01*
X76761200Y-98277000D02*
X77061200Y-98277000D01*
G75*
G02*
X77211200Y-98427000I0J-150000D01*
G01*
X77211200Y-100077000D01*
G75*
G02*
X77061200Y-100227000I-150000J0D01*
G01*
X76761200Y-100227000D01*
G75*
G02*
X76611200Y-100077000I0J150000D01*
G01*
X76611200Y-98427000D01*
G75*
G02*
X76761200Y-98277000I150000J0D01*
G01*
G37*
%TD.AperFunction*%
%TO.P,U2,5,Y*%
%TO.N,Net-(A1-Pad15)*%
%TA.AperFunction,SMDPad,CuDef*%
G36*
G01*
X75491200Y-98277000D02*
X75791200Y-98277000D01*
G75*
G02*
X75941200Y-98427000I0J-150000D01*
G01*
X75941200Y-100077000D01*
G75*
G02*
X75791200Y-100227000I-150000J0D01*
G01*
X75491200Y-100227000D01*
G75*
G02*
X75341200Y-100077000I0J150000D01*
G01*
X75341200Y-98427000D01*
G75*
G02*
X75491200Y-98277000I150000J0D01*
G01*
G37*
%TD.AperFunction*%
%TO.P,U2,6,W*%
%TO.N,unconnected-(U2-Pad6)*%
%TA.AperFunction,SMDPad,CuDef*%
G36*
G01*
X74221200Y-98277000D02*
X74521200Y-98277000D01*
G75*
G02*
X74671200Y-98427000I0J-150000D01*
G01*
X74671200Y-100077000D01*
G75*
G02*
X74521200Y-100227000I-150000J0D01*
G01*
X74221200Y-100227000D01*
G75*
G02*
X74071200Y-100077000I0J150000D01*
G01*
X74071200Y-98427000D01*
G75*
G02*
X74221200Y-98277000I150000J0D01*
G01*
G37*
%TD.AperFunction*%
%TO.P,U2,7,G'*%
%TO.N,GND*%
%TA.AperFunction,SMDPad,CuDef*%
G36*
G01*
X72951200Y-98277000D02*
X73251200Y-98277000D01*
G75*
G02*
X73401200Y-98427000I0J-150000D01*
G01*
X73401200Y-100077000D01*
G75*
G02*
X73251200Y-100227000I-150000J0D01*
G01*
X72951200Y-100227000D01*
G75*
G02*
X72801200Y-100077000I0J150000D01*
G01*
X72801200Y-98427000D01*
G75*
G02*
X72951200Y-98277000I150000J0D01*
G01*
G37*
%TD.AperFunction*%
%TO.P,U2,8,GND*%
%TA.AperFunction,SMDPad,CuDef*%
G36*
G01*
X71681200Y-98277000D02*
X71981200Y-98277000D01*
G75*
G02*
X72131200Y-98427000I0J-150000D01*
G01*
X72131200Y-100077000D01*
G75*
G02*
X71981200Y-100227000I-150000J0D01*
G01*
X71681200Y-100227000D01*
G75*
G02*
X71531200Y-100077000I0J150000D01*
G01*
X71531200Y-98427000D01*
G75*
G02*
X71681200Y-98277000I150000J0D01*
G01*
G37*
%TD.AperFunction*%
%TO.P,U2,9,C*%
%TO.N,Net-(A1-Pad11)*%
%TA.AperFunction,SMDPad,CuDef*%
G36*
G01*
X71681200Y-103227000D02*
X71981200Y-103227000D01*
G75*
G02*
X72131200Y-103377000I0J-150000D01*
G01*
X72131200Y-105027000D01*
G75*
G02*
X71981200Y-105177000I-150000J0D01*
G01*
X71681200Y-105177000D01*
G75*
G02*
X71531200Y-105027000I0J150000D01*
G01*
X71531200Y-103377000D01*
G75*
G02*
X71681200Y-103227000I150000J0D01*
G01*
G37*
%TD.AperFunction*%
%TO.P,U2,10,B*%
%TO.N,Net-(A1-Pad10)*%
%TA.AperFunction,SMDPad,CuDef*%
G36*
G01*
X72951200Y-103227000D02*
X73251200Y-103227000D01*
G75*
G02*
X73401200Y-103377000I0J-150000D01*
G01*
X73401200Y-105027000D01*
G75*
G02*
X73251200Y-105177000I-150000J0D01*
G01*
X72951200Y-105177000D01*
G75*
G02*
X72801200Y-105027000I0J150000D01*
G01*
X72801200Y-103377000D01*
G75*
G02*
X72951200Y-103227000I150000J0D01*
G01*
G37*
%TD.AperFunction*%
%TO.P,U2,11,A*%
%TO.N,Net-(A1-Pad9)*%
%TA.AperFunction,SMDPad,CuDef*%
G36*
G01*
X74221200Y-103227000D02*
X74521200Y-103227000D01*
G75*
G02*
X74671200Y-103377000I0J-150000D01*
G01*
X74671200Y-105027000D01*
G75*
G02*
X74521200Y-105177000I-150000J0D01*
G01*
X74221200Y-105177000D01*
G75*
G02*
X74071200Y-105027000I0J150000D01*
G01*
X74071200Y-103377000D01*
G75*
G02*
X74221200Y-103227000I150000J0D01*
G01*
G37*
%TD.AperFunction*%
%TO.P,U2,12,D7*%
%TO.N,unconnected-(U2-Pad12)*%
%TA.AperFunction,SMDPad,CuDef*%
G36*
G01*
X75491200Y-103227000D02*
X75791200Y-103227000D01*
G75*
G02*
X75941200Y-103377000I0J-150000D01*
G01*
X75941200Y-105027000D01*
G75*
G02*
X75791200Y-105177000I-150000J0D01*
G01*
X75491200Y-105177000D01*
G75*
G02*
X75341200Y-105027000I0J150000D01*
G01*
X75341200Y-103377000D01*
G75*
G02*
X75491200Y-103227000I150000J0D01*
G01*
G37*
%TD.AperFunction*%
%TO.P,U2,13,D6*%
%TO.N,unconnected-(U2-Pad13)*%
%TA.AperFunction,SMDPad,CuDef*%
G36*
G01*
X76761200Y-103227000D02*
X77061200Y-103227000D01*
G75*
G02*
X77211200Y-103377000I0J-150000D01*
G01*
X77211200Y-105027000D01*
G75*
G02*
X77061200Y-105177000I-150000J0D01*
G01*
X76761200Y-105177000D01*
G75*
G02*
X76611200Y-105027000I0J150000D01*
G01*
X76611200Y-103377000D01*
G75*
G02*
X76761200Y-103227000I150000J0D01*
G01*
G37*
%TD.AperFunction*%
%TO.P,U2,14,D5*%
%TO.N,unconnected-(U2-Pad14)*%
%TA.AperFunction,SMDPad,CuDef*%
G36*
G01*
X78031200Y-103227000D02*
X78331200Y-103227000D01*
G75*
G02*
X78481200Y-103377000I0J-150000D01*
G01*
X78481200Y-105027000D01*
G75*
G02*
X78331200Y-105177000I-150000J0D01*
G01*
X78031200Y-105177000D01*
G75*
G02*
X77881200Y-105027000I0J150000D01*
G01*
X77881200Y-103377000D01*
G75*
G02*
X78031200Y-103227000I150000J0D01*
G01*
G37*
%TD.AperFunction*%
%TO.P,U2,15,D4*%
%TO.N,unconnected-(U2-Pad15)*%
%TA.AperFunction,SMDPad,CuDef*%
G36*
G01*
X79301200Y-103227000D02*
X79601200Y-103227000D01*
G75*
G02*
X79751200Y-103377000I0J-150000D01*
G01*
X79751200Y-105027000D01*
G75*
G02*
X79601200Y-105177000I-150000J0D01*
G01*
X79301200Y-105177000D01*
G75*
G02*
X79151200Y-105027000I0J150000D01*
G01*
X79151200Y-103377000D01*
G75*
G02*
X79301200Y-103227000I150000J0D01*
G01*
G37*
%TD.AperFunction*%
%TO.P,U2,16,Vcc*%
%TO.N,Net-(A1-Pad17)*%
%TA.AperFunction,SMDPad,CuDef*%
G36*
G01*
X80571200Y-103227000D02*
X80871200Y-103227000D01*
G75*
G02*
X81021200Y-103377000I0J-150000D01*
G01*
X81021200Y-105027000D01*
G75*
G02*
X80871200Y-105177000I-150000J0D01*
G01*
X80571200Y-105177000D01*
G75*
G02*
X80421200Y-105027000I0J150000D01*
G01*
X80421200Y-103377000D01*
G75*
G02*
X80571200Y-103227000I150000J0D01*
G01*
G37*
%TD.AperFunction*%
%TD*%
D11*
%TO.P,A1,1,D1/TX*%
%TO.N,unconnected-(A1-Pad1)*%
X67731800Y-145719800D03*
%TO.P,A1,2,D0/RX*%
%TO.N,unconnected-(A1-Pad2)*%
X67731800Y-143179800D03*
%TO.P,A1,3,~{RESET}*%
%TO.N,unconnected-(A1-Pad3)*%
X67731800Y-140639800D03*
%TO.P,A1,4,GND*%
%TO.N,GND*%
X67731800Y-138099800D03*
%TO.P,A1,5,D2*%
%TO.N,Net-(A1-Pad5)*%
X67731800Y-135559800D03*
%TO.P,A1,6,D3*%
%TO.N,Net-(A1-Pad6)*%
X67731800Y-133019800D03*
%TO.P,A1,7,D4*%
%TO.N,Net-(A1-Pad7)*%
X67731800Y-130479800D03*
%TO.P,A1,8,D5*%
%TO.N,Net-(A1-Pad8)*%
X67731800Y-127939800D03*
%TO.P,A1,9,D6*%
%TO.N,Net-(A1-Pad9)*%
X67731800Y-125399800D03*
%TO.P,A1,10,D7*%
%TO.N,Net-(A1-Pad10)*%
X67731800Y-122859800D03*
%TO.P,A1,11,D8*%
%TO.N,Net-(A1-Pad11)*%
X67731800Y-120319800D03*
%TO.P,A1,12,D9*%
%TO.N,unconnected-(A1-Pad12)*%
X67731800Y-117779800D03*
%TO.P,A1,13,D10*%
%TO.N,unconnected-(A1-Pad13)*%
X67731800Y-115239800D03*
%TO.P,A1,14,D11*%
%TO.N,unconnected-(A1-Pad14)*%
X67731800Y-112699800D03*
%TO.P,A1,15,D12*%
%TO.N,Net-(A1-Pad15)*%
X67731800Y-110159800D03*
%TO.P,A1,16,D13*%
%TO.N,unconnected-(A1-Pad16)*%
X52491800Y-110159800D03*
%TO.P,A1,17,3V3*%
%TO.N,Net-(A1-Pad17)*%
X52491800Y-112699800D03*
%TO.P,A1,18,AREF*%
%TO.N,unconnected-(A1-Pad18)*%
X52491800Y-115239800D03*
%TO.P,A1,19,A0*%
%TO.N,unconnected-(A1-Pad19)*%
X52491800Y-117779800D03*
%TO.P,A1,20,A1*%
%TO.N,unconnected-(A1-Pad20)*%
X52491800Y-120319800D03*
%TO.P,A1,21,A2*%
%TO.N,unconnected-(A1-Pad21)*%
X52491800Y-122859800D03*
%TO.P,A1,22,A3*%
%TO.N,unconnected-(A1-Pad22)*%
X52491800Y-125399800D03*
%TO.P,A1,23,A4*%
%TO.N,unconnected-(A1-Pad23)*%
X52491800Y-127939800D03*
%TO.P,A1,24,A5*%
%TO.N,unconnected-(A1-Pad24)*%
X52491800Y-130479800D03*
%TO.P,A1,25,A6*%
%TO.N,unconnected-(A1-Pad25)*%
X52491800Y-133019800D03*
%TO.P,A1,26,A7*%
%TO.N,unconnected-(A1-Pad26)*%
X52491800Y-135559800D03*
%TO.P,A1,27,+5V*%
%TO.N,unconnected-(A1-Pad27)*%
X52491800Y-138099800D03*
%TO.P,A1,28,~{RESET}*%
%TO.N,unconnected-(A1-Pad28)*%
X52491800Y-140639800D03*
%TO.P,A1,29,GND*%
%TO.N,GND*%
X52491800Y-143179800D03*
%TO.P,A1,30,VIN*%
%TO.N,unconnected-(A1-Pad30)*%
X52491800Y-145719800D03*
%TD*%
D12*
%TO.N,*%
X91811839Y-114782600D03*
X82820239Y-106019600D03*
X81457800Y-108804439D03*
X78689200Y-93005639D03*
X77343000Y-108762800D03*
X48389771Y-141158581D03*
X80728278Y-93014800D03*
X90551000Y-151171639D03*
X75276439Y-108804439D03*
X74091800Y-115256039D03*
X82702400Y-93005639D03*
X68570839Y-99364800D03*
X79416639Y-108804439D03*
X85327761Y-134442200D03*
%TD*%
D13*
%TO.N,Net-(A1-Pad17)*%
X91857600Y-114669800D02*
X91821000Y-114706400D01*
X82866000Y-105906800D02*
X82829400Y-105943400D01*
X80808600Y-104202000D02*
X82753200Y-106146600D01*
X80721200Y-104202000D02*
X80808600Y-104202000D01*
X84404200Y-122453400D02*
X91871800Y-114985800D01*
X84404200Y-131862600D02*
X84404200Y-122453400D01*
X82981800Y-133285000D02*
X84404200Y-131862600D01*
%TO.N,GND*%
X68616600Y-99252000D02*
X68580000Y-99288600D01*
X71831200Y-99252000D02*
X68616600Y-99252000D01*
%TO.N,Net-(A1-Pad15)*%
X74726800Y-101727000D02*
X69342000Y-101727000D01*
X75641200Y-100812600D02*
X74726800Y-101727000D01*
X75641200Y-99252000D02*
X75641200Y-100812600D01*
X69342000Y-101727000D02*
X67731800Y-103337200D01*
X67731800Y-103337200D02*
X67731800Y-110159800D01*
%TO.N,unconnected-(U2-Pad2)*%
X80737439Y-93091000D02*
X80712039Y-93065600D01*
X78756239Y-93141800D02*
X78680039Y-93065600D01*
X80746600Y-98933000D02*
X82702400Y-96977200D01*
X80746600Y-99288600D02*
X80746600Y-98933000D01*
X82702400Y-96977200D02*
X82702400Y-93091000D01*
%TO.N,GND*%
X74091800Y-128385800D02*
X74091800Y-115189000D01*
X51310771Y-143250542D02*
X50548771Y-143250542D01*
X50548771Y-143250542D02*
X48389771Y-141091542D01*
X73075800Y-99252000D02*
X71805800Y-99252000D01*
X74117200Y-128385800D02*
X75387200Y-128385800D01*
%TO.N,Net-(A1-Pad7)*%
X73061600Y-133310400D02*
X70256400Y-130505200D01*
X74091800Y-133310400D02*
X73061600Y-133310400D01*
X70256400Y-130505200D02*
X67808000Y-130505200D01*
%TO.N,Net-(A1-Pad5)*%
X71145400Y-135585200D02*
X67808000Y-135585200D01*
X76631800Y-133310400D02*
X76631800Y-135432800D01*
X76631800Y-135432800D02*
X75311000Y-136753600D01*
X72313800Y-136753600D02*
X71145400Y-135585200D01*
X75311000Y-136753600D02*
X72313800Y-136753600D01*
%TO.N,Net-(A1-Pad6)*%
X72593200Y-135534400D02*
X70104000Y-133045200D01*
X70104000Y-133045200D02*
X67808000Y-133045200D01*
X74803000Y-135534400D02*
X72593200Y-135534400D01*
X75361800Y-133310400D02*
X75361800Y-134975600D01*
X75361800Y-134975600D02*
X74803000Y-135534400D01*
%TO.N,Net-(A1-Pad8)*%
X72339200Y-130581400D02*
X69723000Y-127965200D01*
X77901800Y-129870200D02*
X77190600Y-130581400D01*
X69723000Y-127965200D02*
X67808000Y-127965200D01*
X77927200Y-128385800D02*
X77927200Y-128762551D01*
X77190600Y-130581400D02*
X72339200Y-130581400D01*
X77901800Y-128787951D02*
X77901800Y-129870200D01*
X77927200Y-128762551D02*
X77901800Y-128787951D01*
%TO.N,Net-(A1-Pad9)*%
X74345800Y-107594400D02*
X72720200Y-109220000D01*
X74345800Y-104202000D02*
X74345800Y-107594400D01*
X71526400Y-125399800D02*
X67731800Y-125399800D01*
X72720200Y-124206000D02*
X71526400Y-125399800D01*
X72720200Y-109220000D02*
X72720200Y-124206000D01*
%TO.N,Net-(A1-Pad10)*%
X73075800Y-107137200D02*
X71475600Y-108737400D01*
X71475600Y-122174000D02*
X70789800Y-122859800D01*
X71475600Y-108737400D02*
X71475600Y-122174000D01*
X73075800Y-104202000D02*
X73075800Y-107137200D01*
X70789800Y-122859800D02*
X67731800Y-122859800D01*
%TO.N,unconnected-(U2-Pad2)*%
X79451200Y-99252000D02*
X79451200Y-96926400D01*
X79425800Y-99288600D02*
X79425800Y-98653600D01*
X80721200Y-95656400D02*
X80721200Y-93116400D01*
X79451200Y-96926400D02*
X80721200Y-95656400D01*
X78181200Y-96164400D02*
X78663800Y-95681800D01*
X78181200Y-99339400D02*
X78181200Y-96164400D01*
X78663800Y-95681800D02*
X78663800Y-93065600D01*
%TO.N,Net-(A1-Pad11)*%
X69621400Y-120319800D02*
X67731800Y-120319800D01*
X71805800Y-106426000D02*
X70256400Y-107975400D01*
X70256400Y-107975400D02*
X70256400Y-119684800D01*
X71805800Y-104202000D02*
X71805800Y-106426000D01*
X70256400Y-119684800D02*
X69621400Y-120319800D01*
%TO.N,Net-(A1-Pad17)*%
X144627600Y-150736258D02*
X144602200Y-150736258D01*
X77851000Y-140639800D02*
X77851000Y-133350000D01*
X118059200Y-151053800D02*
X118186200Y-150926800D01*
X105331029Y-151059258D02*
X105712029Y-150678258D01*
X49961800Y-112979200D02*
X51767200Y-112979200D01*
X96023357Y-75525557D02*
X95608371Y-75940542D01*
X150266400Y-151180800D02*
X47846400Y-151180800D01*
X134216371Y-71190742D02*
X97284771Y-71190742D01*
X82981800Y-133335800D02*
X84237600Y-133335800D01*
X105712029Y-150678258D02*
X106093029Y-151059258D01*
X111582200Y-150672800D02*
X111963200Y-151053800D01*
X84709000Y-80743912D02*
X84709000Y-112217200D01*
X98715756Y-75703356D02*
X97360971Y-77058142D01*
X124259571Y-74645142D02*
X99773971Y-74645142D01*
X105714800Y-87528400D02*
X103809800Y-85623400D01*
X124795658Y-151186258D02*
X124815600Y-151166316D01*
X138627375Y-69429546D02*
X151158171Y-81960342D01*
X111538459Y-150570030D02*
X111538459Y-81812230D01*
X124790200Y-150672800D02*
X125171200Y-151053800D01*
X96065571Y-69387342D02*
X93927856Y-71525056D01*
X46865771Y-150200171D02*
X46865771Y-116075229D01*
X129415771Y-73070342D02*
X98478571Y-73070342D01*
X109883171Y-80156942D02*
X103253771Y-80156942D01*
X80416400Y-139471400D02*
X80416400Y-133350000D01*
X138252200Y-151053800D02*
X137744200Y-151053800D01*
X96023357Y-75525557D02*
X89585800Y-81963114D01*
X97586800Y-85826600D02*
X97586800Y-138684000D01*
X94005400Y-138480800D02*
X92887800Y-139598400D01*
X137997361Y-81651932D02*
X129415771Y-73070342D01*
X105712029Y-150932258D02*
X105458029Y-151186258D01*
X92887800Y-139598400D02*
X82727800Y-139598400D01*
X131394200Y-150672800D02*
X131775200Y-151053800D01*
X137998200Y-150736258D02*
X138003722Y-150736258D01*
X89585800Y-81963114D02*
X89585800Y-112395000D01*
X87045800Y-112877600D02*
X80441800Y-119481600D01*
X124917200Y-150926800D02*
X124663200Y-151180800D01*
X105966029Y-151059258D02*
X105458029Y-151059258D01*
X118186200Y-150926800D02*
X117932200Y-151180800D01*
X82981800Y-121564400D02*
X82981800Y-128295400D01*
X111201200Y-151053800D02*
X111582200Y-150672800D01*
X138125200Y-150926800D02*
X137871200Y-151180800D01*
X144602200Y-150672800D02*
X144983200Y-151053800D01*
X89585800Y-112395000D02*
X81711800Y-120269000D01*
X118440200Y-151053800D02*
X117932200Y-151053800D01*
X81254600Y-142163800D02*
X79197200Y-140106400D01*
X81711800Y-120269000D02*
X81711800Y-128295400D01*
X105714800Y-150672800D02*
X105714800Y-87528400D01*
X119368738Y-76397742D02*
X100866171Y-76397742D01*
X79121000Y-117805200D02*
X79121000Y-128295400D01*
X97586800Y-138684000D02*
X97637600Y-138734800D01*
X137617200Y-151053800D02*
X137998200Y-150672800D01*
X103253771Y-80156942D02*
X102364771Y-81045942D01*
X151158171Y-81960342D02*
X151158171Y-150235542D01*
X91770200Y-82648912D02*
X91770200Y-112776000D01*
X94005400Y-83258512D02*
X94005400Y-138480800D01*
X131371571Y-150641942D02*
X131371571Y-81757142D01*
X124663200Y-151053800D02*
X124790200Y-150926800D01*
X117805200Y-151053800D02*
X118186200Y-150672800D01*
X98478571Y-73070342D02*
X96023357Y-75525557D01*
X111455200Y-151053800D02*
X111582200Y-150926800D01*
X144983200Y-151053800D02*
X144475200Y-151053800D01*
X131648200Y-151053800D02*
X131140200Y-151053800D01*
X138728975Y-69387342D02*
X96065571Y-69387342D01*
X87045800Y-81429712D02*
X87045800Y-112877600D01*
X95885000Y-139268200D02*
X94310200Y-140843000D01*
X84709000Y-112217200D02*
X79121000Y-117805200D01*
X144604971Y-81401542D02*
X144604971Y-150730800D01*
X134313683Y-71110254D02*
X144604971Y-81401542D01*
X124792971Y-81821975D02*
X119368738Y-76397742D01*
X93927856Y-71525056D02*
X92966771Y-72486142D01*
X111538459Y-81812230D02*
X109883171Y-80156942D01*
X81737200Y-138607800D02*
X81737200Y-133350000D01*
X124792971Y-151160858D02*
X124792971Y-81821975D01*
X103809800Y-85623400D02*
X100380800Y-85623400D01*
X131267200Y-151053800D02*
X131394200Y-150926800D01*
X91770200Y-112776000D02*
X82981800Y-121564400D01*
X131013200Y-151053800D02*
X131394200Y-150672800D01*
X97637600Y-139852400D02*
X95326200Y-142163800D01*
X131371571Y-81757142D02*
X124259571Y-74645142D01*
X114274600Y-78226542D02*
X101856771Y-78226542D01*
X95502656Y-72972856D02*
X87045800Y-81429712D01*
X138003722Y-150736258D02*
X138019990Y-150719990D01*
X81788000Y-140843000D02*
X80416400Y-139471400D01*
X95502656Y-72972856D02*
X94084371Y-74391142D01*
X101598656Y-78484656D02*
X95885000Y-84198312D01*
X47846400Y-151180800D02*
X46865771Y-150200171D01*
X118163571Y-150997542D02*
X118163571Y-82115513D01*
X102364771Y-81045942D02*
X102364771Y-81048629D01*
X99263200Y-139954000D02*
X95986600Y-143230600D01*
X137997361Y-150714532D02*
X137997361Y-81651932D01*
X80441800Y-143230600D02*
X77851000Y-140639800D01*
X82727800Y-139598400D02*
X81737200Y-138607800D01*
X98715756Y-75703356D02*
X91770200Y-82648912D01*
X101856771Y-78226542D02*
X101598656Y-78484656D01*
X102364771Y-81048629D02*
X97586800Y-85826600D01*
X131521200Y-150926800D02*
X131267200Y-151180800D01*
X79197200Y-140106400D02*
X79197200Y-133350000D01*
X99773971Y-74645142D02*
X98715756Y-75703356D01*
X137998200Y-150672800D02*
X138379200Y-151053800D01*
X144221200Y-151053800D02*
X144602200Y-150672800D01*
X84237600Y-133335800D02*
X85344000Y-134442200D01*
X46865771Y-116075229D02*
X49961800Y-112979200D01*
X99553956Y-77709956D02*
X94005400Y-83258512D01*
X137871200Y-151053800D02*
X137998200Y-150926800D01*
X95885000Y-84198312D02*
X95885000Y-139268200D01*
X101598656Y-78484656D02*
X100688371Y-79394942D01*
X93927856Y-71525056D02*
X84709000Y-80743912D01*
X118186200Y-150672800D02*
X118567200Y-151053800D01*
X99263200Y-86741000D02*
X99263200Y-139954000D01*
X97637600Y-138734800D02*
X97637600Y-139852400D01*
X111836200Y-151053800D02*
X111328200Y-151053800D01*
X80441800Y-119481600D02*
X80441800Y-128295400D01*
X94310200Y-140843000D02*
X81788000Y-140843000D01*
X125171200Y-151053800D02*
X124663200Y-151053800D01*
X100866171Y-76397742D02*
X99553956Y-77709956D01*
X144475200Y-151053800D02*
X144602200Y-150926800D01*
X100380800Y-85623400D02*
X99263200Y-86741000D01*
X124409200Y-151053800D02*
X124790200Y-150672800D01*
X105585029Y-151059258D02*
X105712029Y-150932258D01*
X118163571Y-82115513D02*
X114274600Y-78226542D01*
X95326200Y-142163800D02*
X81254600Y-142163800D01*
X111582200Y-150926800D02*
X111328200Y-151180800D01*
X97284771Y-71190742D02*
X95502656Y-72972856D01*
X95986600Y-143230600D02*
X80441800Y-143230600D01*
X144602200Y-150926800D02*
X144348200Y-151180800D01*
X105712029Y-150729058D02*
X105716317Y-150724770D01*
X151155400Y-150291800D02*
X150266400Y-151180800D01*
X99553956Y-77709956D02*
X99113571Y-78150342D01*
%TO.N,unconnected-(U2-Pad2)*%
X75590400Y-104252800D02*
X75590400Y-108407200D01*
X75590400Y-108407200D02*
X75209400Y-108788200D01*
X79400400Y-104252800D02*
X79400400Y-106680000D01*
X79400400Y-106680000D02*
X81483200Y-108762800D01*
X78130400Y-104252800D02*
X78130400Y-107569000D01*
X78130400Y-107569000D02*
X79400400Y-108839000D01*
X76860400Y-104252800D02*
X76860400Y-108407200D01*
X76860400Y-108407200D02*
X77317600Y-108864400D01*
%TD*%
M02*
