%TF.GenerationSoftware,KiCad,Pcbnew,(6.0.7)*%
%TF.CreationDate,2022-11-17T10:47:32-05:00*%
%TF.ProjectId,double_layer_prototype,646f7562-6c65-45f6-9c61-7965725f7072,rev?*%
%TF.SameCoordinates,Original*%
%TF.FileFunction,Copper,L2,Bot*%
%TF.FilePolarity,Positive*%
%FSLAX46Y46*%
G04 Gerber Fmt 4.6, Leading zero omitted, Abs format (unit mm)*
G04 Created by KiCad (PCBNEW (6.0.7)) date 2022-11-17 10:47:32*
%MOMM*%
%LPD*%
G01*
G04 APERTURE LIST*
%TA.AperFunction,NonConductor*%
%ADD10C,0.667961*%
%TD*%
%TA.AperFunction,ViaPad*%
%ADD11C,0.710000*%
%TD*%
%TA.AperFunction,Conductor*%
%ADD12C,0.250000*%
%TD*%
G04 APERTURE END LIST*
D10*
X92145819Y-114782600D02*
G75*
G03*
X92145819Y-114782600I-333980J0D01*
G01*
X83154219Y-106019600D02*
G75*
G03*
X83154219Y-106019600I-333980J0D01*
G01*
X85658970Y-134431419D02*
G75*
G03*
X85658970Y-134431419I-333980J0D01*
G01*
X77667819Y-108804439D02*
G75*
G03*
X77667819Y-108804439I-333980J0D01*
G01*
X90884980Y-151171639D02*
G75*
G03*
X90884980Y-151171639I-333980J0D01*
G01*
X75610419Y-108804439D02*
G75*
G03*
X75610419Y-108804439I-333980J0D01*
G01*
X79032341Y-93005639D02*
G75*
G03*
X79032341Y-93005639I-333980J0D01*
G01*
X48720980Y-141147800D02*
G75*
G03*
X48720980Y-141147800I-333980J0D01*
G01*
X79759780Y-108804439D02*
G75*
G03*
X79759780Y-108804439I-333980J0D01*
G01*
X81062258Y-93014800D02*
G75*
G03*
X81062258Y-93014800I-333980J0D01*
G01*
X68904819Y-99364800D02*
G75*
G03*
X68904819Y-99364800I-333980J0D01*
G01*
X83036380Y-93005639D02*
G75*
G03*
X83036380Y-93005639I-333980J0D01*
G01*
X74423009Y-115245258D02*
G75*
G03*
X74423009Y-115245258I-333980J0D01*
G01*
X81791780Y-108804439D02*
G75*
G03*
X81791780Y-108804439I-333980J0D01*
G01*
D11*
%TO.N,*%
X91811839Y-114782600D03*
X82820239Y-106019600D03*
X81457800Y-108804439D03*
X78689200Y-93005639D03*
X77343000Y-108762800D03*
X48389771Y-141158581D03*
X80728278Y-93014800D03*
X90551000Y-151171639D03*
X75276439Y-108804439D03*
X74091800Y-115256039D03*
X82702400Y-93005639D03*
X68570839Y-99364800D03*
X79416639Y-108804439D03*
X85327761Y-134442200D03*
%TD*%
D12*
%TO.N,Net-(A1-Pad17)*%
X83312000Y-106146600D02*
X82753200Y-106146600D01*
X91821000Y-114655600D02*
X83312000Y-106146600D01*
%TO.N,GND*%
X65963800Y-101879400D02*
X68580000Y-99263200D01*
X65963800Y-106908600D02*
X65963800Y-101879400D01*
X65963800Y-106908600D02*
X71374000Y-106908600D01*
X50800000Y-106908600D02*
X65963800Y-106908600D01*
%TO.N,unconnected-(U2-Pad2)*%
X82711561Y-93361239D02*
X82711561Y-93056439D01*
%TO.N,GND*%
X71374000Y-106908600D02*
X74091800Y-109626400D01*
X74091800Y-109626400D02*
X74091800Y-115189000D01*
X48387000Y-141071600D02*
X48387000Y-109321600D01*
X48387000Y-109321600D02*
X50800000Y-106908600D01*
%TO.N,Net-(A1-Pad17)*%
X90551000Y-139649200D02*
X85344000Y-134442200D01*
X90551000Y-150571200D02*
X90551000Y-139649200D01*
%TO.N,unconnected-(U2-Pad2)*%
X151554600Y-150705400D02*
X151554600Y-90975600D01*
X88544400Y-101676200D02*
X88544400Y-95402400D01*
X151409400Y-98907600D02*
X151282400Y-98780600D01*
X90620000Y-151951396D02*
X90635796Y-151951396D01*
X151409400Y-116941600D02*
X151028400Y-116560600D01*
X82169000Y-91440000D02*
X80670400Y-92938600D01*
X94538800Y-107670600D02*
X88544400Y-101676200D01*
X77266800Y-112014000D02*
X77266800Y-108966000D01*
X80670400Y-92938600D02*
X80670400Y-93014800D01*
X94475300Y-134327900D02*
X88214200Y-128066800D01*
X151028400Y-98780600D02*
X151409400Y-98399600D01*
X75285600Y-112598200D02*
X75285600Y-108940600D01*
X89535000Y-93827600D02*
X89535000Y-93776800D01*
X85877400Y-123190000D02*
X75285600Y-112598200D01*
X151409400Y-116687600D02*
X151282400Y-116560600D01*
X151079200Y-125450600D02*
X151460200Y-125069600D01*
X93218000Y-125450600D02*
X79400400Y-111633000D01*
X151104600Y-98780600D02*
X94488000Y-98780600D01*
X151460200Y-125196600D02*
X151460200Y-125704600D01*
X150977600Y-134340600D02*
X94488000Y-134340600D01*
X151027702Y-134341298D02*
X151079200Y-134289800D01*
X90620000Y-151841200D02*
X90620000Y-151951396D01*
X98221800Y-143230600D02*
X85877400Y-130886200D01*
X151384000Y-143611600D02*
X151003000Y-143230600D01*
X88544400Y-95402400D02*
X86156800Y-93014800D01*
X151460200Y-125577600D02*
X151333200Y-125450600D01*
X150241000Y-152019000D02*
X151554600Y-150705400D01*
X90635796Y-151951396D02*
X90703400Y-152019000D01*
X151434800Y-108051600D02*
X151053800Y-107670600D01*
X86156800Y-93014800D02*
X82550000Y-93014800D01*
X150977600Y-116560600D02*
X86461600Y-116560600D01*
X151409400Y-98526600D02*
X151409400Y-99034600D01*
X82132815Y-89916000D02*
X78499245Y-93549570D01*
X87198200Y-91440000D02*
X82169000Y-91440000D01*
X151434800Y-134442200D02*
X151307800Y-134315200D01*
X151434800Y-107416600D02*
X151434800Y-107924600D01*
X88214200Y-122961400D02*
X77266800Y-112014000D01*
X151460200Y-125831600D02*
X151079200Y-125450600D01*
X89535000Y-93776800D02*
X87198200Y-91440000D01*
X151434800Y-134696200D02*
X151053800Y-134315200D01*
X151028400Y-116560600D02*
X151409400Y-116179600D01*
X151003000Y-143230600D02*
X151384000Y-142849600D01*
X151053800Y-107670600D02*
X151434800Y-107289600D01*
X86461600Y-116560600D02*
X81432400Y-111531400D01*
X151384000Y-142976600D02*
X151384000Y-143484600D01*
X151434800Y-134061200D02*
X151434800Y-134569200D01*
X150495000Y-89916000D02*
X82132815Y-89916000D01*
X94488000Y-98780600D02*
X89535000Y-93827600D01*
X90703400Y-152019000D02*
X150241000Y-152019000D01*
X151434800Y-107797600D02*
X151307800Y-107670600D01*
X151053800Y-134315200D02*
X151434800Y-133934200D01*
X151053800Y-125450600D02*
X93218000Y-125450600D01*
X81432400Y-111531400D02*
X81432400Y-108966000D01*
X79400400Y-111633000D02*
X79400400Y-108991400D01*
X151028400Y-107670600D02*
X94538800Y-107670600D01*
X88214200Y-128066800D02*
X88214200Y-122961400D01*
X151554600Y-90975600D02*
X150495000Y-89916000D01*
X151409400Y-116306600D02*
X151409400Y-116814600D01*
X85877400Y-130886200D02*
X85877400Y-123190000D01*
X151046600Y-143237800D02*
X151053800Y-143230600D01*
X150926800Y-143230600D02*
X98221800Y-143230600D01*
X151384000Y-143357600D02*
X151257000Y-143230600D01*
X151409400Y-99161600D02*
X151028400Y-98780600D01*
%TD*%
M02*
