%TF.GenerationSoftware,KiCad,Pcbnew,(5.1.6)-1*%
%TF.CreationDate,2022-05-23T16:17:59-04:00*%
%TF.ProjectId,sensor_v1,73656e73-6f72-45f7-9631-2e6b69636164,rev?*%
%TF.SameCoordinates,Original*%
%TF.FileFunction,Copper,L1,Top*%
%TF.FilePolarity,Positive*%
%FSLAX46Y46*%
G04 Gerber Fmt 4.6, Leading zero omitted, Abs format (unit mm)*
G04 Created by KiCad (PCBNEW (5.1.6)-1) date 2022-05-23 16:17:59*
%MOMM*%
%LPD*%
G01*
G04 APERTURE LIST*
%TA.AperFunction,SMDPad,CuDef*%
%ADD10R,3.000000X1.000000*%
%TD*%
%TA.AperFunction,Conductor*%
%ADD11C,0.250000*%
%TD*%
G04 APERTURE END LIST*
D10*
%TO.P,REF\u002A\u002A,1*%
%TO.N,N/C*%
X102977000Y-76327000D03*
%TO.P,REF\u002A\u002A,2*%
X97937000Y-76327000D03*
%TO.P,REF\u002A\u002A,3*%
X102977000Y-78867000D03*
%TO.P,REF\u002A\u002A,4*%
X97937000Y-78867000D03*
%TO.P,REF\u002A\u002A,5*%
X102977000Y-81407000D03*
%TO.P,REF\u002A\u002A,6*%
X97937000Y-81407000D03*
%TO.P,REF\u002A\u002A,7*%
X102977000Y-83947000D03*
%TO.P,REF\u002A\u002A,8*%
X97937000Y-83947000D03*
%TO.P,REF\u002A\u002A,9*%
X102977000Y-86487000D03*
%TO.P,REF\u002A\u002A,10*%
X97937000Y-86487000D03*
%TO.P,REF\u002A\u002A,11*%
X102977000Y-89027000D03*
%TO.P,REF\u002A\u002A,12*%
X97937000Y-89027000D03*
%TO.P,REF\u002A\u002A,13*%
X102977000Y-91567000D03*
%TO.P,REF\u002A\u002A,14*%
X97937000Y-91567000D03*
%TD*%
%TO.P,REF\u002A\u002A,14*%
%TO.N,N/C*%
X97937000Y-59436000D03*
%TO.P,REF\u002A\u002A,13*%
X102977000Y-59436000D03*
%TO.P,REF\u002A\u002A,12*%
X97937000Y-56896000D03*
%TO.P,REF\u002A\u002A,11*%
X102977000Y-56896000D03*
%TO.P,REF\u002A\u002A,10*%
X97937000Y-54356000D03*
%TO.P,REF\u002A\u002A,9*%
X102977000Y-54356000D03*
%TO.P,REF\u002A\u002A,8*%
X97937000Y-51816000D03*
%TO.P,REF\u002A\u002A,7*%
X102977000Y-51816000D03*
%TO.P,REF\u002A\u002A,6*%
X97937000Y-49276000D03*
%TO.P,REF\u002A\u002A,5*%
X102977000Y-49276000D03*
%TO.P,REF\u002A\u002A,4*%
X97937000Y-46736000D03*
%TO.P,REF\u002A\u002A,3*%
X102977000Y-46736000D03*
%TO.P,REF\u002A\u002A,2*%
X97937000Y-44196000D03*
%TO.P,REF\u002A\u002A,1*%
X102977000Y-44196000D03*
%TD*%
D11*
%TO.N,*%
X97937000Y-60472000D02*
X97937000Y-59436000D01*
X99822000Y-62357000D02*
X97937000Y-60472000D01*
X108712000Y-59436000D02*
X102977000Y-59436000D01*
X111887000Y-46482000D02*
X111125000Y-46482000D01*
X111125000Y-46482000D02*
X109728000Y-47879000D01*
X109728000Y-47879000D02*
X109728000Y-58420000D01*
X109728000Y-58420000D02*
X108712000Y-59436000D01*
X108966000Y-55753000D02*
X107823000Y-56896000D01*
X107823000Y-56896000D02*
X102977000Y-56896000D01*
X114427000Y-46355000D02*
X113919000Y-45847000D01*
X110617000Y-45847000D02*
X108966000Y-47498000D01*
X108966000Y-47498000D02*
X108966000Y-55753000D01*
X113919000Y-45847000D02*
X110617000Y-45847000D01*
X106807000Y-54356000D02*
X102977000Y-54356000D01*
X108331000Y-52832000D02*
X106807000Y-54356000D01*
X116967000Y-46482000D02*
X115697000Y-45212000D01*
X108331000Y-47244000D02*
X108331000Y-52832000D01*
X115697000Y-45212000D02*
X110363000Y-45212000D01*
X110363000Y-45212000D02*
X108331000Y-47244000D01*
X106934000Y-51816000D02*
X102977000Y-51816000D01*
X119507000Y-46482000D02*
X117602000Y-44577000D01*
X117602000Y-44577000D02*
X110109000Y-44577000D01*
X107696000Y-46990000D02*
X107696000Y-51054000D01*
X107696000Y-51054000D02*
X106934000Y-51816000D01*
X110109000Y-44577000D02*
X107696000Y-46990000D01*
X107061000Y-47752000D02*
X105537000Y-49276000D01*
X105537000Y-49276000D02*
X102977000Y-49276000D01*
X122047000Y-46482000D02*
X119507000Y-43942000D01*
X109728000Y-43942000D02*
X107061000Y-46609000D01*
X119507000Y-43942000D02*
X109728000Y-43942000D01*
X107061000Y-46609000D02*
X107061000Y-47752000D01*
X105918000Y-46736000D02*
X102977000Y-46736000D01*
X121412000Y-43307000D02*
X109347000Y-43307000D01*
X109347000Y-43307000D02*
X105918000Y-46736000D01*
X124587000Y-46482000D02*
X121412000Y-43307000D01*
X107569000Y-44196000D02*
X102977000Y-44196000D01*
X123317000Y-42672000D02*
X109093000Y-42672000D01*
X109093000Y-42672000D02*
X107569000Y-44196000D01*
X127127000Y-46482000D02*
X123317000Y-42672000D01*
X99334000Y-42799000D02*
X97937000Y-44196000D01*
X129667000Y-46482000D02*
X125222000Y-42037000D01*
X125222000Y-42037000D02*
X108839000Y-42037000D01*
X108077000Y-42799000D02*
X99334000Y-42799000D01*
X108839000Y-42037000D02*
X108077000Y-42799000D01*
X95885000Y-46736000D02*
X97937000Y-46736000D01*
X95504000Y-46355000D02*
X95885000Y-46736000D01*
X132207000Y-46482000D02*
X127127000Y-41402000D01*
X95504000Y-43561000D02*
X95504000Y-46355000D01*
X96901000Y-42164000D02*
X95504000Y-43561000D01*
X108585000Y-41402000D02*
X107823000Y-42164000D01*
X127127000Y-41402000D02*
X108585000Y-41402000D01*
X107823000Y-42164000D02*
X96901000Y-42164000D01*
X95758000Y-49276000D02*
X97937000Y-49276000D01*
X94869000Y-48387000D02*
X95758000Y-49276000D01*
X96647000Y-41529000D02*
X94869000Y-43307000D01*
X134747000Y-46482000D02*
X129032000Y-40767000D01*
X108331000Y-40767000D02*
X107569000Y-41529000D01*
X129032000Y-40767000D02*
X108331000Y-40767000D01*
X94869000Y-43307000D02*
X94869000Y-48387000D01*
X107569000Y-41529000D02*
X96647000Y-41529000D01*
X95504000Y-51816000D02*
X97937000Y-51816000D01*
X94234000Y-43053000D02*
X94234000Y-50546000D01*
X137287000Y-46482000D02*
X130810000Y-40005000D01*
X130810000Y-40005000D02*
X108204000Y-40005000D01*
X96393000Y-40894000D02*
X94234000Y-43053000D01*
X108204000Y-40005000D02*
X107315000Y-40894000D01*
X94234000Y-50546000D02*
X95504000Y-51816000D01*
X107315000Y-40894000D02*
X96393000Y-40894000D01*
X108077000Y-74930000D02*
X99334000Y-74930000D01*
X108839000Y-74168000D02*
X108077000Y-74930000D01*
X129667000Y-78613000D02*
X125222000Y-74168000D01*
X125222000Y-74168000D02*
X108839000Y-74168000D01*
X132207000Y-78613000D02*
X127127000Y-73533000D01*
X96901000Y-74295000D02*
X95504000Y-75692000D01*
X95504000Y-75692000D02*
X95504000Y-78486000D01*
X95885000Y-78867000D02*
X97937000Y-78867000D01*
X95504000Y-78486000D02*
X95885000Y-78867000D01*
X108585000Y-73533000D02*
X107823000Y-74295000D01*
X107823000Y-74295000D02*
X96901000Y-74295000D01*
X127127000Y-73533000D02*
X108585000Y-73533000D01*
X107315000Y-73025000D02*
X96393000Y-73025000D01*
X95504000Y-83947000D02*
X97937000Y-83947000D01*
X94234000Y-75184000D02*
X94234000Y-82677000D01*
X137287000Y-78613000D02*
X130810000Y-72136000D01*
X108204000Y-72136000D02*
X107315000Y-73025000D01*
X130810000Y-72136000D02*
X108204000Y-72136000D01*
X96393000Y-73025000D02*
X94234000Y-75184000D01*
X94234000Y-82677000D02*
X95504000Y-83947000D01*
X109728000Y-80010000D02*
X109728000Y-90551000D01*
X109728000Y-90551000D02*
X108712000Y-91567000D01*
X108712000Y-91567000D02*
X102977000Y-91567000D01*
X111125000Y-78613000D02*
X109728000Y-80010000D01*
X111887000Y-78613000D02*
X111125000Y-78613000D01*
X105537000Y-81407000D02*
X102977000Y-81407000D01*
X122047000Y-78613000D02*
X119507000Y-76073000D01*
X109728000Y-76073000D02*
X107061000Y-78740000D01*
X95504000Y-86487000D02*
X97937000Y-86487000D01*
X132715000Y-71501000D02*
X107950000Y-71501000D01*
X119507000Y-76073000D02*
X109728000Y-76073000D01*
X107061000Y-78740000D02*
X107061000Y-79883000D01*
X107061000Y-72390000D02*
X96139000Y-72390000D01*
X139827000Y-94488000D02*
X139827000Y-78613000D01*
X107569000Y-76327000D02*
X102977000Y-76327000D01*
X108331000Y-79375000D02*
X108331000Y-84963000D01*
X139827000Y-78613000D02*
X132715000Y-71501000D01*
X123317000Y-74803000D02*
X109093000Y-74803000D01*
X93599000Y-84582000D02*
X95504000Y-86487000D01*
X93599000Y-74930000D02*
X93599000Y-84582000D01*
X109093000Y-74803000D02*
X107569000Y-76327000D01*
X106807000Y-86487000D02*
X102977000Y-86487000D01*
X115697000Y-77343000D02*
X110363000Y-77343000D01*
X107950000Y-71501000D02*
X107061000Y-72390000D01*
X108331000Y-84963000D02*
X106807000Y-86487000D01*
X110363000Y-77343000D02*
X108331000Y-79375000D01*
X96139000Y-72390000D02*
X93599000Y-74930000D01*
X116967000Y-78613000D02*
X115697000Y-77343000D01*
X107061000Y-79883000D02*
X105537000Y-81407000D01*
X110617000Y-77978000D02*
X108966000Y-79629000D01*
X121412000Y-75438000D02*
X109347000Y-75438000D01*
X99822000Y-94488000D02*
X97937000Y-92603000D01*
X99334000Y-74930000D02*
X97937000Y-76327000D01*
X96647000Y-73660000D02*
X94869000Y-75438000D01*
X109347000Y-75438000D02*
X105918000Y-78867000D01*
X95758000Y-81407000D02*
X97937000Y-81407000D01*
X108966000Y-79629000D02*
X108966000Y-87884000D01*
X94869000Y-80518000D02*
X95758000Y-81407000D01*
X105918000Y-78867000D02*
X102977000Y-78867000D01*
X124587000Y-78613000D02*
X121412000Y-75438000D01*
X108966000Y-87884000D02*
X107823000Y-89027000D01*
X107823000Y-89027000D02*
X102977000Y-89027000D01*
X114427000Y-78486000D02*
X113919000Y-77978000D01*
X134747000Y-78613000D02*
X129032000Y-72898000D01*
X113919000Y-77978000D02*
X110617000Y-77978000D01*
X97937000Y-92603000D02*
X97937000Y-91567000D01*
X127127000Y-78613000D02*
X123317000Y-74803000D01*
X129032000Y-72898000D02*
X108331000Y-72898000D01*
X110109000Y-76708000D02*
X107696000Y-79121000D01*
X119507000Y-78613000D02*
X117602000Y-76708000D01*
X107569000Y-73660000D02*
X96647000Y-73660000D01*
X117602000Y-76708000D02*
X110109000Y-76708000D01*
X107696000Y-79121000D02*
X107696000Y-83185000D01*
X94869000Y-75438000D02*
X94869000Y-80518000D01*
X108331000Y-72898000D02*
X107569000Y-73660000D01*
X106934000Y-83947000D02*
X102977000Y-83947000D01*
X107696000Y-83185000D02*
X106934000Y-83947000D01*
X111887000Y-62357000D02*
X112522000Y-62357000D01*
X111379000Y-62357000D02*
X99822000Y-62357000D01*
X111887000Y-61595000D02*
X111887000Y-46482000D01*
X113919000Y-62357000D02*
X114935000Y-62357000D01*
X112522000Y-62357000D02*
X113919000Y-62357000D01*
X114427000Y-61468000D02*
X114427000Y-46355000D01*
X119507000Y-62230000D02*
X119634000Y-62357000D01*
X119507000Y-61468000D02*
X119507000Y-62230000D01*
X119507000Y-61468000D02*
X119507000Y-46482000D01*
X116586000Y-62357000D02*
X116967000Y-61976000D01*
X116967000Y-61976000D02*
X116967000Y-46482000D01*
X116967000Y-62357000D02*
X116967000Y-61976000D01*
X116967000Y-61976000D02*
X117348000Y-62357000D01*
X116586000Y-62357000D02*
X117348000Y-62357000D01*
X117348000Y-62357000D02*
X118872000Y-62357000D01*
X114427000Y-61976000D02*
X114046000Y-62357000D01*
X113919000Y-62357000D02*
X114046000Y-62357000D01*
X114427000Y-61976000D02*
X114427000Y-61468000D01*
X114427000Y-62357000D02*
X114427000Y-61976000D01*
X114046000Y-62357000D02*
X114808000Y-62357000D01*
X114427000Y-61976000D02*
X114808000Y-62357000D01*
X114808000Y-62357000D02*
X116586000Y-62357000D01*
X111887000Y-62357000D02*
X111506000Y-62357000D01*
X111887000Y-61976000D02*
X111506000Y-62357000D01*
X111506000Y-62357000D02*
X111379000Y-62357000D01*
X111887000Y-61976000D02*
X111887000Y-62357000D01*
X111887000Y-61595000D02*
X111887000Y-61976000D01*
X111887000Y-61976000D02*
X112268000Y-62357000D01*
X111379000Y-62357000D02*
X112268000Y-62357000D01*
X112268000Y-62357000D02*
X112522000Y-62357000D01*
X119126000Y-62357000D02*
X119634000Y-62357000D01*
X118872000Y-62357000D02*
X119126000Y-62357000D01*
X119507000Y-61976000D02*
X119507000Y-61468000D01*
X119507000Y-61976000D02*
X119126000Y-62357000D01*
X119507000Y-62357000D02*
X119507000Y-61976000D01*
X119507000Y-61976000D02*
X119888000Y-62357000D01*
X119634000Y-62357000D02*
X119888000Y-62357000D01*
X119888000Y-62357000D02*
X120142000Y-62357000D01*
X122047000Y-61849000D02*
X122047000Y-61976000D01*
X122047000Y-61976000D02*
X121666000Y-62357000D01*
X122047000Y-62357000D02*
X122047000Y-61849000D01*
X122047000Y-61849000D02*
X122047000Y-46482000D01*
X118872000Y-62357000D02*
X121666000Y-62357000D01*
X121666000Y-62357000D02*
X122428000Y-62357000D01*
X122047000Y-61976000D02*
X122428000Y-62357000D01*
X124587000Y-61976000D02*
X124206000Y-62357000D01*
X122428000Y-62357000D02*
X124206000Y-62357000D01*
X124587000Y-61976000D02*
X124587000Y-46482000D01*
X124587000Y-62357000D02*
X124587000Y-61976000D01*
X124587000Y-61976000D02*
X124968000Y-62357000D01*
X124206000Y-62357000D02*
X124968000Y-62357000D01*
X124968000Y-62357000D02*
X126746000Y-62357000D01*
X127127000Y-61976000D02*
X127127000Y-46482000D01*
X127127000Y-61976000D02*
X126746000Y-62357000D01*
X127127000Y-62357000D02*
X127127000Y-61976000D01*
X127127000Y-61976000D02*
X127508000Y-62357000D01*
X126746000Y-62357000D02*
X127508000Y-62357000D01*
X129667000Y-61976000D02*
X129286000Y-62357000D01*
X129667000Y-62357000D02*
X129667000Y-61849000D01*
X129667000Y-61849000D02*
X129667000Y-46482000D01*
X127508000Y-62357000D02*
X129286000Y-62357000D01*
X129667000Y-61976000D02*
X130048000Y-62357000D01*
X129667000Y-61849000D02*
X129667000Y-61976000D01*
X129286000Y-62357000D02*
X130048000Y-62357000D01*
X132207000Y-61976000D02*
X131826000Y-62357000D01*
X130048000Y-62357000D02*
X131826000Y-62357000D01*
X132207000Y-61976000D02*
X132207000Y-46482000D01*
X132207000Y-62357000D02*
X132207000Y-61976000D01*
X132207000Y-61976000D02*
X132588000Y-62357000D01*
X131826000Y-62357000D02*
X132588000Y-62357000D01*
X132588000Y-62357000D02*
X134366000Y-62357000D01*
X134747000Y-61976000D02*
X134747000Y-46482000D01*
X134747000Y-61976000D02*
X134366000Y-62357000D01*
X134747000Y-62357000D02*
X134747000Y-61976000D01*
X134747000Y-61976000D02*
X135128000Y-62357000D01*
X134366000Y-62357000D02*
X135128000Y-62357000D01*
X137287000Y-61976000D02*
X136906000Y-62357000D01*
X135128000Y-62357000D02*
X136906000Y-62357000D01*
X137287000Y-62357000D02*
X137287000Y-61976000D01*
X137287000Y-61976000D02*
X137668000Y-62357000D01*
X137287000Y-61849000D02*
X137287000Y-61976000D01*
X137287000Y-61849000D02*
X137287000Y-46482000D01*
X136906000Y-62357000D02*
X137668000Y-62357000D01*
X96139000Y-40259000D02*
X93599000Y-42799000D01*
X93599000Y-42799000D02*
X93599000Y-52451000D01*
X139827000Y-62357000D02*
X139827000Y-46482000D01*
X93599000Y-52451000D02*
X95504000Y-54356000D01*
X95504000Y-54356000D02*
X97937000Y-54356000D01*
X107950000Y-39370000D02*
X107061000Y-40259000D01*
X107061000Y-40259000D02*
X96139000Y-40259000D01*
X132715000Y-39370000D02*
X107950000Y-39370000D01*
X139827000Y-46482000D02*
X132715000Y-39370000D01*
X137668000Y-62357000D02*
X139827000Y-62357000D01*
X111887000Y-94107000D02*
X111506000Y-94488000D01*
X111506000Y-94488000D02*
X99822000Y-94488000D01*
X111887000Y-94107000D02*
X111887000Y-78613000D01*
X111887000Y-94488000D02*
X111506000Y-94488000D01*
X111887000Y-94488000D02*
X111887000Y-94107000D01*
X111887000Y-94488000D02*
X112268000Y-94488000D01*
X111887000Y-94107000D02*
X112268000Y-94488000D01*
X114427000Y-94107000D02*
X114046000Y-94488000D01*
X114427000Y-94488000D02*
X114427000Y-93980000D01*
X114427000Y-93980000D02*
X114427000Y-78486000D01*
X112268000Y-94488000D02*
X114046000Y-94488000D01*
X114427000Y-93980000D02*
X114427000Y-94107000D01*
X114427000Y-94107000D02*
X114808000Y-94488000D01*
X114046000Y-94488000D02*
X114808000Y-94488000D01*
X116967000Y-94107000D02*
X116586000Y-94488000D01*
X116967000Y-93980000D02*
X116967000Y-78613000D01*
X114808000Y-94488000D02*
X116586000Y-94488000D01*
X116967000Y-94488000D02*
X116967000Y-93980000D01*
X116967000Y-94107000D02*
X117348000Y-94488000D01*
X116967000Y-93980000D02*
X116967000Y-94107000D01*
X116586000Y-94488000D02*
X117348000Y-94488000D01*
X119507000Y-94488000D02*
X119507000Y-93980000D01*
X119507000Y-93980000D02*
X119507000Y-78613000D01*
X117348000Y-94488000D02*
X119126000Y-94488000D01*
X119507000Y-94107000D02*
X119126000Y-94488000D01*
X119507000Y-93980000D02*
X119507000Y-94107000D01*
X119126000Y-94488000D02*
X119888000Y-94488000D01*
X119507000Y-94107000D02*
X119888000Y-94488000D01*
X122047000Y-94107000D02*
X121666000Y-94488000D01*
X122047000Y-94488000D02*
X122047000Y-93980000D01*
X122047000Y-93980000D02*
X122047000Y-78613000D01*
X119888000Y-94488000D02*
X121666000Y-94488000D01*
X122047000Y-93980000D02*
X122047000Y-94107000D01*
X121666000Y-94488000D02*
X122428000Y-94488000D01*
X122047000Y-94107000D02*
X122428000Y-94488000D01*
X124587000Y-94107000D02*
X124206000Y-94488000D01*
X124587000Y-94488000D02*
X124587000Y-93980000D01*
X124587000Y-93980000D02*
X124587000Y-78613000D01*
X122428000Y-94488000D02*
X124206000Y-94488000D01*
X124587000Y-93980000D02*
X124587000Y-94107000D01*
X124587000Y-94107000D02*
X124968000Y-94488000D01*
X124206000Y-94488000D02*
X124968000Y-94488000D01*
X127127000Y-94107000D02*
X126746000Y-94488000D01*
X127127000Y-94488000D02*
X127127000Y-93980000D01*
X127127000Y-93980000D02*
X127127000Y-78613000D01*
X124968000Y-94488000D02*
X126746000Y-94488000D01*
X127127000Y-94107000D02*
X127508000Y-94488000D01*
X127127000Y-93980000D02*
X127127000Y-94107000D01*
X126746000Y-94488000D02*
X127508000Y-94488000D01*
X129667000Y-94107000D02*
X129286000Y-94488000D01*
X129667000Y-94488000D02*
X129667000Y-93980000D01*
X129667000Y-93980000D02*
X129667000Y-78613000D01*
X127508000Y-94488000D02*
X129286000Y-94488000D01*
X129667000Y-93980000D02*
X129667000Y-94107000D01*
X129286000Y-94488000D02*
X130048000Y-94488000D01*
X129667000Y-94107000D02*
X130048000Y-94488000D01*
X132207000Y-94107000D02*
X131826000Y-94488000D01*
X132207000Y-94488000D02*
X132207000Y-93980000D01*
X132207000Y-93980000D02*
X132207000Y-78613000D01*
X130048000Y-94488000D02*
X131826000Y-94488000D01*
X132207000Y-94107000D02*
X132588000Y-94488000D01*
X132207000Y-93980000D02*
X132207000Y-94107000D01*
X131826000Y-94488000D02*
X132588000Y-94488000D01*
X134747000Y-94107000D02*
X134366000Y-94488000D01*
X134747000Y-94488000D02*
X134747000Y-93980000D01*
X134747000Y-93980000D02*
X134747000Y-78613000D01*
X132588000Y-94488000D02*
X134366000Y-94488000D01*
X134747000Y-94107000D02*
X135128000Y-94488000D01*
X134747000Y-93980000D02*
X134747000Y-94107000D01*
X134366000Y-94488000D02*
X135128000Y-94488000D01*
X137287000Y-94107000D02*
X136906000Y-94488000D01*
X137287000Y-93980000D02*
X137287000Y-78613000D01*
X137287000Y-94488000D02*
X137287000Y-93980000D01*
X135128000Y-94488000D02*
X136906000Y-94488000D01*
X137287000Y-94107000D02*
X137668000Y-94488000D01*
X137287000Y-93980000D02*
X137287000Y-94107000D01*
X136906000Y-94488000D02*
X137668000Y-94488000D01*
X137668000Y-94488000D02*
X139827000Y-94488000D01*
%TD*%
M02*
