%TF.GenerationSoftware,KiCad,Pcbnew,(5.1.6)-1*%
%TF.CreationDate,2022-05-19T15:55:08-04:00*%
%TF.ProjectId,sensor_v1,73656e73-6f72-45f7-9631-2e6b69636164,rev?*%
%TF.SameCoordinates,Original*%
%TF.FileFunction,Legend,Top*%
%TF.FilePolarity,Positive*%
%FSLAX46Y46*%
G04 Gerber Fmt 4.6, Leading zero omitted, Abs format (unit mm)*
G04 Created by KiCad (PCBNEW (5.1.6)-1) date 2022-05-19 15:55:08*
%MOMM*%
%LPD*%
G01*
G04 APERTURE LIST*
%ADD10C,0.120000*%
%ADD11C,0.150000*%
G04 APERTURE END LIST*
D10*
%TO.C,REF\u002A\u002A*%
X97857000Y-74997000D02*
X103057000Y-74997000D01*
X103057000Y-74997000D02*
X103057000Y-75567000D01*
X103057000Y-77087000D02*
X103057000Y-78107000D01*
X103057000Y-79627000D02*
X103057000Y-80647000D01*
X103057000Y-82167000D02*
X103057000Y-83187000D01*
X103057000Y-84707000D02*
X103057000Y-85727000D01*
X103057000Y-87247000D02*
X103057000Y-88267000D01*
X103057000Y-89787000D02*
X103057000Y-90807000D01*
X103057000Y-92327000D02*
X103057000Y-92897000D01*
X97857000Y-92897000D02*
X103057000Y-92897000D01*
X97857000Y-74997000D02*
X97857000Y-75567000D01*
X97857000Y-77087000D02*
X97857000Y-78107000D01*
X97857000Y-79627000D02*
X97857000Y-80647000D01*
X97857000Y-82167000D02*
X97857000Y-83187000D01*
X97857000Y-84707000D02*
X97857000Y-85727000D01*
X97857000Y-87247000D02*
X97857000Y-88267000D01*
X97857000Y-89787000D02*
X97857000Y-90807000D01*
X97857000Y-92327000D02*
X97857000Y-92897000D01*
X103057000Y-75567000D02*
X104417000Y-75567000D01*
X97857000Y-42866000D02*
X103057000Y-42866000D01*
X103057000Y-42866000D02*
X103057000Y-43436000D01*
X103057000Y-44956000D02*
X103057000Y-45976000D01*
X103057000Y-47496000D02*
X103057000Y-48516000D01*
X103057000Y-50036000D02*
X103057000Y-51056000D01*
X103057000Y-52576000D02*
X103057000Y-53596000D01*
X103057000Y-55116000D02*
X103057000Y-56136000D01*
X103057000Y-57656000D02*
X103057000Y-58676000D01*
X103057000Y-60196000D02*
X103057000Y-60766000D01*
X97857000Y-60766000D02*
X103057000Y-60766000D01*
X97857000Y-42866000D02*
X97857000Y-43436000D01*
X97857000Y-44956000D02*
X97857000Y-45976000D01*
X97857000Y-47496000D02*
X97857000Y-48516000D01*
X97857000Y-50036000D02*
X97857000Y-51056000D01*
X97857000Y-52576000D02*
X97857000Y-53596000D01*
X97857000Y-55116000D02*
X97857000Y-56136000D01*
X97857000Y-57656000D02*
X97857000Y-58676000D01*
X97857000Y-60196000D02*
X97857000Y-60766000D01*
X103057000Y-43436000D02*
X104417000Y-43436000D01*
D11*
X99123666Y-70199380D02*
X98790333Y-69723190D01*
X98552238Y-70199380D02*
X98552238Y-69199380D01*
X98933190Y-69199380D01*
X99028428Y-69247000D01*
X99076047Y-69294619D01*
X99123666Y-69389857D01*
X99123666Y-69532714D01*
X99076047Y-69627952D01*
X99028428Y-69675571D01*
X98933190Y-69723190D01*
X98552238Y-69723190D01*
X99552238Y-69675571D02*
X99885571Y-69675571D01*
X100028428Y-70199380D02*
X99552238Y-70199380D01*
X99552238Y-69199380D01*
X100028428Y-69199380D01*
X100790333Y-69675571D02*
X100457000Y-69675571D01*
X100457000Y-70199380D02*
X100457000Y-69199380D01*
X100933190Y-69199380D01*
X101457000Y-69199380D02*
X101457000Y-69437476D01*
X101218904Y-69342238D02*
X101457000Y-69437476D01*
X101695095Y-69342238D01*
X101314142Y-69627952D02*
X101457000Y-69437476D01*
X101599857Y-69627952D01*
X102218904Y-69199380D02*
X102218904Y-69437476D01*
X101980809Y-69342238D02*
X102218904Y-69437476D01*
X102457000Y-69342238D01*
X102076047Y-69627952D02*
X102218904Y-69437476D01*
X102361761Y-69627952D01*
X99123666Y-38068380D02*
X98790333Y-37592190D01*
X98552238Y-38068380D02*
X98552238Y-37068380D01*
X98933190Y-37068380D01*
X99028428Y-37116000D01*
X99076047Y-37163619D01*
X99123666Y-37258857D01*
X99123666Y-37401714D01*
X99076047Y-37496952D01*
X99028428Y-37544571D01*
X98933190Y-37592190D01*
X98552238Y-37592190D01*
X99552238Y-37544571D02*
X99885571Y-37544571D01*
X100028428Y-38068380D02*
X99552238Y-38068380D01*
X99552238Y-37068380D01*
X100028428Y-37068380D01*
X100790333Y-37544571D02*
X100457000Y-37544571D01*
X100457000Y-38068380D02*
X100457000Y-37068380D01*
X100933190Y-37068380D01*
X101457000Y-37068380D02*
X101457000Y-37306476D01*
X101218904Y-37211238D02*
X101457000Y-37306476D01*
X101695095Y-37211238D01*
X101314142Y-37496952D02*
X101457000Y-37306476D01*
X101599857Y-37496952D01*
X102218904Y-37068380D02*
X102218904Y-37306476D01*
X101980809Y-37211238D02*
X102218904Y-37306476D01*
X102457000Y-37211238D01*
X102076047Y-37496952D02*
X102218904Y-37306476D01*
X102361761Y-37496952D01*
%TD*%
M02*
