%TF.GenerationSoftware,KiCad,Pcbnew,(6.0.7)*%
%TF.CreationDate,2022-11-11T15:56:39-05:00*%
%TF.ProjectId,single_layer_prototype1,73696e67-6c65-45f6-9c61-7965725f7072,rev?*%
%TF.SameCoordinates,Original*%
%TF.FileFunction,Legend,Top*%
%TF.FilePolarity,Positive*%
%FSLAX46Y46*%
G04 Gerber Fmt 4.6, Leading zero omitted, Abs format (unit mm)*
G04 Created by KiCad (PCBNEW (6.0.7)) date 2022-11-11 15:56:39*
%MOMM*%
%LPD*%
G01*
G04 APERTURE LIST*
%ADD10C,0.150000*%
%ADD11C,0.120000*%
G04 APERTURE END LIST*
D10*
%TO.C,A1*%
X90931685Y-121522408D02*
X91407875Y-121522408D01*
X90836447Y-121808122D02*
X91169780Y-120808122D01*
X91503113Y-121808122D01*
X92360256Y-121808122D02*
X91788828Y-121808122D01*
X92074542Y-121808122D02*
X92074542Y-120808122D01*
X91979304Y-120950980D01*
X91884066Y-121046218D01*
X91788828Y-121093837D01*
%TO.C,U2*%
X117404951Y-109443046D02*
X118214475Y-109443046D01*
X118309713Y-109395427D01*
X118357332Y-109347808D01*
X118404951Y-109252570D01*
X118404951Y-109062094D01*
X118357332Y-108966856D01*
X118309713Y-108919237D01*
X118214475Y-108871618D01*
X117404951Y-108871618D01*
X117500190Y-108443046D02*
X117452571Y-108395427D01*
X117404951Y-108300189D01*
X117404951Y-108062094D01*
X117452571Y-107966856D01*
X117500190Y-107919237D01*
X117595428Y-107871618D01*
X117690666Y-107871618D01*
X117833523Y-107919237D01*
X118404951Y-108490665D01*
X118404951Y-107871618D01*
D11*
%TO.C,A1*%
X97995971Y-115005742D02*
X97995971Y-117545742D01*
X82625971Y-120215742D02*
X100665971Y-120215742D01*
X97995971Y-115005742D02*
X100665971Y-115005742D01*
X82625971Y-76775742D02*
X82625971Y-120215742D01*
X100535971Y-120150742D02*
X100535971Y-117480742D01*
X100665971Y-115005742D02*
X100665971Y-76775742D01*
X85425971Y-117545742D02*
X82755971Y-117545742D01*
X100665971Y-76775742D02*
X82625971Y-76775742D01*
X85360971Y-79445742D02*
X82690971Y-79445742D01*
X97995971Y-115005742D02*
X97995971Y-79445742D01*
X97995971Y-79445742D02*
X100665971Y-79445742D01*
X85360971Y-117545742D02*
X85360971Y-79445742D01*
X97995971Y-117545742D02*
X100665971Y-117545742D01*
D10*
%TO.C,U2*%
X108377571Y-105806142D02*
X108377571Y-111556142D01*
X117027571Y-111556142D02*
X116727571Y-111556142D01*
X108377571Y-105806142D02*
X108677571Y-105806142D01*
X108377571Y-111556142D02*
X108677571Y-111556142D01*
X116802571Y-105806142D02*
X116802571Y-104206142D01*
X117027571Y-105806142D02*
X117027571Y-111556142D01*
X117027571Y-105806142D02*
X116802571Y-105806142D01*
%TD*%
M02*
