%TF.GenerationSoftware,KiCad,Pcbnew,(6.0.7)*%
%TF.CreationDate,2022-11-11T15:56:39-05:00*%
%TF.ProjectId,single_layer_prototype1,73696e67-6c65-45f6-9c61-7965725f7072,rev?*%
%TF.SameCoordinates,Original*%
%TF.FileFunction,Paste,Top*%
%TF.FilePolarity,Positive*%
%FSLAX46Y46*%
G04 Gerber Fmt 4.6, Leading zero omitted, Abs format (unit mm)*
G04 Created by KiCad (PCBNEW (6.0.7)) date 2022-11-11 15:56:39*
%MOMM*%
%LPD*%
G01*
G04 APERTURE LIST*
%ADD10R,2.500000X1.750000*%
%ADD11R,0.450000X1.750000*%
G04 APERTURE END LIST*
D10*
%TO.C,A1*%
X100405971Y-116275742D03*
X100405971Y-113735742D03*
X100405971Y-111195742D03*
X100405971Y-108655742D03*
X100405971Y-106115742D03*
X100405971Y-103575742D03*
X100405971Y-101035742D03*
X100405971Y-98495742D03*
X100405971Y-95955742D03*
X100405971Y-93415742D03*
X100405971Y-90875742D03*
X100405971Y-88335742D03*
X100405971Y-85795742D03*
X100405971Y-83255742D03*
X100405971Y-80715742D03*
X82755971Y-80715742D03*
X82755971Y-83255742D03*
X82755971Y-85795742D03*
X82755971Y-88335742D03*
X82755971Y-90875742D03*
X82755971Y-93415742D03*
X82755971Y-95955742D03*
X82755971Y-98495742D03*
X82755971Y-101035742D03*
X82755971Y-103575742D03*
X82755971Y-106115742D03*
X82755971Y-108655742D03*
X82755971Y-111195742D03*
X82755971Y-113735742D03*
X82755971Y-116275742D03*
%TD*%
D11*
%TO.C,U2*%
X116277571Y-105081142D03*
X115627571Y-105081142D03*
X114977571Y-105081142D03*
X114327571Y-105081142D03*
X113677571Y-105081142D03*
X113027571Y-105081142D03*
X112377571Y-105081142D03*
X111727571Y-105081142D03*
X111077571Y-105081142D03*
X110427571Y-105081142D03*
X109777571Y-105081142D03*
X109127571Y-105081142D03*
X109127571Y-112281142D03*
X109777571Y-112281142D03*
X110427571Y-112281142D03*
X111077571Y-112281142D03*
X111727571Y-112281142D03*
X112377571Y-112281142D03*
X113027571Y-112281142D03*
X113677571Y-112281142D03*
X114327571Y-112281142D03*
X114977571Y-112281142D03*
X115627571Y-112281142D03*
X116277571Y-112281142D03*
%TD*%
M02*
