%TF.GenerationSoftware,KiCad,Pcbnew,(5.1.6)-1*%
%TF.CreationDate,2022-05-15T12:52:13-04:00*%
%TF.ProjectId,sensor_v1,73656e73-6f72-45f7-9631-2e6b69636164,rev?*%
%TF.SameCoordinates,Original*%
%TF.FileFunction,Copper,L1,Top*%
%TF.FilePolarity,Positive*%
%FSLAX46Y46*%
G04 Gerber Fmt 4.6, Leading zero omitted, Abs format (unit mm)*
G04 Created by KiCad (PCBNEW (5.1.6)-1) date 2022-05-15 12:52:13*
%MOMM*%
%LPD*%
G01*
G04 APERTURE LIST*
%TA.AperFunction,Conductor*%
%ADD10C,0.250000*%
%TD*%
G04 APERTURE END LIST*
%TO.P,+,2*%
%TO.N,N/C*%
%TA.AperFunction,SMDPad,CuDef*%
G36*
G01*
X108882000Y-84725000D02*
X111082000Y-84725000D01*
G75*
G02*
X111482000Y-85125000I0J-400000D01*
G01*
X111482000Y-86325000D01*
G75*
G02*
X111082000Y-86725000I-400000J0D01*
G01*
X108882000Y-86725000D01*
G75*
G02*
X108482000Y-86325000I0J400000D01*
G01*
X108482000Y-85125000D01*
G75*
G02*
X108882000Y-84725000I400000J0D01*
G01*
G37*
%TD.AperFunction*%
%TO.P,+,1*%
%TA.AperFunction,SMDPad,CuDef*%
G36*
G01*
X108882000Y-77105000D02*
X111082000Y-77105000D01*
G75*
G02*
X111482000Y-77505000I0J-400000D01*
G01*
X111482000Y-78705000D01*
G75*
G02*
X111082000Y-79105000I-400000J0D01*
G01*
X108882000Y-79105000D01*
G75*
G02*
X108482000Y-78705000I0J400000D01*
G01*
X108482000Y-77505000D01*
G75*
G02*
X108882000Y-77105000I400000J0D01*
G01*
G37*
%TD.AperFunction*%
%TD*%
D10*
%TO.N,*%
X109982000Y-85725000D02*
X113030000Y-85725000D01*
X113030000Y-85725000D02*
X114300000Y-86995000D01*
X149860000Y-78359000D02*
X149860000Y-78994000D01*
X109982000Y-78105000D02*
X113030000Y-78105000D01*
X113030000Y-78105000D02*
X114300000Y-76835000D01*
X114300000Y-74041000D02*
X114300000Y-73787000D01*
X114300000Y-74041000D02*
X114300000Y-71501000D01*
X114300000Y-73787000D02*
X116459000Y-71628000D01*
X114300000Y-75057000D02*
X114300000Y-74041000D01*
X114300000Y-76327000D02*
X119126000Y-71501000D01*
X114300000Y-71501000D02*
X119126000Y-71501000D01*
X114300000Y-76327000D02*
X114300000Y-75057000D01*
X114300000Y-76835000D02*
X114300000Y-76327000D01*
X119126000Y-71501000D02*
X120396000Y-71501000D01*
X120396000Y-71501000D02*
X149860000Y-71501000D01*
X114300000Y-76835000D02*
X114300000Y-77597000D01*
X119380000Y-73787000D02*
X121539000Y-71628000D01*
X139700000Y-76327000D02*
X144526000Y-71501000D01*
X129540000Y-76327000D02*
X134366000Y-71501000D01*
X134620000Y-76327000D02*
X139446000Y-71501000D01*
X139700000Y-73787000D02*
X141859000Y-71628000D01*
X119380000Y-73787000D02*
X114300000Y-78867000D01*
X114300000Y-77597000D02*
X114300000Y-78867000D01*
X114300000Y-78867000D02*
X114300000Y-80137000D01*
X114300000Y-80137000D02*
X114300000Y-81407000D01*
X120523000Y-75184000D02*
X124206000Y-71501000D01*
X120523000Y-75184000D02*
X114300000Y-81407000D01*
X114300000Y-81407000D02*
X114300000Y-82677000D01*
X124714000Y-73533000D02*
X114300000Y-83947000D01*
X124714000Y-73533000D02*
X126619000Y-71628000D01*
X114300000Y-82677000D02*
X114300000Y-83947000D01*
X114300000Y-86487000D02*
X114300000Y-86995000D01*
X114300000Y-85217000D02*
X114300000Y-86487000D01*
X124587000Y-76200000D02*
X114300000Y-86487000D01*
X124587000Y-76200000D02*
X129286000Y-71501000D01*
X114300000Y-86995000D02*
X114300000Y-87757000D01*
X130302000Y-73025000D02*
X114300000Y-89027000D01*
X114300000Y-87757000D02*
X114300000Y-89027000D01*
X130302000Y-73025000D02*
X131699000Y-71628000D01*
X134747000Y-73660000D02*
X136779000Y-71628000D01*
X114300000Y-89027000D02*
X114300000Y-90297000D01*
X114300000Y-91567000D02*
X114300000Y-92329000D01*
X114300000Y-90297000D02*
X114300000Y-91567000D01*
X119507000Y-86360000D02*
X114300000Y-91567000D01*
X114300000Y-92329000D02*
X114808000Y-92329000D01*
X114808000Y-92329000D02*
X116078000Y-92329000D01*
X119380000Y-89027000D02*
X116078000Y-92329000D01*
X116078000Y-92329000D02*
X117348000Y-92329000D01*
X114300000Y-84963000D02*
X114427000Y-84963000D01*
X114300000Y-84963000D02*
X114300000Y-85217000D01*
X114300000Y-83947000D02*
X114300000Y-84963000D01*
X117348000Y-92329000D02*
X118618000Y-92329000D01*
X124904500Y-86042500D02*
X118618000Y-92329000D01*
X118618000Y-92329000D02*
X119888000Y-92329000D01*
X124460000Y-89027000D02*
X121158000Y-92329000D01*
X119888000Y-92329000D02*
X121158000Y-92329000D01*
X124460000Y-91567000D02*
X123698000Y-92329000D01*
X121158000Y-92329000D02*
X122428000Y-92329000D01*
X122428000Y-92329000D02*
X123698000Y-92329000D01*
X134620000Y-76327000D02*
X139446000Y-71501000D01*
X139700000Y-76327000D02*
X144526000Y-71501000D01*
X144780000Y-73787000D02*
X146939000Y-71628000D01*
X144780000Y-76327000D02*
X149606000Y-71501000D01*
X135382000Y-73025000D02*
X136779000Y-71628000D01*
X139827000Y-73660000D02*
X141859000Y-71628000D01*
X123698000Y-92329000D02*
X124968000Y-92329000D01*
X129857500Y-88709500D02*
X126238000Y-92329000D01*
X124968000Y-92329000D02*
X126238000Y-92329000D01*
X129540000Y-91567000D02*
X128778000Y-92329000D01*
X126238000Y-92329000D02*
X128778000Y-92329000D01*
X149860000Y-71501000D02*
X149860000Y-72644000D01*
X128778000Y-92329000D02*
X130175000Y-92329000D01*
X149860000Y-72644000D02*
X149860000Y-73914000D01*
X149860000Y-73914000D02*
X149796500Y-73977500D01*
X149796500Y-73977500D02*
X149796500Y-74104500D01*
X149796500Y-73977500D02*
X149098000Y-74676000D01*
X149860000Y-73914000D02*
X149860000Y-75057000D01*
X149860000Y-76327000D02*
X149352000Y-76835000D01*
X149860000Y-75057000D02*
X149860000Y-76327000D01*
X149860000Y-77470000D02*
X149860000Y-78359000D01*
X149860000Y-76327000D02*
X149860000Y-77470000D01*
X135001000Y-92329000D02*
X134874000Y-92329000D01*
X133858000Y-92329000D02*
X134874000Y-92329000D01*
X135318500Y-90868500D02*
X133858000Y-92329000D01*
X149860000Y-76327000D02*
X135318500Y-90868500D01*
X134493000Y-89281000D02*
X131445000Y-92329000D01*
X130175000Y-92329000D02*
X131445000Y-92329000D01*
X131445000Y-92329000D02*
X133858000Y-92329000D01*
X149860000Y-78867000D02*
X138303000Y-90424000D01*
X149860000Y-80137000D02*
X149860000Y-78359000D01*
X149860000Y-81407000D02*
X149860000Y-80137000D01*
X149860000Y-82677000D02*
X149860000Y-81407000D01*
X149860000Y-83947000D02*
X149860000Y-82677000D01*
X149860000Y-92329000D02*
X149860000Y-83947000D01*
X134874000Y-92329000D02*
X135128000Y-92329000D01*
X138303000Y-90424000D02*
X136398000Y-92329000D01*
X135128000Y-92329000D02*
X136398000Y-92329000D01*
X148717000Y-82550000D02*
X138938000Y-92329000D01*
X136398000Y-92329000D02*
X138938000Y-92329000D01*
X149860000Y-81407000D02*
X148717000Y-82550000D01*
X138938000Y-92329000D02*
X140208000Y-92329000D01*
X148971000Y-84836000D02*
X141478000Y-92329000D01*
X140208000Y-92329000D02*
X141478000Y-92329000D01*
X149860000Y-83947000D02*
X148971000Y-84836000D01*
X148717000Y-87630000D02*
X144018000Y-92329000D01*
X141478000Y-92329000D02*
X144018000Y-92329000D01*
X149860000Y-86487000D02*
X148717000Y-87630000D01*
X144018000Y-92329000D02*
X145288000Y-92329000D01*
X145288000Y-92329000D02*
X146558000Y-92329000D01*
X148844000Y-90043000D02*
X146558000Y-92329000D01*
X149860000Y-89027000D02*
X148844000Y-90043000D01*
X147828000Y-92329000D02*
X149860000Y-92329000D01*
X146558000Y-92329000D02*
X147828000Y-92329000D01*
X134747000Y-73660000D02*
X129984500Y-78422500D01*
X140462000Y-75565000D02*
X124460000Y-91567000D01*
X139827000Y-73660000D02*
X135064500Y-78422500D01*
X134620000Y-78867000D02*
X124460000Y-89027000D01*
X145542000Y-75565000D02*
X129540000Y-91567000D01*
X139700000Y-73787000D02*
X139827000Y-73660000D01*
X139954000Y-76073000D02*
X129984500Y-86042500D01*
X144780000Y-73787000D02*
X139700000Y-78867000D01*
X134747000Y-78740000D02*
X134620000Y-78867000D01*
X134620000Y-73787000D02*
X134747000Y-73660000D01*
X139700000Y-73787000D02*
X134620000Y-78867000D01*
X139827000Y-78740000D02*
X139700000Y-78867000D01*
X119380000Y-89027000D02*
X119253000Y-89154000D01*
X129540000Y-73787000D02*
X130302000Y-73025000D01*
X119380000Y-76327000D02*
X120523000Y-75184000D01*
X124460000Y-76327000D02*
X124587000Y-76200000D01*
X129984500Y-78422500D02*
X119380000Y-89027000D01*
X124460000Y-73787000D02*
X124714000Y-73533000D01*
X119507000Y-86360000D02*
X119253000Y-86614000D01*
X129667000Y-76200000D02*
X119507000Y-86360000D01*
X149352000Y-74422000D02*
X134493000Y-89281000D01*
X148971000Y-84836000D02*
X148590000Y-85217000D01*
X129857500Y-88709500D02*
X129540000Y-89027000D01*
X139700000Y-78867000D02*
X129857500Y-88709500D01*
X148844000Y-90043000D02*
X148463000Y-90424000D01*
X148717000Y-87630000D02*
X148590000Y-87757000D01*
X148717000Y-82550000D02*
X148463000Y-82804000D01*
X135318500Y-90868500D02*
X135001000Y-91186000D01*
X124904500Y-86042500D02*
X124460000Y-86487000D01*
X134874000Y-76073000D02*
X124904500Y-86042500D01*
X144780000Y-73787000D02*
X149860000Y-78867000D01*
X149860000Y-73787000D02*
X147701000Y-71628000D01*
X149860000Y-84963000D02*
X149733000Y-84963000D01*
X134620000Y-76327000D02*
X129794000Y-71501000D01*
X149860000Y-76327000D02*
X145034000Y-71501000D01*
X129540000Y-76327000D02*
X124714000Y-71501000D01*
X124460000Y-73787000D02*
X122301000Y-71628000D01*
X124460000Y-76327000D02*
X119634000Y-71501000D01*
X139700000Y-89027000D02*
X143002000Y-92329000D01*
X144780000Y-73787000D02*
X142621000Y-71628000D01*
X129286000Y-76073000D02*
X139255500Y-86042500D01*
X139255500Y-86042500D02*
X145542000Y-92329000D01*
X139255500Y-86042500D02*
X139700000Y-86487000D01*
X114300000Y-76327000D02*
X128841500Y-90868500D01*
X128841500Y-90868500D02*
X130302000Y-92329000D01*
X128841500Y-90868500D02*
X129159000Y-91186000D01*
X114300000Y-86487000D02*
X115443000Y-87630000D01*
X129667000Y-89281000D02*
X132715000Y-92329000D01*
X115443000Y-82550000D02*
X125222000Y-92329000D01*
X115443000Y-82550000D02*
X115697000Y-82804000D01*
X114300000Y-81407000D02*
X115443000Y-82550000D01*
X115443000Y-87630000D02*
X120142000Y-92329000D01*
X115443000Y-87630000D02*
X115570000Y-87757000D01*
X114363500Y-73977500D02*
X115062000Y-74676000D01*
X115316000Y-90043000D02*
X117602000Y-92329000D01*
X115316000Y-90043000D02*
X115697000Y-90424000D01*
X114300000Y-89027000D02*
X115316000Y-90043000D01*
X124460000Y-78867000D02*
X134302500Y-88709500D01*
X114300000Y-76327000D02*
X114808000Y-76835000D01*
X134302500Y-88709500D02*
X137922000Y-92329000D01*
X134302500Y-88709500D02*
X134620000Y-89027000D01*
X115189000Y-84836000D02*
X115570000Y-85217000D01*
X114300000Y-83947000D02*
X115189000Y-84836000D01*
X134620000Y-91567000D02*
X135382000Y-92329000D01*
X114300000Y-78867000D02*
X125857000Y-90424000D01*
X115189000Y-84836000D02*
X122682000Y-92329000D01*
X114808000Y-74422000D02*
X129667000Y-89281000D01*
X125857000Y-90424000D02*
X127762000Y-92329000D01*
X134493000Y-76200000D02*
X144653000Y-86360000D01*
X144653000Y-86360000D02*
X149860000Y-91567000D01*
X144653000Y-86360000D02*
X144907000Y-86614000D01*
X139446000Y-73533000D02*
X137541000Y-71628000D01*
X139700000Y-73787000D02*
X139446000Y-73533000D01*
X134175500Y-78422500D02*
X144780000Y-89027000D01*
X139700000Y-76327000D02*
X139573000Y-76200000D01*
X144780000Y-76327000D02*
X143637000Y-75184000D01*
X133858000Y-73025000D02*
X149860000Y-89027000D01*
X139700000Y-91567000D02*
X140462000Y-92329000D01*
X139446000Y-73533000D02*
X149860000Y-83947000D01*
X133858000Y-73025000D02*
X132461000Y-71628000D01*
X139573000Y-76200000D02*
X134874000Y-71501000D01*
X129540000Y-76327000D02*
X124714000Y-71501000D01*
X124460000Y-76327000D02*
X119634000Y-71501000D01*
X134620000Y-73787000D02*
X133858000Y-73025000D01*
X119380000Y-73787000D02*
X117221000Y-71628000D01*
X139573000Y-76200000D02*
X149860000Y-86487000D01*
X144780000Y-89027000D02*
X148082000Y-92329000D01*
X143637000Y-75184000D02*
X139954000Y-71501000D01*
X143637000Y-75184000D02*
X149860000Y-81407000D01*
X144780000Y-89027000D02*
X144907000Y-89154000D01*
X124333000Y-78740000D02*
X124460000Y-78867000D01*
X129413000Y-73660000D02*
X127381000Y-71628000D01*
X124460000Y-73787000D02*
X129540000Y-78867000D01*
X129540000Y-73787000D02*
X129413000Y-73660000D01*
X119380000Y-76327000D02*
X114554000Y-71501000D01*
X128778000Y-73025000D02*
X127381000Y-71628000D01*
X124333000Y-73660000D02*
X122301000Y-71628000D01*
X129413000Y-78740000D02*
X129540000Y-78867000D01*
X119380000Y-73787000D02*
X124460000Y-78867000D01*
X124206000Y-76073000D02*
X134175500Y-86042500D01*
X124460000Y-73787000D02*
X124333000Y-73660000D01*
X118618000Y-75565000D02*
X134620000Y-91567000D01*
X129540000Y-78867000D02*
X139700000Y-89027000D01*
X124333000Y-73660000D02*
X129095500Y-78422500D01*
X123698000Y-75565000D02*
X139700000Y-91567000D01*
X129413000Y-73660000D02*
X134175500Y-78422500D01*
%TD*%
M02*
