%TF.GenerationSoftware,KiCad,Pcbnew,(6.0.7)*%
%TF.CreationDate,2022-09-02T10:45:59-04:00*%
%TF.ProjectId,discrete_resistive_strain_gauge,64697363-7265-4746-955f-726573697374,rev?*%
%TF.SameCoordinates,Original*%
%TF.FileFunction,Copper,L1,Top*%
%TF.FilePolarity,Positive*%
%FSLAX46Y46*%
G04 Gerber Fmt 4.6, Leading zero omitted, Abs format (unit mm)*
G04 Created by KiCad (PCBNEW (6.0.7)) date 2022-09-02 10:45:59*
%MOMM*%
%LPD*%
G01*
G04 APERTURE LIST*
%TA.AperFunction,NonConductor*%
%ADD10C,0.400000*%
%TD*%
%TA.AperFunction,Conductor*%
%ADD11C,0.250000*%
%TD*%
G04 APERTURE END LIST*
D10*
X105918000Y-169799000D02*
X105664000Y-169799000D01*
X105664000Y-169799000D02*
X105664000Y-168529000D01*
X105664000Y-168529000D02*
X105918000Y-168529000D01*
X105918000Y-168529000D02*
X105918000Y-169799000D01*
X108204000Y-169799000D02*
X107950000Y-169799000D01*
X107950000Y-169799000D02*
X107950000Y-168529000D01*
X107950000Y-168529000D02*
X108204000Y-168529000D01*
X108204000Y-168529000D02*
X108204000Y-169799000D01*
X118872000Y-169926000D02*
X118618000Y-169926000D01*
X118618000Y-169926000D02*
X118618000Y-168656000D01*
X118618000Y-168656000D02*
X118872000Y-168656000D01*
X118872000Y-168656000D02*
X118872000Y-169926000D01*
X108966000Y-169799000D02*
X108712000Y-169799000D01*
X108712000Y-169799000D02*
X108712000Y-168529000D01*
X108712000Y-168529000D02*
X108966000Y-168529000D01*
X108966000Y-168529000D02*
X108966000Y-169799000D01*
X109728000Y-169799000D02*
X109474000Y-169799000D01*
X109474000Y-169799000D02*
X109474000Y-168529000D01*
X109474000Y-168529000D02*
X109728000Y-168529000D01*
X109728000Y-168529000D02*
X109728000Y-169799000D01*
X107442000Y-169799000D02*
X107188000Y-169799000D01*
X107188000Y-169799000D02*
X107188000Y-168529000D01*
X107188000Y-168529000D02*
X107442000Y-168529000D01*
X107442000Y-168529000D02*
X107442000Y-169799000D01*
X105156000Y-169799000D02*
X104902000Y-169799000D01*
X104902000Y-169799000D02*
X104902000Y-168529000D01*
X104902000Y-168529000D02*
X105156000Y-168529000D01*
X105156000Y-168529000D02*
X105156000Y-169799000D01*
X106680000Y-169799000D02*
X106426000Y-169799000D01*
X106426000Y-169799000D02*
X106426000Y-168529000D01*
X106426000Y-168529000D02*
X106680000Y-168529000D01*
X106680000Y-168529000D02*
X106680000Y-169799000D01*
D11*
%TO.N,*%
X110236000Y-103124000D02*
X110236000Y-103886000D01*
X110236000Y-147447000D02*
X118110000Y-147447000D01*
X118872000Y-99314000D02*
X118872000Y-99060000D01*
X118110000Y-147447000D02*
X118110000Y-146685000D01*
X110236000Y-145161000D02*
X110236000Y-144399000D01*
X110236000Y-106172000D02*
X110236000Y-106934000D01*
X118110000Y-155067000D02*
X118110000Y-154305000D01*
X118618000Y-144526000D02*
X118872000Y-144526000D01*
X118110000Y-154305000D02*
X110236000Y-154305000D01*
X118110000Y-136779000D02*
X110236000Y-136779000D01*
X118872000Y-121412000D02*
X118872000Y-110490000D01*
X118491000Y-144399000D02*
X118618000Y-144526000D01*
X118491000Y-110109000D02*
X118618000Y-109982000D01*
X110236000Y-133731000D02*
X110236000Y-132969000D01*
X110236000Y-117729000D02*
X118110000Y-117729000D01*
X118110000Y-125349000D02*
X110236000Y-125349000D01*
X110236000Y-157353000D02*
X118110000Y-157353000D01*
X118872000Y-169926000D02*
X118872000Y-156210000D01*
X118110000Y-139065000D02*
X118110000Y-138303000D01*
X110236000Y-154305000D02*
X110236000Y-153543000D01*
X118491000Y-110109000D02*
X118618000Y-110236000D01*
X110236000Y-139065000D02*
X118110000Y-139065000D01*
X110236000Y-150495000D02*
X118110000Y-150495000D01*
X118110000Y-109220000D02*
X109982000Y-109220000D01*
X118364000Y-121539000D02*
X118491000Y-121539000D01*
X110236000Y-158115000D02*
X110236000Y-157353000D01*
X110236000Y-90170000D02*
X110236000Y-90932000D01*
X108712000Y-99060000D02*
X104902000Y-102870000D01*
X118618000Y-155956000D02*
X118872000Y-155956000D01*
X110236000Y-161925000D02*
X118110000Y-161925000D01*
X118110000Y-90932000D02*
X118110000Y-91694000D01*
X118618000Y-121412000D02*
X118872000Y-121412000D01*
X118110000Y-95504000D02*
X118110000Y-96266000D01*
X110236000Y-103886000D02*
X118110000Y-103886000D01*
X110236000Y-140589000D02*
X118110000Y-140589000D01*
X118110000Y-106934000D02*
X118110000Y-107696000D01*
X118618000Y-110236000D02*
X118872000Y-109982000D01*
X118110000Y-162687000D02*
X110236000Y-162687000D01*
X118110000Y-101600000D02*
X110236000Y-101600000D01*
X109982000Y-120777000D02*
X118110000Y-120777000D01*
X110236000Y-122301000D02*
X110236000Y-121539000D01*
X110236000Y-102362000D02*
X118110000Y-102362000D01*
X118491000Y-155829000D02*
X118618000Y-155702000D01*
X109601000Y-143637000D02*
X118110000Y-143637000D01*
X118110000Y-145161000D02*
X110236000Y-145161000D01*
X118110000Y-150495000D02*
X118110000Y-149733000D01*
X118110000Y-140589000D02*
X118110000Y-139827000D01*
X118110000Y-103124000D02*
X110236000Y-103124000D01*
X109982000Y-120777000D02*
X109855000Y-120777000D01*
X109855000Y-155067000D02*
X118110000Y-155067000D01*
X118110000Y-108458000D02*
X118110000Y-109220000D01*
X118618000Y-98806000D02*
X118618000Y-98552000D01*
X110236000Y-126873000D02*
X110236000Y-126111000D01*
X118364000Y-121666000D02*
X118872000Y-122174000D01*
X110236000Y-142875000D02*
X110236000Y-142113000D01*
X110236000Y-119253000D02*
X118110000Y-119253000D01*
X118110000Y-90170000D02*
X110236000Y-90170000D01*
X110236000Y-155829000D02*
X118491000Y-155829000D01*
X118110000Y-141351000D02*
X110236000Y-141351000D01*
X109982000Y-97790000D02*
X108712000Y-99060000D01*
X118110000Y-134493000D02*
X118110000Y-133731000D01*
X118110000Y-100076000D02*
X110236000Y-100076000D01*
X107950000Y-169926000D02*
X107950000Y-145288000D01*
X110236000Y-148971000D02*
X118110000Y-148971000D01*
X118364000Y-98552000D02*
X118618000Y-98552000D01*
X118110000Y-97790000D02*
X109982000Y-97790000D01*
X110236000Y-137541000D02*
X118110000Y-137541000D01*
X118110000Y-110871000D02*
X110236000Y-110871000D01*
X110236000Y-123063000D02*
X118110000Y-123063000D01*
X118110000Y-102362000D02*
X118110000Y-103124000D01*
X118110000Y-166497000D02*
X118110000Y-165735000D01*
X118491000Y-144399000D02*
X118872000Y-144780000D01*
X110236000Y-105410000D02*
X118110000Y-105410000D01*
X110236000Y-114681000D02*
X118110000Y-114681000D01*
X110236000Y-116205000D02*
X118110000Y-116205000D01*
X118110000Y-153543000D02*
X118110000Y-152781000D01*
X110236000Y-111633000D02*
X118110000Y-111633000D01*
X118110000Y-113157000D02*
X118110000Y-112395000D01*
X109855000Y-166497000D02*
X118110000Y-166497000D01*
X110236000Y-153543000D02*
X118110000Y-153543000D01*
X118872000Y-133350000D02*
X118872000Y-132842000D01*
X110236000Y-112395000D02*
X110236000Y-111633000D01*
X110236000Y-128397000D02*
X110236000Y-127635000D01*
X118110000Y-164973000D02*
X118110000Y-164211000D01*
X110236000Y-101600000D02*
X110236000Y-102362000D01*
X118110000Y-99314000D02*
X118110000Y-100076000D01*
X118110000Y-96266000D02*
X110236000Y-96266000D01*
X118110000Y-131445000D02*
X110236000Y-131445000D01*
X118364000Y-87122000D02*
X110236000Y-87122000D01*
X110236000Y-98552000D02*
X110236000Y-99314000D01*
X118110000Y-119253000D02*
X118110000Y-118491000D01*
X110236000Y-146685000D02*
X110236000Y-145923000D01*
X109855000Y-132207000D02*
X118110000Y-132207000D01*
X118872000Y-144526000D02*
X118872000Y-144018000D01*
X108712000Y-156210000D02*
X109855000Y-155067000D01*
X110236000Y-97028000D02*
X118110000Y-97028000D01*
X110236000Y-110871000D02*
X110236000Y-110109000D01*
X110236000Y-152019000D02*
X118110000Y-152019000D01*
X110236000Y-87884000D02*
X118110000Y-87884000D01*
X118110000Y-132207000D02*
X118110000Y-131445000D01*
X109982000Y-109220000D02*
X109220000Y-109982000D01*
X110236000Y-92456000D02*
X118110000Y-92456000D01*
X118110000Y-127635000D02*
X118110000Y-126873000D01*
X110236000Y-149733000D02*
X110236000Y-148971000D01*
X110236000Y-129921000D02*
X110236000Y-129159000D01*
X118110000Y-128397000D02*
X110236000Y-128397000D01*
X118110000Y-139827000D02*
X110236000Y-139827000D01*
X118110000Y-148209000D02*
X110236000Y-148209000D01*
X118491000Y-144399000D02*
X118872000Y-144018000D01*
X110236000Y-100076000D02*
X110236000Y-100838000D01*
X118872000Y-155702000D02*
X118872000Y-144780000D01*
X118872000Y-122174000D02*
X118872000Y-121920000D01*
X118110000Y-112395000D02*
X110236000Y-112395000D01*
X110236000Y-95504000D02*
X118110000Y-95504000D01*
X105664000Y-113538000D02*
X105664000Y-169926000D01*
X118110000Y-126873000D02*
X110236000Y-126873000D01*
X118110000Y-148971000D02*
X118110000Y-148209000D01*
X118110000Y-143637000D02*
X118110000Y-142875000D01*
X118872000Y-144018000D02*
X118872000Y-133350000D01*
X110236000Y-106934000D02*
X118110000Y-106934000D01*
X110236000Y-134493000D02*
X118110000Y-134493000D01*
X118110000Y-124587000D02*
X118110000Y-123825000D01*
X107188000Y-169926000D02*
X107188000Y-134874000D01*
X118110000Y-136017000D02*
X118110000Y-135255000D01*
X118110000Y-145923000D02*
X118110000Y-145161000D01*
X118110000Y-138303000D02*
X110236000Y-138303000D01*
X110236000Y-123825000D02*
X110236000Y-123063000D01*
X118491000Y-132969000D02*
X118618000Y-132842000D01*
X107188000Y-134874000D02*
X109855000Y-132207000D01*
X118110000Y-161925000D02*
X118110000Y-161163000D01*
X118110000Y-129921000D02*
X110236000Y-129921000D01*
X110236000Y-96266000D02*
X110236000Y-97028000D01*
X118872000Y-99060000D02*
X118872000Y-98552000D01*
X110236000Y-160401000D02*
X118110000Y-160401000D01*
X110236000Y-88646000D02*
X110236000Y-89408000D01*
X110236000Y-130683000D02*
X118110000Y-130683000D01*
X109855000Y-120777000D02*
X108966000Y-121666000D01*
X110236000Y-159639000D02*
X110236000Y-158877000D01*
X110236000Y-121539000D02*
X118364000Y-121539000D01*
X118872000Y-98552000D02*
X118872000Y-87630000D01*
X118110000Y-93980000D02*
X118110000Y-94742000D01*
X118110000Y-165735000D02*
X110236000Y-165735000D01*
X118110000Y-149733000D02*
X110236000Y-149733000D01*
X110236000Y-113919000D02*
X110236000Y-113157000D01*
X109474000Y-169926000D02*
X109474000Y-166878000D01*
X110236000Y-124587000D02*
X118110000Y-124587000D01*
X118872000Y-156210000D02*
X118872000Y-155956000D01*
X110236000Y-161163000D02*
X110236000Y-160401000D01*
X118618000Y-110236000D02*
X118872000Y-110490000D01*
X110236000Y-145923000D02*
X118110000Y-145923000D01*
X118872000Y-132842000D02*
X118872000Y-122174000D01*
X118110000Y-146685000D02*
X110236000Y-146685000D01*
X110236000Y-151257000D02*
X110236000Y-150495000D01*
X118110000Y-115443000D02*
X110236000Y-115443000D01*
X110236000Y-158877000D02*
X118110000Y-158877000D01*
X110236000Y-136017000D02*
X118110000Y-136017000D01*
X118110000Y-133731000D02*
X110236000Y-133731000D01*
X110236000Y-91694000D02*
X110236000Y-92456000D01*
X118491000Y-155829000D02*
X118618000Y-155956000D01*
X118110000Y-164211000D02*
X110236000Y-164211000D01*
X118110000Y-89408000D02*
X118110000Y-90170000D01*
X118110000Y-94742000D02*
X110236000Y-94742000D01*
X118110000Y-160401000D02*
X118110000Y-159639000D01*
X118110000Y-111633000D02*
X118110000Y-110871000D01*
X118110000Y-163449000D02*
X118110000Y-162687000D01*
X110236000Y-152781000D02*
X110236000Y-152019000D01*
X110236000Y-93218000D02*
X110236000Y-93980000D01*
X118872000Y-109982000D02*
X118872000Y-99314000D01*
X110236000Y-163449000D02*
X118110000Y-163449000D01*
X110236000Y-100838000D02*
X118110000Y-100838000D01*
X110236000Y-136779000D02*
X110236000Y-136017000D01*
X110236000Y-110109000D02*
X118491000Y-110109000D01*
X118110000Y-105410000D02*
X118110000Y-106172000D01*
X118110000Y-152781000D02*
X110236000Y-152781000D01*
X118491000Y-132969000D02*
X118872000Y-133350000D01*
X110236000Y-138303000D02*
X110236000Y-137541000D01*
X110236000Y-156591000D02*
X110236000Y-155829000D01*
X118872000Y-155956000D02*
X118872000Y-155702000D01*
X110236000Y-115443000D02*
X110236000Y-114681000D01*
X118364000Y-98552000D02*
X110236000Y-98552000D01*
X118110000Y-151257000D02*
X110236000Y-151257000D01*
X118110000Y-103886000D02*
X118110000Y-104648000D01*
X118110000Y-97028000D02*
X118110000Y-97790000D01*
X118110000Y-107696000D02*
X110236000Y-107696000D01*
X110236000Y-93980000D02*
X118110000Y-93980000D01*
X109474000Y-166878000D02*
X109855000Y-166497000D01*
X118110000Y-116205000D02*
X118110000Y-115443000D01*
X118872000Y-133096000D02*
X118618000Y-132842000D01*
X118110000Y-156591000D02*
X110236000Y-156591000D01*
X118872000Y-133350000D02*
X118872000Y-133096000D01*
X118110000Y-118491000D02*
X110236000Y-118491000D01*
X118110000Y-113919000D02*
X110236000Y-113919000D01*
X118110000Y-161163000D02*
X110236000Y-161163000D01*
X110236000Y-139827000D02*
X110236000Y-139065000D01*
X118110000Y-117729000D02*
X118110000Y-116967000D01*
X118491000Y-155829000D02*
X118872000Y-156210000D01*
X118872000Y-87630000D02*
X118364000Y-87122000D01*
X118110000Y-87884000D02*
X118110000Y-88646000D01*
X108712000Y-169926000D02*
X108712000Y-156210000D01*
X118110000Y-142875000D02*
X110236000Y-142875000D01*
X118618000Y-132842000D02*
X118872000Y-132842000D01*
X110236000Y-99314000D02*
X118110000Y-99314000D01*
X118110000Y-106172000D02*
X110236000Y-106172000D01*
X118110000Y-88646000D02*
X110236000Y-88646000D01*
X118110000Y-122301000D02*
X110236000Y-122301000D01*
X110236000Y-142113000D02*
X118110000Y-142113000D01*
X110236000Y-126111000D02*
X118110000Y-126111000D01*
X118110000Y-135255000D02*
X110236000Y-135255000D01*
X118110000Y-152019000D02*
X118110000Y-151257000D01*
X110236000Y-108458000D02*
X118110000Y-108458000D01*
X118110000Y-116967000D02*
X110236000Y-116967000D01*
X110236000Y-118491000D02*
X110236000Y-117729000D01*
X118618000Y-155702000D02*
X118872000Y-155702000D01*
X110236000Y-132969000D02*
X118491000Y-132969000D01*
X110236000Y-164973000D02*
X118110000Y-164973000D01*
X106426000Y-124206000D02*
X106426000Y-169926000D01*
X118491000Y-121539000D02*
X118618000Y-121412000D01*
X118872000Y-99060000D02*
X118618000Y-98806000D01*
X110236000Y-87122000D02*
X110236000Y-87884000D01*
X110236000Y-141351000D02*
X110236000Y-140589000D01*
X118110000Y-120777000D02*
X118110000Y-120015000D01*
X110236000Y-113157000D02*
X118110000Y-113157000D01*
X118110000Y-92456000D02*
X118110000Y-93218000D01*
X110236000Y-89408000D02*
X118110000Y-89408000D01*
X110236000Y-116967000D02*
X110236000Y-116205000D01*
X109220000Y-109982000D02*
X105664000Y-113538000D01*
X118110000Y-104648000D02*
X110236000Y-104648000D01*
X118110000Y-137541000D02*
X118110000Y-136779000D01*
X108966000Y-121666000D02*
X106426000Y-124206000D01*
X110236000Y-148209000D02*
X110236000Y-147447000D01*
X110236000Y-125349000D02*
X110236000Y-124587000D01*
X110236000Y-144399000D02*
X118491000Y-144399000D01*
X110236000Y-135255000D02*
X110236000Y-134493000D01*
X110236000Y-162687000D02*
X110236000Y-161925000D01*
X118110000Y-100838000D02*
X118110000Y-101600000D01*
X110236000Y-120015000D02*
X110236000Y-119253000D01*
X118110000Y-93218000D02*
X110236000Y-93218000D01*
X118618000Y-109982000D02*
X118872000Y-109982000D01*
X118110000Y-130683000D02*
X118110000Y-129921000D01*
X110236000Y-164211000D02*
X110236000Y-163449000D01*
X118872000Y-144780000D02*
X118872000Y-144526000D01*
X110236000Y-107696000D02*
X110236000Y-108458000D01*
X104902000Y-102870000D02*
X104902000Y-169926000D01*
X118110000Y-126111000D02*
X118110000Y-125349000D01*
X110236000Y-90932000D02*
X118110000Y-90932000D01*
X118872000Y-121920000D02*
X118872000Y-121412000D01*
X118110000Y-123063000D02*
X118110000Y-122301000D01*
X118364000Y-98552000D02*
X118872000Y-99060000D01*
X118110000Y-129159000D02*
X118110000Y-128397000D01*
X110236000Y-104648000D02*
X110236000Y-105410000D01*
X118110000Y-123825000D02*
X110236000Y-123825000D01*
X110236000Y-94742000D02*
X110236000Y-95504000D01*
X107950000Y-145288000D02*
X109601000Y-143637000D01*
X118110000Y-114681000D02*
X118110000Y-113919000D01*
X110236000Y-131445000D02*
X110236000Y-130683000D01*
X118110000Y-120015000D02*
X110236000Y-120015000D01*
X110236000Y-165735000D02*
X110236000Y-164973000D01*
X118872000Y-110490000D02*
X118872000Y-109982000D01*
X118110000Y-142113000D02*
X118110000Y-141351000D01*
X118110000Y-91694000D02*
X110236000Y-91694000D01*
X118618000Y-98552000D02*
X118872000Y-98552000D01*
X118364000Y-121539000D02*
X118364000Y-121666000D01*
X110236000Y-127635000D02*
X118110000Y-127635000D01*
X118110000Y-157353000D02*
X118110000Y-156591000D01*
X118110000Y-158115000D02*
X110236000Y-158115000D01*
X118491000Y-121539000D02*
X118872000Y-121920000D01*
X118110000Y-158877000D02*
X118110000Y-158115000D01*
X110236000Y-129159000D02*
X118110000Y-129159000D01*
X118110000Y-159639000D02*
X110236000Y-159639000D01*
%TD*%
M02*
