%TF.GenerationSoftware,KiCad,Pcbnew,(5.1.6)-1*%
%TF.CreationDate,2022-05-26T21:55:08-04:00*%
%TF.ProjectId,sensor_v1,73656e73-6f72-45f7-9631-2e6b69636164,rev?*%
%TF.SameCoordinates,Original*%
%TF.FileFunction,Soldermask,Top*%
%TF.FilePolarity,Negative*%
%FSLAX46Y46*%
G04 Gerber Fmt 4.6, Leading zero omitted, Abs format (unit mm)*
G04 Created by KiCad (PCBNEW (5.1.6)-1) date 2022-05-26 21:55:08*
%MOMM*%
%LPD*%
G01*
G04 APERTURE LIST*
%ADD10R,3.100000X1.100000*%
G04 APERTURE END LIST*
D10*
%TO.C,REF\u002A\u002A*%
X102977000Y-103251000D03*
X97937000Y-103251000D03*
X102977000Y-105791000D03*
X97937000Y-105791000D03*
X102977000Y-108331000D03*
X97937000Y-108331000D03*
X102977000Y-110871000D03*
X97937000Y-110871000D03*
X102977000Y-113411000D03*
X97937000Y-113411000D03*
X102977000Y-115951000D03*
X97937000Y-115951000D03*
X102977000Y-118491000D03*
X97937000Y-118491000D03*
%TD*%
%TO.C,REF\u002A\u002A*%
X102977000Y-76327000D03*
X97937000Y-76327000D03*
X102977000Y-78867000D03*
X97937000Y-78867000D03*
X102977000Y-81407000D03*
X97937000Y-81407000D03*
X102977000Y-83947000D03*
X97937000Y-83947000D03*
X102977000Y-86487000D03*
X97937000Y-86487000D03*
X102977000Y-89027000D03*
X97937000Y-89027000D03*
X102977000Y-91567000D03*
X97937000Y-91567000D03*
%TD*%
%TO.C,REF\u002A\u002A*%
X97937000Y-64516000D03*
X102977000Y-64516000D03*
X97937000Y-61976000D03*
X102977000Y-61976000D03*
X97937000Y-59436000D03*
X102977000Y-59436000D03*
X97937000Y-56896000D03*
X102977000Y-56896000D03*
X97937000Y-54356000D03*
X102977000Y-54356000D03*
X97937000Y-51816000D03*
X102977000Y-51816000D03*
X97937000Y-49276000D03*
X102977000Y-49276000D03*
%TD*%
M02*
