%TF.GenerationSoftware,KiCad,Pcbnew,(5.1.6)-1*%
%TF.CreationDate,2022-05-26T21:55:08-04:00*%
%TF.ProjectId,sensor_v1,73656e73-6f72-45f7-9631-2e6b69636164,rev?*%
%TF.SameCoordinates,Original*%
%TF.FileFunction,Legend,Top*%
%TF.FilePolarity,Positive*%
%FSLAX46Y46*%
G04 Gerber Fmt 4.6, Leading zero omitted, Abs format (unit mm)*
G04 Created by KiCad (PCBNEW (5.1.6)-1) date 2022-05-26 21:55:08*
%MOMM*%
%LPD*%
G01*
G04 APERTURE LIST*
%ADD10C,0.120000*%
%ADD11C,0.150000*%
G04 APERTURE END LIST*
D10*
%TO.C,REF\u002A\u002A*%
X103057000Y-102491000D02*
X104417000Y-102491000D01*
X97857000Y-119251000D02*
X97857000Y-119821000D01*
X97857000Y-116711000D02*
X97857000Y-117731000D01*
X97857000Y-114171000D02*
X97857000Y-115191000D01*
X97857000Y-111631000D02*
X97857000Y-112651000D01*
X97857000Y-109091000D02*
X97857000Y-110111000D01*
X97857000Y-106551000D02*
X97857000Y-107571000D01*
X97857000Y-104011000D02*
X97857000Y-105031000D01*
X97857000Y-101921000D02*
X97857000Y-102491000D01*
X97857000Y-119821000D02*
X103057000Y-119821000D01*
X103057000Y-119251000D02*
X103057000Y-119821000D01*
X103057000Y-116711000D02*
X103057000Y-117731000D01*
X103057000Y-114171000D02*
X103057000Y-115191000D01*
X103057000Y-111631000D02*
X103057000Y-112651000D01*
X103057000Y-109091000D02*
X103057000Y-110111000D01*
X103057000Y-106551000D02*
X103057000Y-107571000D01*
X103057000Y-104011000D02*
X103057000Y-105031000D01*
X103057000Y-101921000D02*
X103057000Y-102491000D01*
X97857000Y-101921000D02*
X103057000Y-101921000D01*
X103057000Y-75567000D02*
X104417000Y-75567000D01*
X97857000Y-92327000D02*
X97857000Y-92897000D01*
X97857000Y-89787000D02*
X97857000Y-90807000D01*
X97857000Y-87247000D02*
X97857000Y-88267000D01*
X97857000Y-84707000D02*
X97857000Y-85727000D01*
X97857000Y-82167000D02*
X97857000Y-83187000D01*
X97857000Y-79627000D02*
X97857000Y-80647000D01*
X97857000Y-77087000D02*
X97857000Y-78107000D01*
X97857000Y-74997000D02*
X97857000Y-75567000D01*
X97857000Y-92897000D02*
X103057000Y-92897000D01*
X103057000Y-92327000D02*
X103057000Y-92897000D01*
X103057000Y-89787000D02*
X103057000Y-90807000D01*
X103057000Y-87247000D02*
X103057000Y-88267000D01*
X103057000Y-84707000D02*
X103057000Y-85727000D01*
X103057000Y-82167000D02*
X103057000Y-83187000D01*
X103057000Y-79627000D02*
X103057000Y-80647000D01*
X103057000Y-77087000D02*
X103057000Y-78107000D01*
X103057000Y-74997000D02*
X103057000Y-75567000D01*
X97857000Y-74997000D02*
X103057000Y-74997000D01*
X103057000Y-48516000D02*
X104417000Y-48516000D01*
X97857000Y-65276000D02*
X97857000Y-65846000D01*
X97857000Y-62736000D02*
X97857000Y-63756000D01*
X97857000Y-60196000D02*
X97857000Y-61216000D01*
X97857000Y-57656000D02*
X97857000Y-58676000D01*
X97857000Y-55116000D02*
X97857000Y-56136000D01*
X97857000Y-52576000D02*
X97857000Y-53596000D01*
X97857000Y-50036000D02*
X97857000Y-51056000D01*
X97857000Y-47946000D02*
X97857000Y-48516000D01*
X97857000Y-65846000D02*
X103057000Y-65846000D01*
X103057000Y-65276000D02*
X103057000Y-65846000D01*
X103057000Y-62736000D02*
X103057000Y-63756000D01*
X103057000Y-60196000D02*
X103057000Y-61216000D01*
X103057000Y-57656000D02*
X103057000Y-58676000D01*
X103057000Y-55116000D02*
X103057000Y-56136000D01*
X103057000Y-52576000D02*
X103057000Y-53596000D01*
X103057000Y-50036000D02*
X103057000Y-51056000D01*
X103057000Y-47946000D02*
X103057000Y-48516000D01*
X97857000Y-47946000D02*
X103057000Y-47946000D01*
D11*
X99123666Y-97123380D02*
X98790333Y-96647190D01*
X98552238Y-97123380D02*
X98552238Y-96123380D01*
X98933190Y-96123380D01*
X99028428Y-96171000D01*
X99076047Y-96218619D01*
X99123666Y-96313857D01*
X99123666Y-96456714D01*
X99076047Y-96551952D01*
X99028428Y-96599571D01*
X98933190Y-96647190D01*
X98552238Y-96647190D01*
X99552238Y-96599571D02*
X99885571Y-96599571D01*
X100028428Y-97123380D02*
X99552238Y-97123380D01*
X99552238Y-96123380D01*
X100028428Y-96123380D01*
X100790333Y-96599571D02*
X100457000Y-96599571D01*
X100457000Y-97123380D02*
X100457000Y-96123380D01*
X100933190Y-96123380D01*
X101457000Y-96123380D02*
X101457000Y-96361476D01*
X101218904Y-96266238D02*
X101457000Y-96361476D01*
X101695095Y-96266238D01*
X101314142Y-96551952D02*
X101457000Y-96361476D01*
X101599857Y-96551952D01*
X102218904Y-96123380D02*
X102218904Y-96361476D01*
X101980809Y-96266238D02*
X102218904Y-96361476D01*
X102457000Y-96266238D01*
X102076047Y-96551952D02*
X102218904Y-96361476D01*
X102361761Y-96551952D01*
X99123666Y-70199380D02*
X98790333Y-69723190D01*
X98552238Y-70199380D02*
X98552238Y-69199380D01*
X98933190Y-69199380D01*
X99028428Y-69247000D01*
X99076047Y-69294619D01*
X99123666Y-69389857D01*
X99123666Y-69532714D01*
X99076047Y-69627952D01*
X99028428Y-69675571D01*
X98933190Y-69723190D01*
X98552238Y-69723190D01*
X99552238Y-69675571D02*
X99885571Y-69675571D01*
X100028428Y-70199380D02*
X99552238Y-70199380D01*
X99552238Y-69199380D01*
X100028428Y-69199380D01*
X100790333Y-69675571D02*
X100457000Y-69675571D01*
X100457000Y-70199380D02*
X100457000Y-69199380D01*
X100933190Y-69199380D01*
X101457000Y-69199380D02*
X101457000Y-69437476D01*
X101218904Y-69342238D02*
X101457000Y-69437476D01*
X101695095Y-69342238D01*
X101314142Y-69627952D02*
X101457000Y-69437476D01*
X101599857Y-69627952D01*
X102218904Y-69199380D02*
X102218904Y-69437476D01*
X101980809Y-69342238D02*
X102218904Y-69437476D01*
X102457000Y-69342238D01*
X102076047Y-69627952D02*
X102218904Y-69437476D01*
X102361761Y-69627952D01*
X99123666Y-43148380D02*
X98790333Y-42672190D01*
X98552238Y-43148380D02*
X98552238Y-42148380D01*
X98933190Y-42148380D01*
X99028428Y-42196000D01*
X99076047Y-42243619D01*
X99123666Y-42338857D01*
X99123666Y-42481714D01*
X99076047Y-42576952D01*
X99028428Y-42624571D01*
X98933190Y-42672190D01*
X98552238Y-42672190D01*
X99552238Y-42624571D02*
X99885571Y-42624571D01*
X100028428Y-43148380D02*
X99552238Y-43148380D01*
X99552238Y-42148380D01*
X100028428Y-42148380D01*
X100790333Y-42624571D02*
X100457000Y-42624571D01*
X100457000Y-43148380D02*
X100457000Y-42148380D01*
X100933190Y-42148380D01*
X101457000Y-42148380D02*
X101457000Y-42386476D01*
X101218904Y-42291238D02*
X101457000Y-42386476D01*
X101695095Y-42291238D01*
X101314142Y-42576952D02*
X101457000Y-42386476D01*
X101599857Y-42576952D01*
X102218904Y-42148380D02*
X102218904Y-42386476D01*
X101980809Y-42291238D02*
X102218904Y-42386476D01*
X102457000Y-42291238D01*
X102076047Y-42576952D02*
X102218904Y-42386476D01*
X102361761Y-42576952D01*
%TD*%
M02*
