%TF.GenerationSoftware,KiCad,Pcbnew,(5.1.6)-1*%
%TF.CreationDate,2022-05-18T10:49:22-04:00*%
%TF.ProjectId,sensor_v1,73656e73-6f72-45f7-9631-2e6b69636164,rev?*%
%TF.SameCoordinates,Original*%
%TF.FileFunction,Copper,L1,Top*%
%TF.FilePolarity,Positive*%
%FSLAX46Y46*%
G04 Gerber Fmt 4.6, Leading zero omitted, Abs format (unit mm)*
G04 Created by KiCad (PCBNEW (5.1.6)-1) date 2022-05-18 10:49:22*
%MOMM*%
%LPD*%
G01*
G04 APERTURE LIST*
%TA.AperFunction,SMDPad,CuDef*%
%ADD10R,2.100000X0.750000*%
%TD*%
%TA.AperFunction,Conductor*%
%ADD11C,0.250000*%
%TD*%
G04 APERTURE END LIST*
D10*
%TO.P,REF\u002A\u002A,20*%
%TO.N,N/C*%
X97006000Y-89789000D03*
%TO.P,REF\u002A\u002A,19*%
X100606000Y-89789000D03*
%TO.P,REF\u002A\u002A,18*%
X97006000Y-88519000D03*
%TO.P,REF\u002A\u002A,17*%
X100606000Y-88519000D03*
%TO.P,REF\u002A\u002A,16*%
X97006000Y-87249000D03*
%TO.P,REF\u002A\u002A,15*%
X100606000Y-87249000D03*
%TO.P,REF\u002A\u002A,14*%
X97006000Y-85979000D03*
%TO.P,REF\u002A\u002A,13*%
X100606000Y-85979000D03*
%TO.P,REF\u002A\u002A,12*%
X97006000Y-84709000D03*
%TO.P,REF\u002A\u002A,11*%
X100606000Y-84709000D03*
%TO.P,REF\u002A\u002A,10*%
X97006000Y-83439000D03*
%TO.P,REF\u002A\u002A,9*%
X100606000Y-83439000D03*
%TO.P,REF\u002A\u002A,8*%
X97006000Y-82169000D03*
%TO.P,REF\u002A\u002A,7*%
X100606000Y-82169000D03*
%TO.P,REF\u002A\u002A,6*%
X97006000Y-80899000D03*
%TO.P,REF\u002A\u002A,5*%
X100606000Y-80899000D03*
%TO.P,REF\u002A\u002A,4*%
X97006000Y-79629000D03*
%TO.P,REF\u002A\u002A,3*%
X100606000Y-79629000D03*
%TO.P,REF\u002A\u002A,2*%
X97006000Y-78359000D03*
%TO.P,REF\u002A\u002A,1*%
X100606000Y-78359000D03*
%TD*%
D11*
%TO.N,*%
X111887000Y-93345000D02*
X111887000Y-77470000D01*
X114427000Y-93345000D02*
X114427000Y-77343000D01*
X111887000Y-77470000D02*
X111506000Y-77470000D01*
X111506000Y-77470000D02*
X111506000Y-87376000D01*
X109093000Y-89789000D02*
X100606000Y-89789000D01*
X111506000Y-87376000D02*
X109093000Y-89789000D01*
X114427000Y-77343000D02*
X113919000Y-76835000D01*
X113919000Y-76835000D02*
X110871000Y-76835000D01*
X110871000Y-76835000D02*
X110871000Y-86995000D01*
X109347000Y-88519000D02*
X100606000Y-88519000D01*
X110871000Y-86995000D02*
X109347000Y-88519000D01*
X109474000Y-87249000D02*
X100606000Y-87249000D01*
X110236000Y-86487000D02*
X109474000Y-87249000D01*
X116967000Y-77470000D02*
X115697000Y-76200000D01*
X116967000Y-93345000D02*
X116967000Y-77470000D01*
X110236000Y-76454000D02*
X110236000Y-86487000D01*
X115697000Y-76200000D02*
X110490000Y-76200000D01*
X110490000Y-76200000D02*
X110236000Y-76454000D01*
X109601000Y-85471000D02*
X109093000Y-85979000D01*
X109093000Y-85979000D02*
X100606000Y-85979000D01*
X119507000Y-77470000D02*
X117602000Y-75565000D01*
X119507000Y-93345000D02*
X119507000Y-77470000D01*
X117602000Y-75565000D02*
X110236000Y-75565000D01*
X109601000Y-76200000D02*
X109601000Y-85471000D01*
X110236000Y-75565000D02*
X109601000Y-76200000D01*
X108458000Y-84709000D02*
X100606000Y-84709000D01*
X108966000Y-84201000D02*
X108458000Y-84709000D01*
X122047000Y-77470000D02*
X119507000Y-74930000D01*
X108966000Y-75946000D02*
X108966000Y-84201000D01*
X122047000Y-93345000D02*
X122047000Y-77470000D01*
X119507000Y-74930000D02*
X109982000Y-74930000D01*
X109982000Y-74930000D02*
X108966000Y-75946000D01*
X107823000Y-83439000D02*
X100606000Y-83439000D01*
X108331000Y-82931000D02*
X107823000Y-83439000D01*
X124587000Y-77470000D02*
X121412000Y-74295000D01*
X124587000Y-93345000D02*
X124587000Y-77470000D01*
X121412000Y-74295000D02*
X109728000Y-74295000D01*
X109728000Y-74295000D02*
X108331000Y-75692000D01*
X108331000Y-75692000D02*
X108331000Y-82931000D01*
X107061000Y-82169000D02*
X100606000Y-82169000D01*
X107696000Y-81534000D02*
X107061000Y-82169000D01*
X127127000Y-93345000D02*
X127127000Y-77470000D01*
X123317000Y-73660000D02*
X109474000Y-73660000D01*
X109474000Y-73660000D02*
X107696000Y-75438000D01*
X127127000Y-77470000D02*
X123317000Y-73660000D01*
X107696000Y-75438000D02*
X107696000Y-81534000D01*
X106426000Y-80899000D02*
X100606000Y-80899000D01*
X107061000Y-80264000D02*
X106426000Y-80899000D01*
X107061000Y-75184000D02*
X107061000Y-80264000D01*
X129667000Y-77470000D02*
X125222000Y-73025000D01*
X129667000Y-93345000D02*
X129667000Y-77470000D01*
X125222000Y-73025000D02*
X109220000Y-73025000D01*
X109220000Y-73025000D02*
X107061000Y-75184000D01*
X105537000Y-79629000D02*
X100606000Y-79629000D01*
X106426000Y-78740000D02*
X105537000Y-79629000D01*
X132207000Y-77470000D02*
X127127000Y-72390000D01*
X132207000Y-93345000D02*
X132207000Y-77470000D01*
X127127000Y-72390000D02*
X108966000Y-72390000D01*
X108966000Y-72390000D02*
X106426000Y-74930000D01*
X106426000Y-74930000D02*
X106426000Y-78740000D01*
X105156000Y-78359000D02*
X100606000Y-78359000D01*
X105791000Y-77724000D02*
X105156000Y-78359000D01*
X134747000Y-77470000D02*
X129032000Y-71755000D01*
X134747000Y-93345000D02*
X134747000Y-77470000D01*
X129032000Y-71755000D02*
X108585000Y-71755000D01*
X108585000Y-71755000D02*
X105791000Y-74549000D01*
X105791000Y-74549000D02*
X105791000Y-77724000D01*
X98530000Y-76835000D02*
X97006000Y-78359000D01*
X104267000Y-76835000D02*
X98530000Y-76835000D01*
X104902000Y-76200000D02*
X104267000Y-76835000D01*
X137287000Y-77470000D02*
X130810000Y-70993000D01*
X137287000Y-93345000D02*
X137287000Y-77470000D01*
X130810000Y-70993000D02*
X108331000Y-70993000D01*
X108331000Y-70993000D02*
X104902000Y-74422000D01*
X104902000Y-74422000D02*
X104902000Y-76200000D01*
X95504000Y-79629000D02*
X97006000Y-79629000D01*
X95123000Y-77597000D02*
X95123000Y-79248000D01*
X96520000Y-76200000D02*
X95123000Y-77597000D01*
X104013000Y-76200000D02*
X96520000Y-76200000D01*
X139827000Y-77470000D02*
X132715000Y-70358000D01*
X104267000Y-75946000D02*
X104013000Y-76200000D01*
X139827000Y-93345000D02*
X139827000Y-77470000D01*
X104267000Y-74168000D02*
X104267000Y-75946000D01*
X132715000Y-70358000D02*
X108077000Y-70358000D01*
X95123000Y-79248000D02*
X95504000Y-79629000D01*
X108077000Y-70358000D02*
X104267000Y-74168000D01*
X139827000Y-93345000D02*
X111887000Y-93345000D01*
X100562000Y-93345000D02*
X97006000Y-89789000D01*
X111887000Y-93345000D02*
X100562000Y-93345000D01*
%TD*%
M02*
