%TF.GenerationSoftware,KiCad,Pcbnew,(6.0.7)*%
%TF.CreationDate,2022-11-27T12:28:35-05:00*%
%TF.ProjectId,double_layer_prototype,646f7562-6c65-45f6-9c61-7965725f7072,rev?*%
%TF.SameCoordinates,Original*%
%TF.FileFunction,Legend,Top*%
%TF.FilePolarity,Positive*%
%FSLAX46Y46*%
G04 Gerber Fmt 4.6, Leading zero omitted, Abs format (unit mm)*
G04 Created by KiCad (PCBNEW (6.0.7)) date 2022-11-27 12:28:35*
%MOMM*%
%LPD*%
G01*
G04 APERTURE LIST*
%ADD10C,0.150000*%
%ADD11C,0.120000*%
G04 APERTURE END LIST*
D10*
%TO.C,U1*%
X83889180Y-131571904D02*
X84698704Y-131571904D01*
X84793942Y-131524285D01*
X84841561Y-131476666D01*
X84889180Y-131381428D01*
X84889180Y-131190952D01*
X84841561Y-131095714D01*
X84793942Y-131048095D01*
X84698704Y-131000476D01*
X83889180Y-131000476D01*
X84889180Y-130000476D02*
X84889180Y-130571904D01*
X84889180Y-130286190D02*
X83889180Y-130286190D01*
X84032038Y-130381428D01*
X84127276Y-130476666D01*
X84174895Y-130571904D01*
%TO.C,R2*%
X75365780Y-122543866D02*
X74889590Y-122877200D01*
X75365780Y-123115295D02*
X74365780Y-123115295D01*
X74365780Y-122734342D01*
X74413400Y-122639104D01*
X74461019Y-122591485D01*
X74556257Y-122543866D01*
X74699114Y-122543866D01*
X74794352Y-122591485D01*
X74841971Y-122639104D01*
X74889590Y-122734342D01*
X74889590Y-123115295D01*
X74461019Y-122162914D02*
X74413400Y-122115295D01*
X74365780Y-122020057D01*
X74365780Y-121781961D01*
X74413400Y-121686723D01*
X74461019Y-121639104D01*
X74556257Y-121591485D01*
X74651495Y-121591485D01*
X74794352Y-121639104D01*
X75365780Y-122210533D01*
X75365780Y-121591485D01*
%TO.C,J1*%
X51631980Y-86667933D02*
X52346266Y-86667933D01*
X52489123Y-86715552D01*
X52584361Y-86810790D01*
X52631980Y-86953647D01*
X52631980Y-87048885D01*
X52631980Y-85667933D02*
X52631980Y-86239361D01*
X52631980Y-85953647D02*
X51631980Y-85953647D01*
X51774838Y-86048885D01*
X51870076Y-86144123D01*
X51917695Y-86239361D01*
%TO.C,R1*%
X74280733Y-92967980D02*
X73947400Y-92491790D01*
X73709304Y-92967980D02*
X73709304Y-91967980D01*
X74090257Y-91967980D01*
X74185495Y-92015600D01*
X74233114Y-92063219D01*
X74280733Y-92158457D01*
X74280733Y-92301314D01*
X74233114Y-92396552D01*
X74185495Y-92444171D01*
X74090257Y-92491790D01*
X73709304Y-92491790D01*
X75233114Y-92967980D02*
X74661685Y-92967980D01*
X74947400Y-92967980D02*
X74947400Y-91967980D01*
X74852161Y-92110838D01*
X74756923Y-92206076D01*
X74661685Y-92253695D01*
%TO.C,U2*%
X81628580Y-102488904D02*
X82438104Y-102488904D01*
X82533342Y-102441285D01*
X82580961Y-102393666D01*
X82628580Y-102298428D01*
X82628580Y-102107952D01*
X82580961Y-102012714D01*
X82533342Y-101965095D01*
X82438104Y-101917476D01*
X81628580Y-101917476D01*
X81723819Y-101488904D02*
X81676200Y-101441285D01*
X81628580Y-101346047D01*
X81628580Y-101107952D01*
X81676200Y-101012714D01*
X81723819Y-100965095D01*
X81819057Y-100917476D01*
X81914295Y-100917476D01*
X82057152Y-100965095D01*
X82628580Y-101536523D01*
X82628580Y-100917476D01*
%TO.C,A1*%
X59397514Y-150966466D02*
X59873704Y-150966466D01*
X59302276Y-151252180D02*
X59635609Y-150252180D01*
X59968942Y-151252180D01*
X60826085Y-151252180D02*
X60254657Y-151252180D01*
X60540371Y-151252180D02*
X60540371Y-150252180D01*
X60445133Y-150395038D01*
X60349895Y-150490276D01*
X60254657Y-150537895D01*
D11*
%TO.C,U1*%
X83596800Y-130810000D02*
X83596800Y-127360000D01*
X83596800Y-130810000D02*
X83596800Y-132760000D01*
X73476800Y-130810000D02*
X73476800Y-128860000D01*
X73476800Y-130810000D02*
X73476800Y-132760000D01*
%TO.C,R2*%
X77643400Y-123104264D02*
X77643400Y-121650136D01*
X75823400Y-123104264D02*
X75823400Y-121650136D01*
%TO.C,R1*%
X73720336Y-95245600D02*
X75174464Y-95245600D01*
X73720336Y-93425600D02*
X75174464Y-93425600D01*
%TO.C,U2*%
X81336200Y-101727000D02*
X81336200Y-98277000D01*
X71216200Y-101727000D02*
X71216200Y-99777000D01*
X81336200Y-101727000D02*
X81336200Y-103677000D01*
X71216200Y-101727000D02*
X71216200Y-103677000D01*
%TO.C,A1*%
X66461800Y-144449800D02*
X66461800Y-146989800D01*
X69131800Y-144449800D02*
X69131800Y-106219800D01*
X53761800Y-146989800D02*
X51091800Y-146989800D01*
X53761800Y-108889800D02*
X51091800Y-108889800D01*
X66461800Y-146989800D02*
X69131800Y-146989800D01*
X66461800Y-108889800D02*
X69131800Y-108889800D01*
X51091800Y-106219800D02*
X51091800Y-149659800D01*
X66461800Y-144449800D02*
X66461800Y-108889800D01*
X66461800Y-144449800D02*
X69131800Y-144449800D01*
X69131800Y-106219800D02*
X51091800Y-106219800D01*
X69131800Y-149659800D02*
X69131800Y-146989800D01*
X53761800Y-146989800D02*
X53761800Y-108889800D01*
X51091800Y-149659800D02*
X69131800Y-149659800D01*
%TD*%
M02*
