%TF.GenerationSoftware,KiCad,Pcbnew,(6.0.7)*%
%TF.CreationDate,2022-11-27T12:28:35-05:00*%
%TF.ProjectId,double_layer_prototype,646f7562-6c65-45f6-9c61-7965725f7072,rev?*%
%TF.SameCoordinates,Original*%
%TF.FileFunction,Paste,Top*%
%TF.FilePolarity,Positive*%
%FSLAX46Y46*%
G04 Gerber Fmt 4.6, Leading zero omitted, Abs format (unit mm)*
G04 Created by KiCad (PCBNEW (6.0.7)) date 2022-11-27 12:28:35*
%MOMM*%
%LPD*%
G01*
G04 APERTURE LIST*
%ADD10R,2.500000X1.750000*%
G04 APERTURE END LIST*
%TO.C,U1*%
G36*
G01*
X82831800Y-127360000D02*
X83131800Y-127360000D01*
G75*
G02*
X83281800Y-127510000I0J-150000D01*
G01*
X83281800Y-129160000D01*
G75*
G02*
X83131800Y-129310000I-150000J0D01*
G01*
X82831800Y-129310000D01*
G75*
G02*
X82681800Y-129160000I0J150000D01*
G01*
X82681800Y-127510000D01*
G75*
G02*
X82831800Y-127360000I150000J0D01*
G01*
G37*
G36*
G01*
X81561800Y-127360000D02*
X81861800Y-127360000D01*
G75*
G02*
X82011800Y-127510000I0J-150000D01*
G01*
X82011800Y-129160000D01*
G75*
G02*
X81861800Y-129310000I-150000J0D01*
G01*
X81561800Y-129310000D01*
G75*
G02*
X81411800Y-129160000I0J150000D01*
G01*
X81411800Y-127510000D01*
G75*
G02*
X81561800Y-127360000I150000J0D01*
G01*
G37*
G36*
G01*
X80291800Y-127360000D02*
X80591800Y-127360000D01*
G75*
G02*
X80741800Y-127510000I0J-150000D01*
G01*
X80741800Y-129160000D01*
G75*
G02*
X80591800Y-129310000I-150000J0D01*
G01*
X80291800Y-129310000D01*
G75*
G02*
X80141800Y-129160000I0J150000D01*
G01*
X80141800Y-127510000D01*
G75*
G02*
X80291800Y-127360000I150000J0D01*
G01*
G37*
G36*
G01*
X79021800Y-127360000D02*
X79321800Y-127360000D01*
G75*
G02*
X79471800Y-127510000I0J-150000D01*
G01*
X79471800Y-129160000D01*
G75*
G02*
X79321800Y-129310000I-150000J0D01*
G01*
X79021800Y-129310000D01*
G75*
G02*
X78871800Y-129160000I0J150000D01*
G01*
X78871800Y-127510000D01*
G75*
G02*
X79021800Y-127360000I150000J0D01*
G01*
G37*
G36*
G01*
X77751800Y-127360000D02*
X78051800Y-127360000D01*
G75*
G02*
X78201800Y-127510000I0J-150000D01*
G01*
X78201800Y-129160000D01*
G75*
G02*
X78051800Y-129310000I-150000J0D01*
G01*
X77751800Y-129310000D01*
G75*
G02*
X77601800Y-129160000I0J150000D01*
G01*
X77601800Y-127510000D01*
G75*
G02*
X77751800Y-127360000I150000J0D01*
G01*
G37*
G36*
G01*
X76481800Y-127360000D02*
X76781800Y-127360000D01*
G75*
G02*
X76931800Y-127510000I0J-150000D01*
G01*
X76931800Y-129160000D01*
G75*
G02*
X76781800Y-129310000I-150000J0D01*
G01*
X76481800Y-129310000D01*
G75*
G02*
X76331800Y-129160000I0J150000D01*
G01*
X76331800Y-127510000D01*
G75*
G02*
X76481800Y-127360000I150000J0D01*
G01*
G37*
G36*
G01*
X75211800Y-127360000D02*
X75511800Y-127360000D01*
G75*
G02*
X75661800Y-127510000I0J-150000D01*
G01*
X75661800Y-129160000D01*
G75*
G02*
X75511800Y-129310000I-150000J0D01*
G01*
X75211800Y-129310000D01*
G75*
G02*
X75061800Y-129160000I0J150000D01*
G01*
X75061800Y-127510000D01*
G75*
G02*
X75211800Y-127360000I150000J0D01*
G01*
G37*
G36*
G01*
X73941800Y-127360000D02*
X74241800Y-127360000D01*
G75*
G02*
X74391800Y-127510000I0J-150000D01*
G01*
X74391800Y-129160000D01*
G75*
G02*
X74241800Y-129310000I-150000J0D01*
G01*
X73941800Y-129310000D01*
G75*
G02*
X73791800Y-129160000I0J150000D01*
G01*
X73791800Y-127510000D01*
G75*
G02*
X73941800Y-127360000I150000J0D01*
G01*
G37*
G36*
G01*
X73941800Y-132310000D02*
X74241800Y-132310000D01*
G75*
G02*
X74391800Y-132460000I0J-150000D01*
G01*
X74391800Y-134110000D01*
G75*
G02*
X74241800Y-134260000I-150000J0D01*
G01*
X73941800Y-134260000D01*
G75*
G02*
X73791800Y-134110000I0J150000D01*
G01*
X73791800Y-132460000D01*
G75*
G02*
X73941800Y-132310000I150000J0D01*
G01*
G37*
G36*
G01*
X75211800Y-132310000D02*
X75511800Y-132310000D01*
G75*
G02*
X75661800Y-132460000I0J-150000D01*
G01*
X75661800Y-134110000D01*
G75*
G02*
X75511800Y-134260000I-150000J0D01*
G01*
X75211800Y-134260000D01*
G75*
G02*
X75061800Y-134110000I0J150000D01*
G01*
X75061800Y-132460000D01*
G75*
G02*
X75211800Y-132310000I150000J0D01*
G01*
G37*
G36*
G01*
X76481800Y-132310000D02*
X76781800Y-132310000D01*
G75*
G02*
X76931800Y-132460000I0J-150000D01*
G01*
X76931800Y-134110000D01*
G75*
G02*
X76781800Y-134260000I-150000J0D01*
G01*
X76481800Y-134260000D01*
G75*
G02*
X76331800Y-134110000I0J150000D01*
G01*
X76331800Y-132460000D01*
G75*
G02*
X76481800Y-132310000I150000J0D01*
G01*
G37*
G36*
G01*
X77751800Y-132310000D02*
X78051800Y-132310000D01*
G75*
G02*
X78201800Y-132460000I0J-150000D01*
G01*
X78201800Y-134110000D01*
G75*
G02*
X78051800Y-134260000I-150000J0D01*
G01*
X77751800Y-134260000D01*
G75*
G02*
X77601800Y-134110000I0J150000D01*
G01*
X77601800Y-132460000D01*
G75*
G02*
X77751800Y-132310000I150000J0D01*
G01*
G37*
G36*
G01*
X79021800Y-132310000D02*
X79321800Y-132310000D01*
G75*
G02*
X79471800Y-132460000I0J-150000D01*
G01*
X79471800Y-134110000D01*
G75*
G02*
X79321800Y-134260000I-150000J0D01*
G01*
X79021800Y-134260000D01*
G75*
G02*
X78871800Y-134110000I0J150000D01*
G01*
X78871800Y-132460000D01*
G75*
G02*
X79021800Y-132310000I150000J0D01*
G01*
G37*
G36*
G01*
X80291800Y-132310000D02*
X80591800Y-132310000D01*
G75*
G02*
X80741800Y-132460000I0J-150000D01*
G01*
X80741800Y-134110000D01*
G75*
G02*
X80591800Y-134260000I-150000J0D01*
G01*
X80291800Y-134260000D01*
G75*
G02*
X80141800Y-134110000I0J150000D01*
G01*
X80141800Y-132460000D01*
G75*
G02*
X80291800Y-132310000I150000J0D01*
G01*
G37*
G36*
G01*
X81561800Y-132310000D02*
X81861800Y-132310000D01*
G75*
G02*
X82011800Y-132460000I0J-150000D01*
G01*
X82011800Y-134110000D01*
G75*
G02*
X81861800Y-134260000I-150000J0D01*
G01*
X81561800Y-134260000D01*
G75*
G02*
X81411800Y-134110000I0J150000D01*
G01*
X81411800Y-132460000D01*
G75*
G02*
X81561800Y-132310000I150000J0D01*
G01*
G37*
G36*
G01*
X82831800Y-132310000D02*
X83131800Y-132310000D01*
G75*
G02*
X83281800Y-132460000I0J-150000D01*
G01*
X83281800Y-134110000D01*
G75*
G02*
X83131800Y-134260000I-150000J0D01*
G01*
X82831800Y-134260000D01*
G75*
G02*
X82681800Y-134110000I0J150000D01*
G01*
X82681800Y-132460000D01*
G75*
G02*
X82831800Y-132310000I150000J0D01*
G01*
G37*
%TD*%
%TO.C,R2*%
G36*
G01*
X77358400Y-124402200D02*
X76108400Y-124402200D01*
G75*
G02*
X75858400Y-124152200I0J250000D01*
G01*
X75858400Y-123527200D01*
G75*
G02*
X76108400Y-123277200I250000J0D01*
G01*
X77358400Y-123277200D01*
G75*
G02*
X77608400Y-123527200I0J-250000D01*
G01*
X77608400Y-124152200D01*
G75*
G02*
X77358400Y-124402200I-250000J0D01*
G01*
G37*
G36*
G01*
X77358400Y-121477200D02*
X76108400Y-121477200D01*
G75*
G02*
X75858400Y-121227200I0J250000D01*
G01*
X75858400Y-120602200D01*
G75*
G02*
X76108400Y-120352200I250000J0D01*
G01*
X77358400Y-120352200D01*
G75*
G02*
X77608400Y-120602200I0J-250000D01*
G01*
X77608400Y-121227200D01*
G75*
G02*
X77358400Y-121477200I-250000J0D01*
G01*
G37*
%TD*%
%TO.C,J1*%
G36*
G01*
X60009600Y-97724600D02*
X55509600Y-97724600D01*
G75*
G02*
X54259600Y-96474600I0J1250000D01*
G01*
X54259600Y-93974600D01*
G75*
G02*
X55509600Y-92724600I1250000J0D01*
G01*
X60009600Y-92724600D01*
G75*
G02*
X61259600Y-93974600I0J-1250000D01*
G01*
X61259600Y-96474600D01*
G75*
G02*
X60009600Y-97724600I-1250000J0D01*
G01*
G37*
G36*
G01*
X60009600Y-79944600D02*
X55509600Y-79944600D01*
G75*
G02*
X54259600Y-78694600I0J1250000D01*
G01*
X54259600Y-76194600D01*
G75*
G02*
X55509600Y-74944600I1250000J0D01*
G01*
X60009600Y-74944600D01*
G75*
G02*
X61259600Y-76194600I0J-1250000D01*
G01*
X61259600Y-78694600D01*
G75*
G02*
X60009600Y-79944600I-1250000J0D01*
G01*
G37*
%TD*%
%TO.C,R1*%
G36*
G01*
X72422400Y-94960600D02*
X72422400Y-93710600D01*
G75*
G02*
X72672400Y-93460600I250000J0D01*
G01*
X73297400Y-93460600D01*
G75*
G02*
X73547400Y-93710600I0J-250000D01*
G01*
X73547400Y-94960600D01*
G75*
G02*
X73297400Y-95210600I-250000J0D01*
G01*
X72672400Y-95210600D01*
G75*
G02*
X72422400Y-94960600I0J250000D01*
G01*
G37*
G36*
G01*
X75347400Y-94960600D02*
X75347400Y-93710600D01*
G75*
G02*
X75597400Y-93460600I250000J0D01*
G01*
X76222400Y-93460600D01*
G75*
G02*
X76472400Y-93710600I0J-250000D01*
G01*
X76472400Y-94960600D01*
G75*
G02*
X76222400Y-95210600I-250000J0D01*
G01*
X75597400Y-95210600D01*
G75*
G02*
X75347400Y-94960600I0J250000D01*
G01*
G37*
%TD*%
%TO.C,U2*%
G36*
G01*
X80571200Y-98277000D02*
X80871200Y-98277000D01*
G75*
G02*
X81021200Y-98427000I0J-150000D01*
G01*
X81021200Y-100077000D01*
G75*
G02*
X80871200Y-100227000I-150000J0D01*
G01*
X80571200Y-100227000D01*
G75*
G02*
X80421200Y-100077000I0J150000D01*
G01*
X80421200Y-98427000D01*
G75*
G02*
X80571200Y-98277000I150000J0D01*
G01*
G37*
G36*
G01*
X79301200Y-98277000D02*
X79601200Y-98277000D01*
G75*
G02*
X79751200Y-98427000I0J-150000D01*
G01*
X79751200Y-100077000D01*
G75*
G02*
X79601200Y-100227000I-150000J0D01*
G01*
X79301200Y-100227000D01*
G75*
G02*
X79151200Y-100077000I0J150000D01*
G01*
X79151200Y-98427000D01*
G75*
G02*
X79301200Y-98277000I150000J0D01*
G01*
G37*
G36*
G01*
X78031200Y-98277000D02*
X78331200Y-98277000D01*
G75*
G02*
X78481200Y-98427000I0J-150000D01*
G01*
X78481200Y-100077000D01*
G75*
G02*
X78331200Y-100227000I-150000J0D01*
G01*
X78031200Y-100227000D01*
G75*
G02*
X77881200Y-100077000I0J150000D01*
G01*
X77881200Y-98427000D01*
G75*
G02*
X78031200Y-98277000I150000J0D01*
G01*
G37*
G36*
G01*
X76761200Y-98277000D02*
X77061200Y-98277000D01*
G75*
G02*
X77211200Y-98427000I0J-150000D01*
G01*
X77211200Y-100077000D01*
G75*
G02*
X77061200Y-100227000I-150000J0D01*
G01*
X76761200Y-100227000D01*
G75*
G02*
X76611200Y-100077000I0J150000D01*
G01*
X76611200Y-98427000D01*
G75*
G02*
X76761200Y-98277000I150000J0D01*
G01*
G37*
G36*
G01*
X75491200Y-98277000D02*
X75791200Y-98277000D01*
G75*
G02*
X75941200Y-98427000I0J-150000D01*
G01*
X75941200Y-100077000D01*
G75*
G02*
X75791200Y-100227000I-150000J0D01*
G01*
X75491200Y-100227000D01*
G75*
G02*
X75341200Y-100077000I0J150000D01*
G01*
X75341200Y-98427000D01*
G75*
G02*
X75491200Y-98277000I150000J0D01*
G01*
G37*
G36*
G01*
X74221200Y-98277000D02*
X74521200Y-98277000D01*
G75*
G02*
X74671200Y-98427000I0J-150000D01*
G01*
X74671200Y-100077000D01*
G75*
G02*
X74521200Y-100227000I-150000J0D01*
G01*
X74221200Y-100227000D01*
G75*
G02*
X74071200Y-100077000I0J150000D01*
G01*
X74071200Y-98427000D01*
G75*
G02*
X74221200Y-98277000I150000J0D01*
G01*
G37*
G36*
G01*
X72951200Y-98277000D02*
X73251200Y-98277000D01*
G75*
G02*
X73401200Y-98427000I0J-150000D01*
G01*
X73401200Y-100077000D01*
G75*
G02*
X73251200Y-100227000I-150000J0D01*
G01*
X72951200Y-100227000D01*
G75*
G02*
X72801200Y-100077000I0J150000D01*
G01*
X72801200Y-98427000D01*
G75*
G02*
X72951200Y-98277000I150000J0D01*
G01*
G37*
G36*
G01*
X71681200Y-98277000D02*
X71981200Y-98277000D01*
G75*
G02*
X72131200Y-98427000I0J-150000D01*
G01*
X72131200Y-100077000D01*
G75*
G02*
X71981200Y-100227000I-150000J0D01*
G01*
X71681200Y-100227000D01*
G75*
G02*
X71531200Y-100077000I0J150000D01*
G01*
X71531200Y-98427000D01*
G75*
G02*
X71681200Y-98277000I150000J0D01*
G01*
G37*
G36*
G01*
X71681200Y-103227000D02*
X71981200Y-103227000D01*
G75*
G02*
X72131200Y-103377000I0J-150000D01*
G01*
X72131200Y-105027000D01*
G75*
G02*
X71981200Y-105177000I-150000J0D01*
G01*
X71681200Y-105177000D01*
G75*
G02*
X71531200Y-105027000I0J150000D01*
G01*
X71531200Y-103377000D01*
G75*
G02*
X71681200Y-103227000I150000J0D01*
G01*
G37*
G36*
G01*
X72951200Y-103227000D02*
X73251200Y-103227000D01*
G75*
G02*
X73401200Y-103377000I0J-150000D01*
G01*
X73401200Y-105027000D01*
G75*
G02*
X73251200Y-105177000I-150000J0D01*
G01*
X72951200Y-105177000D01*
G75*
G02*
X72801200Y-105027000I0J150000D01*
G01*
X72801200Y-103377000D01*
G75*
G02*
X72951200Y-103227000I150000J0D01*
G01*
G37*
G36*
G01*
X74221200Y-103227000D02*
X74521200Y-103227000D01*
G75*
G02*
X74671200Y-103377000I0J-150000D01*
G01*
X74671200Y-105027000D01*
G75*
G02*
X74521200Y-105177000I-150000J0D01*
G01*
X74221200Y-105177000D01*
G75*
G02*
X74071200Y-105027000I0J150000D01*
G01*
X74071200Y-103377000D01*
G75*
G02*
X74221200Y-103227000I150000J0D01*
G01*
G37*
G36*
G01*
X75491200Y-103227000D02*
X75791200Y-103227000D01*
G75*
G02*
X75941200Y-103377000I0J-150000D01*
G01*
X75941200Y-105027000D01*
G75*
G02*
X75791200Y-105177000I-150000J0D01*
G01*
X75491200Y-105177000D01*
G75*
G02*
X75341200Y-105027000I0J150000D01*
G01*
X75341200Y-103377000D01*
G75*
G02*
X75491200Y-103227000I150000J0D01*
G01*
G37*
G36*
G01*
X76761200Y-103227000D02*
X77061200Y-103227000D01*
G75*
G02*
X77211200Y-103377000I0J-150000D01*
G01*
X77211200Y-105027000D01*
G75*
G02*
X77061200Y-105177000I-150000J0D01*
G01*
X76761200Y-105177000D01*
G75*
G02*
X76611200Y-105027000I0J150000D01*
G01*
X76611200Y-103377000D01*
G75*
G02*
X76761200Y-103227000I150000J0D01*
G01*
G37*
G36*
G01*
X78031200Y-103227000D02*
X78331200Y-103227000D01*
G75*
G02*
X78481200Y-103377000I0J-150000D01*
G01*
X78481200Y-105027000D01*
G75*
G02*
X78331200Y-105177000I-150000J0D01*
G01*
X78031200Y-105177000D01*
G75*
G02*
X77881200Y-105027000I0J150000D01*
G01*
X77881200Y-103377000D01*
G75*
G02*
X78031200Y-103227000I150000J0D01*
G01*
G37*
G36*
G01*
X79301200Y-103227000D02*
X79601200Y-103227000D01*
G75*
G02*
X79751200Y-103377000I0J-150000D01*
G01*
X79751200Y-105027000D01*
G75*
G02*
X79601200Y-105177000I-150000J0D01*
G01*
X79301200Y-105177000D01*
G75*
G02*
X79151200Y-105027000I0J150000D01*
G01*
X79151200Y-103377000D01*
G75*
G02*
X79301200Y-103227000I150000J0D01*
G01*
G37*
G36*
G01*
X80571200Y-103227000D02*
X80871200Y-103227000D01*
G75*
G02*
X81021200Y-103377000I0J-150000D01*
G01*
X81021200Y-105027000D01*
G75*
G02*
X80871200Y-105177000I-150000J0D01*
G01*
X80571200Y-105177000D01*
G75*
G02*
X80421200Y-105027000I0J150000D01*
G01*
X80421200Y-103377000D01*
G75*
G02*
X80571200Y-103227000I150000J0D01*
G01*
G37*
%TD*%
D10*
%TO.C,A1*%
X67731800Y-145719800D03*
X67731800Y-143179800D03*
X67731800Y-140639800D03*
X67731800Y-138099800D03*
X67731800Y-135559800D03*
X67731800Y-133019800D03*
X67731800Y-130479800D03*
X67731800Y-127939800D03*
X67731800Y-125399800D03*
X67731800Y-122859800D03*
X67731800Y-120319800D03*
X67731800Y-117779800D03*
X67731800Y-115239800D03*
X67731800Y-112699800D03*
X67731800Y-110159800D03*
X52491800Y-110159800D03*
X52491800Y-112699800D03*
X52491800Y-115239800D03*
X52491800Y-117779800D03*
X52491800Y-120319800D03*
X52491800Y-122859800D03*
X52491800Y-125399800D03*
X52491800Y-127939800D03*
X52491800Y-130479800D03*
X52491800Y-133019800D03*
X52491800Y-135559800D03*
X52491800Y-138099800D03*
X52491800Y-140639800D03*
X52491800Y-143179800D03*
X52491800Y-145719800D03*
%TD*%
M02*
