%TF.GenerationSoftware,KiCad,Pcbnew,(5.1.6)-1*%
%TF.CreationDate,2022-05-19T12:24:48-04:00*%
%TF.ProjectId,sensor_v1,73656e73-6f72-45f7-9631-2e6b69636164,rev?*%
%TF.SameCoordinates,Original*%
%TF.FileFunction,Copper,L1,Top*%
%TF.FilePolarity,Positive*%
%FSLAX46Y46*%
G04 Gerber Fmt 4.6, Leading zero omitted, Abs format (unit mm)*
G04 Created by KiCad (PCBNEW (5.1.6)-1) date 2022-05-19 12:24:48*
%MOMM*%
%LPD*%
G01*
G04 APERTURE LIST*
%TA.AperFunction,SMDPad,CuDef*%
%ADD10R,2.100000X0.750000*%
%TD*%
%TA.AperFunction,Conductor*%
%ADD11C,0.250000*%
%TD*%
G04 APERTURE END LIST*
D10*
%TO.P,REF\u002A\u002A,1*%
%TO.N,N/C*%
X100606000Y-47625000D03*
%TO.P,REF\u002A\u002A,2*%
X97006000Y-47625000D03*
%TO.P,REF\u002A\u002A,3*%
X100606000Y-48895000D03*
%TO.P,REF\u002A\u002A,4*%
X97006000Y-48895000D03*
%TO.P,REF\u002A\u002A,5*%
X100606000Y-50165000D03*
%TO.P,REF\u002A\u002A,6*%
X97006000Y-50165000D03*
%TO.P,REF\u002A\u002A,7*%
X100606000Y-51435000D03*
%TO.P,REF\u002A\u002A,8*%
X97006000Y-51435000D03*
%TO.P,REF\u002A\u002A,9*%
X100606000Y-52705000D03*
%TO.P,REF\u002A\u002A,10*%
X97006000Y-52705000D03*
%TO.P,REF\u002A\u002A,11*%
X100606000Y-53975000D03*
%TO.P,REF\u002A\u002A,12*%
X97006000Y-53975000D03*
%TO.P,REF\u002A\u002A,13*%
X100606000Y-55245000D03*
%TO.P,REF\u002A\u002A,14*%
X97006000Y-55245000D03*
%TO.P,REF\u002A\u002A,15*%
X100606000Y-56515000D03*
%TO.P,REF\u002A\u002A,16*%
X97006000Y-56515000D03*
%TO.P,REF\u002A\u002A,17*%
X100606000Y-57785000D03*
%TO.P,REF\u002A\u002A,18*%
X97006000Y-57785000D03*
%TO.P,REF\u002A\u002A,19*%
X100606000Y-59055000D03*
%TO.P,REF\u002A\u002A,20*%
X97006000Y-59055000D03*
%TD*%
%TO.P,REF\u002A\u002A,20*%
%TO.N,N/C*%
X97006000Y-91059000D03*
%TO.P,REF\u002A\u002A,19*%
X100606000Y-91059000D03*
%TO.P,REF\u002A\u002A,18*%
X97006000Y-89789000D03*
%TO.P,REF\u002A\u002A,17*%
X100606000Y-89789000D03*
%TO.P,REF\u002A\u002A,16*%
X97006000Y-88519000D03*
%TO.P,REF\u002A\u002A,15*%
X100606000Y-88519000D03*
%TO.P,REF\u002A\u002A,14*%
X97006000Y-87249000D03*
%TO.P,REF\u002A\u002A,13*%
X100606000Y-87249000D03*
%TO.P,REF\u002A\u002A,12*%
X97006000Y-85979000D03*
%TO.P,REF\u002A\u002A,11*%
X100606000Y-85979000D03*
%TO.P,REF\u002A\u002A,10*%
X97006000Y-84709000D03*
%TO.P,REF\u002A\u002A,9*%
X100606000Y-84709000D03*
%TO.P,REF\u002A\u002A,8*%
X97006000Y-83439000D03*
%TO.P,REF\u002A\u002A,7*%
X100606000Y-83439000D03*
%TO.P,REF\u002A\u002A,6*%
X97006000Y-82169000D03*
%TO.P,REF\u002A\u002A,5*%
X100606000Y-82169000D03*
%TO.P,REF\u002A\u002A,4*%
X97006000Y-80899000D03*
%TO.P,REF\u002A\u002A,3*%
X100606000Y-80899000D03*
%TO.P,REF\u002A\u002A,2*%
X97006000Y-79629000D03*
%TO.P,REF\u002A\u002A,1*%
X100606000Y-79629000D03*
%TD*%
D11*
%TO.N,*%
X111887000Y-94615000D02*
X111887000Y-78740000D01*
X114427000Y-94615000D02*
X114427000Y-78613000D01*
X111887000Y-78740000D02*
X111506000Y-78740000D01*
X111506000Y-78740000D02*
X111506000Y-88646000D01*
X109093000Y-91059000D02*
X100606000Y-91059000D01*
X111506000Y-88646000D02*
X109093000Y-91059000D01*
X114427000Y-78613000D02*
X113919000Y-78105000D01*
X113919000Y-78105000D02*
X110871000Y-78105000D01*
X110871000Y-78105000D02*
X110871000Y-88265000D01*
X109347000Y-89789000D02*
X100606000Y-89789000D01*
X110871000Y-88265000D02*
X109347000Y-89789000D01*
X109474000Y-88519000D02*
X100606000Y-88519000D01*
X110236000Y-87757000D02*
X109474000Y-88519000D01*
X116967000Y-78740000D02*
X115697000Y-77470000D01*
X116967000Y-94615000D02*
X116967000Y-78740000D01*
X110236000Y-77724000D02*
X110236000Y-87757000D01*
X115697000Y-77470000D02*
X110490000Y-77470000D01*
X110490000Y-77470000D02*
X110236000Y-77724000D01*
X109601000Y-86741000D02*
X109093000Y-87249000D01*
X109093000Y-87249000D02*
X100606000Y-87249000D01*
X119507000Y-78740000D02*
X117602000Y-76835000D01*
X119507000Y-94615000D02*
X119507000Y-78740000D01*
X117602000Y-76835000D02*
X110236000Y-76835000D01*
X109601000Y-77470000D02*
X109601000Y-86741000D01*
X110236000Y-76835000D02*
X109601000Y-77470000D01*
X108458000Y-85979000D02*
X100606000Y-85979000D01*
X108966000Y-85471000D02*
X108458000Y-85979000D01*
X122047000Y-78740000D02*
X119507000Y-76200000D01*
X108966000Y-77216000D02*
X108966000Y-85471000D01*
X122047000Y-94615000D02*
X122047000Y-78740000D01*
X119507000Y-76200000D02*
X109982000Y-76200000D01*
X109982000Y-76200000D02*
X108966000Y-77216000D01*
X107823000Y-84709000D02*
X100606000Y-84709000D01*
X108331000Y-84201000D02*
X107823000Y-84709000D01*
X124587000Y-78740000D02*
X121412000Y-75565000D01*
X124587000Y-94615000D02*
X124587000Y-78740000D01*
X121412000Y-75565000D02*
X109728000Y-75565000D01*
X109728000Y-75565000D02*
X108331000Y-76962000D01*
X108331000Y-76962000D02*
X108331000Y-84201000D01*
X107061000Y-83439000D02*
X100606000Y-83439000D01*
X107696000Y-82804000D02*
X107061000Y-83439000D01*
X127127000Y-94615000D02*
X127127000Y-78740000D01*
X123317000Y-74930000D02*
X109474000Y-74930000D01*
X109474000Y-74930000D02*
X107696000Y-76708000D01*
X127127000Y-78740000D02*
X123317000Y-74930000D01*
X107696000Y-76708000D02*
X107696000Y-82804000D01*
X106426000Y-82169000D02*
X100606000Y-82169000D01*
X107061000Y-81534000D02*
X106426000Y-82169000D01*
X107061000Y-76454000D02*
X107061000Y-81534000D01*
X129667000Y-78740000D02*
X125222000Y-74295000D01*
X129667000Y-94615000D02*
X129667000Y-78740000D01*
X125222000Y-74295000D02*
X109220000Y-74295000D01*
X109220000Y-74295000D02*
X107061000Y-76454000D01*
X105537000Y-80899000D02*
X100606000Y-80899000D01*
X106426000Y-80010000D02*
X105537000Y-80899000D01*
X132207000Y-78740000D02*
X127127000Y-73660000D01*
X132207000Y-94615000D02*
X132207000Y-78740000D01*
X127127000Y-73660000D02*
X108966000Y-73660000D01*
X108966000Y-73660000D02*
X106426000Y-76200000D01*
X106426000Y-76200000D02*
X106426000Y-80010000D01*
X105156000Y-79629000D02*
X100606000Y-79629000D01*
X105791000Y-78994000D02*
X105156000Y-79629000D01*
X134747000Y-78740000D02*
X129032000Y-73025000D01*
X134747000Y-94615000D02*
X134747000Y-78740000D01*
X129032000Y-73025000D02*
X108585000Y-73025000D01*
X108585000Y-73025000D02*
X105791000Y-75819000D01*
X105791000Y-75819000D02*
X105791000Y-78994000D01*
X98530000Y-78105000D02*
X97006000Y-79629000D01*
X104267000Y-78105000D02*
X98530000Y-78105000D01*
X104902000Y-77470000D02*
X104267000Y-78105000D01*
X137287000Y-78740000D02*
X130810000Y-72263000D01*
X137287000Y-94615000D02*
X137287000Y-78740000D01*
X130810000Y-72263000D02*
X108331000Y-72263000D01*
X108331000Y-72263000D02*
X104902000Y-75692000D01*
X104902000Y-75692000D02*
X104902000Y-77470000D01*
X95504000Y-80899000D02*
X97006000Y-80899000D01*
X95123000Y-78867000D02*
X95123000Y-80518000D01*
X96520000Y-77470000D02*
X95123000Y-78867000D01*
X104013000Y-77470000D02*
X96520000Y-77470000D01*
X139827000Y-78740000D02*
X132715000Y-71628000D01*
X104267000Y-77216000D02*
X104013000Y-77470000D01*
X139827000Y-94615000D02*
X139827000Y-78740000D01*
X104267000Y-75438000D02*
X104267000Y-77216000D01*
X132715000Y-71628000D02*
X108077000Y-71628000D01*
X95123000Y-80518000D02*
X95504000Y-80899000D01*
X108077000Y-71628000D02*
X104267000Y-75438000D01*
X139827000Y-94615000D02*
X111887000Y-94615000D01*
X100562000Y-94615000D02*
X97006000Y-91059000D01*
X111887000Y-94615000D02*
X100562000Y-94615000D01*
X111887000Y-62611000D02*
X111887000Y-46736000D01*
X121412000Y-43561000D02*
X109728000Y-43561000D01*
X107061000Y-49530000D02*
X106426000Y-50165000D01*
X119507000Y-46736000D02*
X117602000Y-44831000D01*
X107696000Y-50800000D02*
X107061000Y-51435000D01*
X129667000Y-46736000D02*
X125222000Y-42291000D01*
X106426000Y-48006000D02*
X105537000Y-48895000D01*
X109601000Y-45466000D02*
X109601000Y-54737000D01*
X109982000Y-44196000D02*
X108966000Y-45212000D01*
X129667000Y-62611000D02*
X129667000Y-46736000D01*
X122047000Y-62611000D02*
X122047000Y-46736000D01*
X107061000Y-44450000D02*
X107061000Y-49530000D01*
X116967000Y-62611000D02*
X116967000Y-46736000D01*
X109601000Y-54737000D02*
X109093000Y-55245000D01*
X110490000Y-45466000D02*
X110236000Y-45720000D01*
X109728000Y-43561000D02*
X108331000Y-44958000D01*
X111506000Y-56642000D02*
X109093000Y-59055000D01*
X108331000Y-44958000D02*
X108331000Y-52197000D01*
X108331000Y-52197000D02*
X107823000Y-52705000D01*
X109474000Y-42926000D02*
X107696000Y-44704000D01*
X132207000Y-62611000D02*
X132207000Y-46736000D01*
X114427000Y-62611000D02*
X114427000Y-46609000D01*
X122047000Y-46736000D02*
X119507000Y-44196000D01*
X119507000Y-44196000D02*
X109982000Y-44196000D01*
X107823000Y-52705000D02*
X100606000Y-52705000D01*
X106426000Y-44196000D02*
X106426000Y-48006000D01*
X123317000Y-42926000D02*
X109474000Y-42926000D01*
X105156000Y-47625000D02*
X100606000Y-47625000D01*
X110871000Y-46101000D02*
X110871000Y-56261000D01*
X110871000Y-56261000D02*
X109347000Y-57785000D01*
X109474000Y-56515000D02*
X100606000Y-56515000D01*
X132207000Y-46736000D02*
X127127000Y-41656000D01*
X127127000Y-41656000D02*
X108966000Y-41656000D01*
X105791000Y-46990000D02*
X105156000Y-47625000D01*
X106426000Y-50165000D02*
X100606000Y-50165000D01*
X134747000Y-46736000D02*
X129032000Y-41021000D01*
X105537000Y-48895000D02*
X100606000Y-48895000D01*
X134747000Y-62611000D02*
X134747000Y-46736000D01*
X129032000Y-41021000D02*
X108585000Y-41021000D01*
X119507000Y-62611000D02*
X119507000Y-46736000D01*
X108966000Y-53467000D02*
X108458000Y-53975000D01*
X109220000Y-42291000D02*
X107061000Y-44450000D01*
X108458000Y-53975000D02*
X100606000Y-53975000D01*
X111887000Y-46736000D02*
X111506000Y-46736000D01*
X109093000Y-59055000D02*
X100606000Y-59055000D01*
X111506000Y-46736000D02*
X111506000Y-56642000D01*
X113919000Y-46101000D02*
X110871000Y-46101000D01*
X110236000Y-45720000D02*
X110236000Y-55753000D01*
X127127000Y-46736000D02*
X123317000Y-42926000D01*
X127127000Y-62611000D02*
X127127000Y-46736000D01*
X107696000Y-44704000D02*
X107696000Y-50800000D01*
X109093000Y-55245000D02*
X100606000Y-55245000D01*
X107061000Y-51435000D02*
X100606000Y-51435000D01*
X125222000Y-42291000D02*
X109220000Y-42291000D01*
X108966000Y-41656000D02*
X106426000Y-44196000D01*
X108966000Y-45212000D02*
X108966000Y-53467000D01*
X116967000Y-46736000D02*
X115697000Y-45466000D01*
X109347000Y-57785000D02*
X100606000Y-57785000D01*
X117602000Y-44831000D02*
X110236000Y-44831000D01*
X124587000Y-62611000D02*
X124587000Y-46736000D01*
X110236000Y-55753000D02*
X109474000Y-56515000D01*
X115697000Y-45466000D02*
X110490000Y-45466000D01*
X114427000Y-46609000D02*
X113919000Y-46101000D01*
X110236000Y-44831000D02*
X109601000Y-45466000D01*
X124587000Y-46736000D02*
X121412000Y-43561000D01*
X104902000Y-45466000D02*
X104267000Y-46101000D01*
X130810000Y-40259000D02*
X108331000Y-40259000D01*
X96520000Y-45466000D02*
X95123000Y-46863000D01*
X111887000Y-62611000D02*
X100562000Y-62611000D01*
X137287000Y-62611000D02*
X137287000Y-46736000D01*
X137287000Y-46736000D02*
X130810000Y-40259000D01*
X95504000Y-48895000D02*
X97006000Y-48895000D01*
X104267000Y-46101000D02*
X98530000Y-46101000D01*
X98530000Y-46101000D02*
X97006000Y-47625000D01*
X104013000Y-45466000D02*
X96520000Y-45466000D01*
X139827000Y-62611000D02*
X139827000Y-46736000D01*
X132715000Y-39624000D02*
X108077000Y-39624000D01*
X100562000Y-62611000D02*
X97006000Y-59055000D01*
X95123000Y-46863000D02*
X95123000Y-48514000D01*
X104267000Y-43434000D02*
X104267000Y-45212000D01*
X108585000Y-41021000D02*
X105791000Y-43815000D01*
X139827000Y-62611000D02*
X111887000Y-62611000D01*
X104267000Y-45212000D02*
X104013000Y-45466000D01*
X108331000Y-40259000D02*
X104902000Y-43688000D01*
X108077000Y-39624000D02*
X104267000Y-43434000D01*
X104902000Y-43688000D02*
X104902000Y-45466000D01*
X95123000Y-48514000D02*
X95504000Y-48895000D01*
X105791000Y-43815000D02*
X105791000Y-46990000D01*
X139827000Y-46736000D02*
X132715000Y-39624000D01*
%TD*%
M02*
