%TF.GenerationSoftware,KiCad,Pcbnew,(5.1.6)-1*%
%TF.CreationDate,2022-05-19T12:24:48-04:00*%
%TF.ProjectId,sensor_v1,73656e73-6f72-45f7-9631-2e6b69636164,rev?*%
%TF.SameCoordinates,Original*%
%TF.FileFunction,Soldermask,Top*%
%TF.FilePolarity,Negative*%
%FSLAX46Y46*%
G04 Gerber Fmt 4.6, Leading zero omitted, Abs format (unit mm)*
G04 Created by KiCad (PCBNEW (5.1.6)-1) date 2022-05-19 12:24:48*
%MOMM*%
%LPD*%
G01*
G04 APERTURE LIST*
%ADD10R,2.200000X0.850000*%
G04 APERTURE END LIST*
D10*
%TO.C,REF\u002A\u002A*%
X100606000Y-47625000D03*
X97006000Y-47625000D03*
X100606000Y-48895000D03*
X97006000Y-48895000D03*
X100606000Y-50165000D03*
X97006000Y-50165000D03*
X100606000Y-51435000D03*
X97006000Y-51435000D03*
X100606000Y-52705000D03*
X97006000Y-52705000D03*
X100606000Y-53975000D03*
X97006000Y-53975000D03*
X100606000Y-55245000D03*
X97006000Y-55245000D03*
X100606000Y-56515000D03*
X97006000Y-56515000D03*
X100606000Y-57785000D03*
X97006000Y-57785000D03*
X100606000Y-59055000D03*
X97006000Y-59055000D03*
%TD*%
%TO.C,REF\u002A\u002A*%
X97006000Y-91059000D03*
X100606000Y-91059000D03*
X97006000Y-89789000D03*
X100606000Y-89789000D03*
X97006000Y-88519000D03*
X100606000Y-88519000D03*
X97006000Y-87249000D03*
X100606000Y-87249000D03*
X97006000Y-85979000D03*
X100606000Y-85979000D03*
X97006000Y-84709000D03*
X100606000Y-84709000D03*
X97006000Y-83439000D03*
X100606000Y-83439000D03*
X97006000Y-82169000D03*
X100606000Y-82169000D03*
X97006000Y-80899000D03*
X100606000Y-80899000D03*
X97006000Y-79629000D03*
X100606000Y-79629000D03*
%TD*%
M02*
