%TF.GenerationSoftware,KiCad,Pcbnew,(5.1.6)-1*%
%TF.CreationDate,2022-05-19T12:24:48-04:00*%
%TF.ProjectId,sensor_v1,73656e73-6f72-45f7-9631-2e6b69636164,rev?*%
%TF.SameCoordinates,Original*%
%TF.FileFunction,Legend,Top*%
%TF.FilePolarity,Positive*%
%FSLAX46Y46*%
G04 Gerber Fmt 4.6, Leading zero omitted, Abs format (unit mm)*
G04 Created by KiCad (PCBNEW (5.1.6)-1) date 2022-05-19 12:24:48*
%MOMM*%
%LPD*%
G01*
G04 APERTURE LIST*
%ADD10C,0.120000*%
%ADD11C,0.150000*%
G04 APERTURE END LIST*
D10*
%TO.C,REF\u002A\u002A*%
X100136000Y-46990000D02*
X101596000Y-46990000D01*
X97476000Y-59690000D02*
X97476000Y-59750000D01*
X97476000Y-46930000D02*
X97476000Y-46990000D01*
X97476000Y-59750000D02*
X100136000Y-59750000D01*
X100136000Y-59690000D02*
X100136000Y-59750000D01*
X100136000Y-46930000D02*
X100136000Y-46990000D01*
X97476000Y-46930000D02*
X100136000Y-46930000D01*
X100136000Y-78994000D02*
X101596000Y-78994000D01*
X97476000Y-91694000D02*
X97476000Y-91754000D01*
X97476000Y-78934000D02*
X97476000Y-78994000D01*
X97476000Y-91754000D02*
X100136000Y-91754000D01*
X100136000Y-91694000D02*
X100136000Y-91754000D01*
X100136000Y-78934000D02*
X100136000Y-78994000D01*
X97476000Y-78934000D02*
X100136000Y-78934000D01*
D11*
X97472666Y-39592380D02*
X97139333Y-39116190D01*
X96901238Y-39592380D02*
X96901238Y-38592380D01*
X97282190Y-38592380D01*
X97377428Y-38640000D01*
X97425047Y-38687619D01*
X97472666Y-38782857D01*
X97472666Y-38925714D01*
X97425047Y-39020952D01*
X97377428Y-39068571D01*
X97282190Y-39116190D01*
X96901238Y-39116190D01*
X97901238Y-39068571D02*
X98234571Y-39068571D01*
X98377428Y-39592380D02*
X97901238Y-39592380D01*
X97901238Y-38592380D01*
X98377428Y-38592380D01*
X99139333Y-39068571D02*
X98806000Y-39068571D01*
X98806000Y-39592380D02*
X98806000Y-38592380D01*
X99282190Y-38592380D01*
X99806000Y-38592380D02*
X99806000Y-38830476D01*
X99567904Y-38735238D02*
X99806000Y-38830476D01*
X100044095Y-38735238D01*
X99663142Y-39020952D02*
X99806000Y-38830476D01*
X99948857Y-39020952D01*
X100567904Y-38592380D02*
X100567904Y-38830476D01*
X100329809Y-38735238D02*
X100567904Y-38830476D01*
X100806000Y-38735238D01*
X100425047Y-39020952D02*
X100567904Y-38830476D01*
X100710761Y-39020952D01*
X97472666Y-71596380D02*
X97139333Y-71120190D01*
X96901238Y-71596380D02*
X96901238Y-70596380D01*
X97282190Y-70596380D01*
X97377428Y-70644000D01*
X97425047Y-70691619D01*
X97472666Y-70786857D01*
X97472666Y-70929714D01*
X97425047Y-71024952D01*
X97377428Y-71072571D01*
X97282190Y-71120190D01*
X96901238Y-71120190D01*
X97901238Y-71072571D02*
X98234571Y-71072571D01*
X98377428Y-71596380D02*
X97901238Y-71596380D01*
X97901238Y-70596380D01*
X98377428Y-70596380D01*
X99139333Y-71072571D02*
X98806000Y-71072571D01*
X98806000Y-71596380D02*
X98806000Y-70596380D01*
X99282190Y-70596380D01*
X99806000Y-70596380D02*
X99806000Y-70834476D01*
X99567904Y-70739238D02*
X99806000Y-70834476D01*
X100044095Y-70739238D01*
X99663142Y-71024952D02*
X99806000Y-70834476D01*
X99948857Y-71024952D01*
X100567904Y-70596380D02*
X100567904Y-70834476D01*
X100329809Y-70739238D02*
X100567904Y-70834476D01*
X100806000Y-70739238D01*
X100425047Y-71024952D02*
X100567904Y-70834476D01*
X100710761Y-71024952D01*
%TD*%
M02*
