%TF.GenerationSoftware,KiCad,Pcbnew,(6.0.7)*%
%TF.CreationDate,2022-11-13T19:08:48-05:00*%
%TF.ProjectId,single_layer_prototype,73696e67-6c65-45f6-9c61-7965725f7072,rev?*%
%TF.SameCoordinates,Original*%
%TF.FileFunction,Copper,L1,Top*%
%TF.FilePolarity,Positive*%
%FSLAX46Y46*%
G04 Gerber Fmt 4.6, Leading zero omitted, Abs format (unit mm)*
G04 Created by KiCad (PCBNEW (6.0.7)) date 2022-11-13 19:08:48*
%MOMM*%
%LPD*%
G01*
G04 APERTURE LIST*
%TA.AperFunction,NonConductor*%
%ADD10C,0.667961*%
%TD*%
%TA.AperFunction,SMDPad,CuDef*%
%ADD11R,2.500000X1.750000*%
%TD*%
%TA.AperFunction,ViaPad*%
%ADD12C,0.710000*%
%TD*%
%TA.AperFunction,Conductor*%
%ADD13C,0.250000*%
%TD*%
G04 APERTURE END LIST*
D10*
X117106941Y-104927400D02*
G75*
G03*
X117106941Y-104927400I-333980J0D01*
G01*
X105870980Y-85741239D02*
G75*
G03*
X105870980Y-85741239I-333980J0D01*
G01*
X80168951Y-111643781D02*
G75*
G03*
X80168951Y-111643781I-333980J0D01*
G01*
X122330180Y-121656839D02*
G75*
G03*
X122330180Y-121656839I-333980J0D01*
G01*
%TO.P,U1,16,Vcc*%
%TO.N,Net-(A1-Pad17)*%
%TA.AperFunction,SMDPad,CuDef*%
G36*
G01*
X114277000Y-102846000D02*
X114577000Y-102846000D01*
G75*
G02*
X114727000Y-102996000I0J-150000D01*
G01*
X114727000Y-104646000D01*
G75*
G02*
X114577000Y-104796000I-150000J0D01*
G01*
X114277000Y-104796000D01*
G75*
G02*
X114127000Y-104646000I0J150000D01*
G01*
X114127000Y-102996000D01*
G75*
G02*
X114277000Y-102846000I150000J0D01*
G01*
G37*
%TD.AperFunction*%
%TO.P,U1,15,D4*%
%TO.N,unconnected-(U1-Pad15)*%
%TA.AperFunction,SMDPad,CuDef*%
G36*
G01*
X113007000Y-102846000D02*
X113307000Y-102846000D01*
G75*
G02*
X113457000Y-102996000I0J-150000D01*
G01*
X113457000Y-104646000D01*
G75*
G02*
X113307000Y-104796000I-150000J0D01*
G01*
X113007000Y-104796000D01*
G75*
G02*
X112857000Y-104646000I0J150000D01*
G01*
X112857000Y-102996000D01*
G75*
G02*
X113007000Y-102846000I150000J0D01*
G01*
G37*
%TD.AperFunction*%
%TO.P,U1,14,D5*%
%TO.N,unconnected-(U1-Pad14)*%
%TA.AperFunction,SMDPad,CuDef*%
G36*
G01*
X111737000Y-102846000D02*
X112037000Y-102846000D01*
G75*
G02*
X112187000Y-102996000I0J-150000D01*
G01*
X112187000Y-104646000D01*
G75*
G02*
X112037000Y-104796000I-150000J0D01*
G01*
X111737000Y-104796000D01*
G75*
G02*
X111587000Y-104646000I0J150000D01*
G01*
X111587000Y-102996000D01*
G75*
G02*
X111737000Y-102846000I150000J0D01*
G01*
G37*
%TD.AperFunction*%
%TO.P,U1,13,D6*%
%TO.N,unconnected-(U1-Pad13)*%
%TA.AperFunction,SMDPad,CuDef*%
G36*
G01*
X110467000Y-102846000D02*
X110767000Y-102846000D01*
G75*
G02*
X110917000Y-102996000I0J-150000D01*
G01*
X110917000Y-104646000D01*
G75*
G02*
X110767000Y-104796000I-150000J0D01*
G01*
X110467000Y-104796000D01*
G75*
G02*
X110317000Y-104646000I0J150000D01*
G01*
X110317000Y-102996000D01*
G75*
G02*
X110467000Y-102846000I150000J0D01*
G01*
G37*
%TD.AperFunction*%
%TO.P,U1,12,D7*%
%TO.N,unconnected-(U1-Pad12)*%
%TA.AperFunction,SMDPad,CuDef*%
G36*
G01*
X109197000Y-102846000D02*
X109497000Y-102846000D01*
G75*
G02*
X109647000Y-102996000I0J-150000D01*
G01*
X109647000Y-104646000D01*
G75*
G02*
X109497000Y-104796000I-150000J0D01*
G01*
X109197000Y-104796000D01*
G75*
G02*
X109047000Y-104646000I0J150000D01*
G01*
X109047000Y-102996000D01*
G75*
G02*
X109197000Y-102846000I150000J0D01*
G01*
G37*
%TD.AperFunction*%
%TO.P,U1,11,A*%
%TO.N,Net-(A1-Pad5)*%
%TA.AperFunction,SMDPad,CuDef*%
G36*
G01*
X107927000Y-102846000D02*
X108227000Y-102846000D01*
G75*
G02*
X108377000Y-102996000I0J-150000D01*
G01*
X108377000Y-104646000D01*
G75*
G02*
X108227000Y-104796000I-150000J0D01*
G01*
X107927000Y-104796000D01*
G75*
G02*
X107777000Y-104646000I0J150000D01*
G01*
X107777000Y-102996000D01*
G75*
G02*
X107927000Y-102846000I150000J0D01*
G01*
G37*
%TD.AperFunction*%
%TO.P,U1,10,B*%
%TO.N,Net-(A1-Pad6)*%
%TA.AperFunction,SMDPad,CuDef*%
G36*
G01*
X106657000Y-102846000D02*
X106957000Y-102846000D01*
G75*
G02*
X107107000Y-102996000I0J-150000D01*
G01*
X107107000Y-104646000D01*
G75*
G02*
X106957000Y-104796000I-150000J0D01*
G01*
X106657000Y-104796000D01*
G75*
G02*
X106507000Y-104646000I0J150000D01*
G01*
X106507000Y-102996000D01*
G75*
G02*
X106657000Y-102846000I150000J0D01*
G01*
G37*
%TD.AperFunction*%
%TO.P,U1,9,C*%
%TO.N,Net-(A1-Pad7)*%
%TA.AperFunction,SMDPad,CuDef*%
G36*
G01*
X105387000Y-102846000D02*
X105687000Y-102846000D01*
G75*
G02*
X105837000Y-102996000I0J-150000D01*
G01*
X105837000Y-104646000D01*
G75*
G02*
X105687000Y-104796000I-150000J0D01*
G01*
X105387000Y-104796000D01*
G75*
G02*
X105237000Y-104646000I0J150000D01*
G01*
X105237000Y-102996000D01*
G75*
G02*
X105387000Y-102846000I150000J0D01*
G01*
G37*
%TD.AperFunction*%
%TO.P,U1,8,GND*%
%TO.N,GND*%
%TA.AperFunction,SMDPad,CuDef*%
G36*
G01*
X105387000Y-97896000D02*
X105687000Y-97896000D01*
G75*
G02*
X105837000Y-98046000I0J-150000D01*
G01*
X105837000Y-99696000D01*
G75*
G02*
X105687000Y-99846000I-150000J0D01*
G01*
X105387000Y-99846000D01*
G75*
G02*
X105237000Y-99696000I0J150000D01*
G01*
X105237000Y-98046000D01*
G75*
G02*
X105387000Y-97896000I150000J0D01*
G01*
G37*
%TD.AperFunction*%
%TO.P,U1,7,G'*%
%TA.AperFunction,SMDPad,CuDef*%
G36*
G01*
X106657000Y-97896000D02*
X106957000Y-97896000D01*
G75*
G02*
X107107000Y-98046000I0J-150000D01*
G01*
X107107000Y-99696000D01*
G75*
G02*
X106957000Y-99846000I-150000J0D01*
G01*
X106657000Y-99846000D01*
G75*
G02*
X106507000Y-99696000I0J150000D01*
G01*
X106507000Y-98046000D01*
G75*
G02*
X106657000Y-97896000I150000J0D01*
G01*
G37*
%TD.AperFunction*%
%TO.P,U1,6,W*%
%TO.N,unconnected-(U1-Pad6)*%
%TA.AperFunction,SMDPad,CuDef*%
G36*
G01*
X107927000Y-97896000D02*
X108227000Y-97896000D01*
G75*
G02*
X108377000Y-98046000I0J-150000D01*
G01*
X108377000Y-99696000D01*
G75*
G02*
X108227000Y-99846000I-150000J0D01*
G01*
X107927000Y-99846000D01*
G75*
G02*
X107777000Y-99696000I0J150000D01*
G01*
X107777000Y-98046000D01*
G75*
G02*
X107927000Y-97896000I150000J0D01*
G01*
G37*
%TD.AperFunction*%
%TO.P,U1,5,Y*%
%TO.N,Net-(A1-Pad8)*%
%TA.AperFunction,SMDPad,CuDef*%
G36*
G01*
X109197000Y-97896000D02*
X109497000Y-97896000D01*
G75*
G02*
X109647000Y-98046000I0J-150000D01*
G01*
X109647000Y-99696000D01*
G75*
G02*
X109497000Y-99846000I-150000J0D01*
G01*
X109197000Y-99846000D01*
G75*
G02*
X109047000Y-99696000I0J150000D01*
G01*
X109047000Y-98046000D01*
G75*
G02*
X109197000Y-97896000I150000J0D01*
G01*
G37*
%TD.AperFunction*%
%TO.P,U1,4,D0*%
%TO.N,unconnected-(U1-Pad4)*%
%TA.AperFunction,SMDPad,CuDef*%
G36*
G01*
X110467000Y-97896000D02*
X110767000Y-97896000D01*
G75*
G02*
X110917000Y-98046000I0J-150000D01*
G01*
X110917000Y-99696000D01*
G75*
G02*
X110767000Y-99846000I-150000J0D01*
G01*
X110467000Y-99846000D01*
G75*
G02*
X110317000Y-99696000I0J150000D01*
G01*
X110317000Y-98046000D01*
G75*
G02*
X110467000Y-97896000I150000J0D01*
G01*
G37*
%TD.AperFunction*%
%TO.P,U1,3,D1*%
%TO.N,unconnected-(U1-Pad3)*%
%TA.AperFunction,SMDPad,CuDef*%
G36*
G01*
X111737000Y-97896000D02*
X112037000Y-97896000D01*
G75*
G02*
X112187000Y-98046000I0J-150000D01*
G01*
X112187000Y-99696000D01*
G75*
G02*
X112037000Y-99846000I-150000J0D01*
G01*
X111737000Y-99846000D01*
G75*
G02*
X111587000Y-99696000I0J150000D01*
G01*
X111587000Y-98046000D01*
G75*
G02*
X111737000Y-97896000I150000J0D01*
G01*
G37*
%TD.AperFunction*%
%TO.P,U1,2,D2*%
%TO.N,unconnected-(U1-Pad2)*%
%TA.AperFunction,SMDPad,CuDef*%
G36*
G01*
X113007000Y-97896000D02*
X113307000Y-97896000D01*
G75*
G02*
X113457000Y-98046000I0J-150000D01*
G01*
X113457000Y-99696000D01*
G75*
G02*
X113307000Y-99846000I-150000J0D01*
G01*
X113007000Y-99846000D01*
G75*
G02*
X112857000Y-99696000I0J150000D01*
G01*
X112857000Y-98046000D01*
G75*
G02*
X113007000Y-97896000I150000J0D01*
G01*
G37*
%TD.AperFunction*%
%TO.P,U1,1,D3*%
%TO.N,unconnected-(U1-Pad1)*%
%TA.AperFunction,SMDPad,CuDef*%
G36*
G01*
X114277000Y-97896000D02*
X114577000Y-97896000D01*
G75*
G02*
X114727000Y-98046000I0J-150000D01*
G01*
X114727000Y-99696000D01*
G75*
G02*
X114577000Y-99846000I-150000J0D01*
G01*
X114277000Y-99846000D01*
G75*
G02*
X114127000Y-99696000I0J150000D01*
G01*
X114127000Y-98046000D01*
G75*
G02*
X114277000Y-97896000I150000J0D01*
G01*
G37*
%TD.AperFunction*%
%TD*%
D11*
%TO.P,A1,1,D1/TX*%
%TO.N,unconnected-(A1-Pad1)*%
X99177000Y-116205000D03*
%TO.P,A1,2,D0/RX*%
%TO.N,unconnected-(A1-Pad2)*%
X99177000Y-113665000D03*
%TO.P,A1,3,~{RESET}*%
%TO.N,unconnected-(A1-Pad3)*%
X99177000Y-111125000D03*
%TO.P,A1,4,GND*%
%TO.N,GND*%
X99177000Y-108585000D03*
%TO.P,A1,5,D2*%
%TO.N,Net-(A1-Pad5)*%
X99177000Y-106045000D03*
%TO.P,A1,6,D3*%
%TO.N,Net-(A1-Pad6)*%
X99177000Y-103505000D03*
%TO.P,A1,7,D4*%
%TO.N,Net-(A1-Pad7)*%
X99177000Y-100965000D03*
%TO.P,A1,8,D5*%
%TO.N,Net-(A1-Pad8)*%
X99177000Y-98425000D03*
%TO.P,A1,9,D6*%
%TO.N,unconnected-(A1-Pad9)*%
X99177000Y-95885000D03*
%TO.P,A1,10,D7*%
%TO.N,unconnected-(A1-Pad10)*%
X99177000Y-93345000D03*
%TO.P,A1,11,D8*%
%TO.N,unconnected-(A1-Pad11)*%
X99177000Y-90805000D03*
%TO.P,A1,12,D9*%
%TO.N,unconnected-(A1-Pad12)*%
X99177000Y-88265000D03*
%TO.P,A1,13,D10*%
%TO.N,unconnected-(A1-Pad13)*%
X99177000Y-85725000D03*
%TO.P,A1,14,D11*%
%TO.N,unconnected-(A1-Pad14)*%
X99177000Y-83185000D03*
%TO.P,A1,15,D12*%
%TO.N,unconnected-(A1-Pad15)*%
X99177000Y-80645000D03*
%TO.P,A1,16,D13*%
%TO.N,unconnected-(A1-Pad16)*%
X83937000Y-80645000D03*
%TO.P,A1,17,3V3*%
%TO.N,Net-(A1-Pad17)*%
X83937000Y-83185000D03*
%TO.P,A1,18,AREF*%
%TO.N,unconnected-(A1-Pad18)*%
X83937000Y-85725000D03*
%TO.P,A1,19,A0*%
%TO.N,unconnected-(A1-Pad19)*%
X83937000Y-88265000D03*
%TO.P,A1,20,A1*%
%TO.N,unconnected-(A1-Pad20)*%
X83937000Y-90805000D03*
%TO.P,A1,21,A2*%
%TO.N,unconnected-(A1-Pad21)*%
X83937000Y-93345000D03*
%TO.P,A1,22,A3*%
%TO.N,unconnected-(A1-Pad22)*%
X83937000Y-95885000D03*
%TO.P,A1,23,A4*%
%TO.N,unconnected-(A1-Pad23)*%
X83937000Y-98425000D03*
%TO.P,A1,24,A5*%
%TO.N,unconnected-(A1-Pad24)*%
X83937000Y-100965000D03*
%TO.P,A1,25,A6*%
%TO.N,unconnected-(A1-Pad25)*%
X83937000Y-103505000D03*
%TO.P,A1,26,A7*%
%TO.N,unconnected-(A1-Pad26)*%
X83937000Y-106045000D03*
%TO.P,A1,27,+5V*%
%TO.N,unconnected-(A1-Pad27)*%
X83937000Y-108585000D03*
%TO.P,A1,28,~{RESET}*%
%TO.N,unconnected-(A1-Pad28)*%
X83937000Y-111125000D03*
%TO.P,A1,29,GND*%
%TO.N,GND*%
X83937000Y-113665000D03*
%TO.P,A1,30,VIN*%
%TO.N,unconnected-(A1-Pad30)*%
X83937000Y-116205000D03*
%TD*%
D12*
%TO.N,*%
X116772961Y-104927400D03*
X105537000Y-85741239D03*
X79834971Y-111643781D03*
X121996200Y-121656839D03*
%TD*%
D13*
%TO.N,unconnected-(U1-Pad2)*%
X81407000Y-83464400D02*
X83212400Y-83464400D01*
X78310971Y-86560429D02*
X81407000Y-83464400D01*
X78310971Y-120685371D02*
X78310971Y-86560429D01*
X181711600Y-121666000D02*
X79291600Y-121666000D01*
X79291600Y-121666000D02*
X78310971Y-120685371D01*
X182600600Y-120777000D02*
X181711600Y-121666000D01*
%TO.N,Net-(A1-Pad17)*%
X115682800Y-103821000D02*
X116789200Y-104927400D01*
X114427000Y-103821000D02*
X115682800Y-103821000D01*
%TO.N,GND*%
X105537000Y-98871000D02*
X105537000Y-85674200D01*
%TO.N,unconnected-(U1-Pad2)*%
X114427000Y-92049600D02*
X114427000Y-98780600D01*
X123215400Y-53134112D02*
X123215400Y-83261200D01*
X130160956Y-46188556D02*
X123215400Y-53134112D01*
X130160956Y-46188556D02*
X128806171Y-47543342D01*
X123215400Y-83261200D02*
X114427000Y-92049600D01*
X131219171Y-45130342D02*
X130160956Y-46188556D01*
X121031000Y-82880200D02*
X113157000Y-90754200D01*
X121031000Y-52448314D02*
X121031000Y-82880200D01*
X127468557Y-46010757D02*
X121031000Y-52448314D01*
X127468557Y-46010757D02*
X127053571Y-46425742D01*
X129923771Y-43555542D02*
X127468557Y-46010757D01*
X113157000Y-90754200D02*
X113157000Y-98780600D01*
X111887000Y-89966800D02*
X111887000Y-98780600D01*
X118491000Y-51914912D02*
X118491000Y-83362800D01*
X126947856Y-43458056D02*
X118491000Y-51914912D01*
X118491000Y-83362800D02*
X111887000Y-89966800D01*
X126947856Y-43458056D02*
X125529571Y-44876342D01*
X128729971Y-41675942D02*
X126947856Y-43458056D01*
X110566200Y-88290400D02*
X110566200Y-98780600D01*
X116154200Y-82702400D02*
X110566200Y-88290400D01*
X116154200Y-51229112D02*
X116154200Y-82702400D01*
X125373056Y-42010256D02*
X116154200Y-51229112D01*
X127510771Y-39872542D02*
X125373056Y-42010256D01*
X125373056Y-42010256D02*
X124411971Y-42971342D01*
X113182400Y-109093000D02*
X113182400Y-103835200D01*
X114173000Y-110083600D02*
X113182400Y-109093000D01*
X124333000Y-110083600D02*
X114173000Y-110083600D01*
X125450600Y-108966000D02*
X124333000Y-110083600D01*
X125450600Y-53743712D02*
X125450600Y-108966000D01*
X130999156Y-48195156D02*
X125450600Y-53743712D01*
X130999156Y-48195156D02*
X130558771Y-48635542D01*
X132311371Y-46882942D02*
X130999156Y-48195156D01*
X111861600Y-109956600D02*
X111861600Y-103835200D01*
X113233200Y-111328200D02*
X111861600Y-109956600D01*
X125755400Y-111328200D02*
X113233200Y-111328200D01*
X127330200Y-109753400D02*
X125755400Y-111328200D01*
X127330200Y-54683512D02*
X127330200Y-109753400D01*
X133043856Y-48969856D02*
X127330200Y-54683512D01*
X133043856Y-48969856D02*
X132133571Y-49880142D01*
X133301971Y-48711742D02*
X133043856Y-48969856D01*
X110642400Y-110591600D02*
X110642400Y-103835200D01*
X126771400Y-112649000D02*
X112699800Y-112649000D01*
X129082800Y-110337600D02*
X126771400Y-112649000D01*
X129082800Y-109220000D02*
X129082800Y-110337600D01*
X112699800Y-112649000D02*
X110642400Y-110591600D01*
X129032000Y-109169200D02*
X129082800Y-109220000D01*
X129032000Y-56311800D02*
X129032000Y-109169200D01*
X133809971Y-51533829D02*
X129032000Y-56311800D01*
X133809971Y-51531142D02*
X133809971Y-51533829D01*
X134698971Y-50642142D02*
X133809971Y-51531142D01*
X141328371Y-50642142D02*
X134698971Y-50642142D01*
X142983659Y-52297430D02*
X141328371Y-50642142D01*
X142983659Y-121055230D02*
X142983659Y-52297430D01*
X109296200Y-111125000D02*
X109296200Y-103835200D01*
X111887000Y-113715800D02*
X109296200Y-111125000D01*
X127431800Y-113715800D02*
X111887000Y-113715800D01*
X130708400Y-110439200D02*
X127431800Y-113715800D01*
X130708400Y-57226200D02*
X130708400Y-110439200D01*
X131826000Y-56108600D02*
X130708400Y-57226200D01*
X135255000Y-56108600D02*
X131826000Y-56108600D01*
X137160000Y-58013600D02*
X135255000Y-56108600D01*
X137160000Y-121158000D02*
X137160000Y-58013600D01*
%TO.N,Net-(A1-Pad8)*%
X108635800Y-101066600D02*
X103784400Y-101066600D01*
X109347000Y-100355400D02*
X108635800Y-101066600D01*
X103784400Y-101066600D02*
X101168200Y-98450400D01*
X109347000Y-99273151D02*
X109347000Y-100355400D01*
X109372400Y-99247751D02*
X109347000Y-99273151D01*
X101168200Y-98450400D02*
X99253200Y-98450400D01*
X109372400Y-98871000D02*
X109372400Y-99247751D01*
%TO.N,GND*%
X105562400Y-98871000D02*
X106832400Y-98871000D01*
%TO.N,Net-(A1-Pad5)*%
X102590600Y-106070400D02*
X99253200Y-106070400D01*
X103759000Y-107238800D02*
X102590600Y-106070400D01*
X108077000Y-105918000D02*
X106756200Y-107238800D01*
X106756200Y-107238800D02*
X103759000Y-107238800D01*
X108077000Y-103795600D02*
X108077000Y-105918000D01*
%TO.N,Net-(A1-Pad6)*%
X106807000Y-105460800D02*
X106248200Y-106019600D01*
X104038400Y-106019600D02*
X101549200Y-103530400D01*
X106807000Y-103795600D02*
X106807000Y-105460800D01*
X106248200Y-106019600D02*
X104038400Y-106019600D01*
X101549200Y-103530400D02*
X99253200Y-103530400D01*
%TO.N,Net-(A1-Pad7)*%
X101701600Y-100990400D02*
X99253200Y-100990400D01*
X104506800Y-103795600D02*
X101701600Y-100990400D01*
X105537000Y-103795600D02*
X104506800Y-103795600D01*
%TO.N,GND*%
X81993971Y-113735742D02*
X79834971Y-111576742D01*
X82755971Y-113735742D02*
X81993971Y-113735742D01*
%TO.N,unconnected-(U1-Pad2)*%
X137411229Y-121544458D02*
X136903229Y-121544458D01*
X170174175Y-39872542D02*
X127510771Y-39872542D01*
X156240858Y-121671458D02*
X156260800Y-121651516D01*
X149885400Y-121539000D02*
X149377400Y-121539000D01*
X169442561Y-121199732D02*
X169442561Y-52137132D01*
X149631400Y-121158000D02*
X150012400Y-121539000D01*
X136776229Y-121544458D02*
X137157229Y-121163458D01*
X145719800Y-48711742D02*
X133301971Y-48711742D01*
X162966400Y-121412000D02*
X162712400Y-121666000D01*
X143027400Y-121412000D02*
X142773400Y-121666000D01*
X176072800Y-121221458D02*
X176047400Y-121221458D01*
X137157229Y-121417458D02*
X136903229Y-121671458D01*
X162839400Y-121158000D02*
X163220400Y-121539000D01*
X176047400Y-121158000D02*
X176428400Y-121539000D01*
X155704771Y-45130342D02*
X131219171Y-45130342D01*
X170072575Y-39914746D02*
X182603371Y-52445542D01*
X137030229Y-121544458D02*
X137157229Y-121417458D01*
X137157229Y-121163458D02*
X137538229Y-121544458D01*
X169443400Y-121221458D02*
X169448922Y-121221458D01*
X149608771Y-121482742D02*
X149608771Y-52600713D01*
X176047400Y-121412000D02*
X175793400Y-121666000D01*
X176428400Y-121539000D02*
X175920400Y-121539000D01*
X165661571Y-41675942D02*
X128729971Y-41675942D01*
X156616400Y-121539000D02*
X156108400Y-121539000D01*
X143027400Y-121158000D02*
X143408400Y-121539000D01*
X156108400Y-121539000D02*
X156235400Y-121412000D01*
X169316400Y-121539000D02*
X169443400Y-121412000D01*
X169442561Y-52137132D02*
X160860971Y-43555542D01*
X182603371Y-52445542D02*
X182603371Y-120720742D01*
X165758883Y-41595454D02*
X176050171Y-51886742D01*
X149250400Y-121539000D02*
X149631400Y-121158000D01*
X156238171Y-121646058D02*
X156238171Y-52307175D01*
X156235400Y-121158000D02*
X156616400Y-121539000D01*
X176050171Y-51886742D02*
X176050171Y-121216000D01*
X175920400Y-121539000D02*
X176047400Y-121412000D01*
X142900400Y-121539000D02*
X143027400Y-121412000D01*
X150813938Y-46882942D02*
X132311371Y-46882942D01*
X142646400Y-121539000D02*
X143027400Y-121158000D01*
X169697400Y-121539000D02*
X169189400Y-121539000D01*
X149608771Y-52600713D02*
X145719800Y-48711742D01*
X149504400Y-121539000D02*
X149631400Y-121412000D01*
X169443400Y-121158000D02*
X169824400Y-121539000D01*
X149631400Y-121412000D02*
X149377400Y-121666000D01*
X143281400Y-121539000D02*
X142773400Y-121539000D01*
X156362400Y-121412000D02*
X156108400Y-121666000D01*
X169448922Y-121221458D02*
X169465190Y-121205190D01*
X169570400Y-121412000D02*
X169316400Y-121666000D01*
X175666400Y-121539000D02*
X176047400Y-121158000D01*
X163093400Y-121539000D02*
X162585400Y-121539000D01*
X162816771Y-121127142D02*
X162816771Y-52242342D01*
X137157229Y-121214258D02*
X137161517Y-121209970D01*
X156238171Y-52307175D02*
X150813938Y-46882942D01*
X162458400Y-121539000D02*
X162839400Y-121158000D01*
X162712400Y-121539000D02*
X162839400Y-121412000D01*
X169062400Y-121539000D02*
X169443400Y-121158000D01*
X155854400Y-121539000D02*
X156235400Y-121158000D01*
X160860971Y-43555542D02*
X129923771Y-43555542D01*
X162816771Y-52242342D02*
X155704771Y-45130342D01*
%TD*%
M02*
