%TF.GenerationSoftware,KiCad,Pcbnew,(6.0.7)*%
%TF.CreationDate,2022-11-13T19:08:48-05:00*%
%TF.ProjectId,single_layer_prototype,73696e67-6c65-45f6-9c61-7965725f7072,rev?*%
%TF.SameCoordinates,Original*%
%TF.FileFunction,Soldermask,Top*%
%TF.FilePolarity,Negative*%
%FSLAX46Y46*%
G04 Gerber Fmt 4.6, Leading zero omitted, Abs format (unit mm)*
G04 Created by KiCad (PCBNEW (6.0.7)) date 2022-11-13 19:08:48*
%MOMM*%
%LPD*%
G01*
G04 APERTURE LIST*
%ADD10R,2.500000X1.750000*%
G04 APERTURE END LIST*
%TO.C,U1*%
G36*
G01*
X114277000Y-102846000D02*
X114577000Y-102846000D01*
G75*
G02*
X114727000Y-102996000I0J-150000D01*
G01*
X114727000Y-104646000D01*
G75*
G02*
X114577000Y-104796000I-150000J0D01*
G01*
X114277000Y-104796000D01*
G75*
G02*
X114127000Y-104646000I0J150000D01*
G01*
X114127000Y-102996000D01*
G75*
G02*
X114277000Y-102846000I150000J0D01*
G01*
G37*
G36*
G01*
X113007000Y-102846000D02*
X113307000Y-102846000D01*
G75*
G02*
X113457000Y-102996000I0J-150000D01*
G01*
X113457000Y-104646000D01*
G75*
G02*
X113307000Y-104796000I-150000J0D01*
G01*
X113007000Y-104796000D01*
G75*
G02*
X112857000Y-104646000I0J150000D01*
G01*
X112857000Y-102996000D01*
G75*
G02*
X113007000Y-102846000I150000J0D01*
G01*
G37*
G36*
G01*
X111737000Y-102846000D02*
X112037000Y-102846000D01*
G75*
G02*
X112187000Y-102996000I0J-150000D01*
G01*
X112187000Y-104646000D01*
G75*
G02*
X112037000Y-104796000I-150000J0D01*
G01*
X111737000Y-104796000D01*
G75*
G02*
X111587000Y-104646000I0J150000D01*
G01*
X111587000Y-102996000D01*
G75*
G02*
X111737000Y-102846000I150000J0D01*
G01*
G37*
G36*
G01*
X110467000Y-102846000D02*
X110767000Y-102846000D01*
G75*
G02*
X110917000Y-102996000I0J-150000D01*
G01*
X110917000Y-104646000D01*
G75*
G02*
X110767000Y-104796000I-150000J0D01*
G01*
X110467000Y-104796000D01*
G75*
G02*
X110317000Y-104646000I0J150000D01*
G01*
X110317000Y-102996000D01*
G75*
G02*
X110467000Y-102846000I150000J0D01*
G01*
G37*
G36*
G01*
X109197000Y-102846000D02*
X109497000Y-102846000D01*
G75*
G02*
X109647000Y-102996000I0J-150000D01*
G01*
X109647000Y-104646000D01*
G75*
G02*
X109497000Y-104796000I-150000J0D01*
G01*
X109197000Y-104796000D01*
G75*
G02*
X109047000Y-104646000I0J150000D01*
G01*
X109047000Y-102996000D01*
G75*
G02*
X109197000Y-102846000I150000J0D01*
G01*
G37*
G36*
G01*
X107927000Y-102846000D02*
X108227000Y-102846000D01*
G75*
G02*
X108377000Y-102996000I0J-150000D01*
G01*
X108377000Y-104646000D01*
G75*
G02*
X108227000Y-104796000I-150000J0D01*
G01*
X107927000Y-104796000D01*
G75*
G02*
X107777000Y-104646000I0J150000D01*
G01*
X107777000Y-102996000D01*
G75*
G02*
X107927000Y-102846000I150000J0D01*
G01*
G37*
G36*
G01*
X106657000Y-102846000D02*
X106957000Y-102846000D01*
G75*
G02*
X107107000Y-102996000I0J-150000D01*
G01*
X107107000Y-104646000D01*
G75*
G02*
X106957000Y-104796000I-150000J0D01*
G01*
X106657000Y-104796000D01*
G75*
G02*
X106507000Y-104646000I0J150000D01*
G01*
X106507000Y-102996000D01*
G75*
G02*
X106657000Y-102846000I150000J0D01*
G01*
G37*
G36*
G01*
X105387000Y-102846000D02*
X105687000Y-102846000D01*
G75*
G02*
X105837000Y-102996000I0J-150000D01*
G01*
X105837000Y-104646000D01*
G75*
G02*
X105687000Y-104796000I-150000J0D01*
G01*
X105387000Y-104796000D01*
G75*
G02*
X105237000Y-104646000I0J150000D01*
G01*
X105237000Y-102996000D01*
G75*
G02*
X105387000Y-102846000I150000J0D01*
G01*
G37*
G36*
G01*
X105387000Y-97896000D02*
X105687000Y-97896000D01*
G75*
G02*
X105837000Y-98046000I0J-150000D01*
G01*
X105837000Y-99696000D01*
G75*
G02*
X105687000Y-99846000I-150000J0D01*
G01*
X105387000Y-99846000D01*
G75*
G02*
X105237000Y-99696000I0J150000D01*
G01*
X105237000Y-98046000D01*
G75*
G02*
X105387000Y-97896000I150000J0D01*
G01*
G37*
G36*
G01*
X106657000Y-97896000D02*
X106957000Y-97896000D01*
G75*
G02*
X107107000Y-98046000I0J-150000D01*
G01*
X107107000Y-99696000D01*
G75*
G02*
X106957000Y-99846000I-150000J0D01*
G01*
X106657000Y-99846000D01*
G75*
G02*
X106507000Y-99696000I0J150000D01*
G01*
X106507000Y-98046000D01*
G75*
G02*
X106657000Y-97896000I150000J0D01*
G01*
G37*
G36*
G01*
X107927000Y-97896000D02*
X108227000Y-97896000D01*
G75*
G02*
X108377000Y-98046000I0J-150000D01*
G01*
X108377000Y-99696000D01*
G75*
G02*
X108227000Y-99846000I-150000J0D01*
G01*
X107927000Y-99846000D01*
G75*
G02*
X107777000Y-99696000I0J150000D01*
G01*
X107777000Y-98046000D01*
G75*
G02*
X107927000Y-97896000I150000J0D01*
G01*
G37*
G36*
G01*
X109197000Y-97896000D02*
X109497000Y-97896000D01*
G75*
G02*
X109647000Y-98046000I0J-150000D01*
G01*
X109647000Y-99696000D01*
G75*
G02*
X109497000Y-99846000I-150000J0D01*
G01*
X109197000Y-99846000D01*
G75*
G02*
X109047000Y-99696000I0J150000D01*
G01*
X109047000Y-98046000D01*
G75*
G02*
X109197000Y-97896000I150000J0D01*
G01*
G37*
G36*
G01*
X110467000Y-97896000D02*
X110767000Y-97896000D01*
G75*
G02*
X110917000Y-98046000I0J-150000D01*
G01*
X110917000Y-99696000D01*
G75*
G02*
X110767000Y-99846000I-150000J0D01*
G01*
X110467000Y-99846000D01*
G75*
G02*
X110317000Y-99696000I0J150000D01*
G01*
X110317000Y-98046000D01*
G75*
G02*
X110467000Y-97896000I150000J0D01*
G01*
G37*
G36*
G01*
X111737000Y-97896000D02*
X112037000Y-97896000D01*
G75*
G02*
X112187000Y-98046000I0J-150000D01*
G01*
X112187000Y-99696000D01*
G75*
G02*
X112037000Y-99846000I-150000J0D01*
G01*
X111737000Y-99846000D01*
G75*
G02*
X111587000Y-99696000I0J150000D01*
G01*
X111587000Y-98046000D01*
G75*
G02*
X111737000Y-97896000I150000J0D01*
G01*
G37*
G36*
G01*
X113007000Y-97896000D02*
X113307000Y-97896000D01*
G75*
G02*
X113457000Y-98046000I0J-150000D01*
G01*
X113457000Y-99696000D01*
G75*
G02*
X113307000Y-99846000I-150000J0D01*
G01*
X113007000Y-99846000D01*
G75*
G02*
X112857000Y-99696000I0J150000D01*
G01*
X112857000Y-98046000D01*
G75*
G02*
X113007000Y-97896000I150000J0D01*
G01*
G37*
G36*
G01*
X114277000Y-97896000D02*
X114577000Y-97896000D01*
G75*
G02*
X114727000Y-98046000I0J-150000D01*
G01*
X114727000Y-99696000D01*
G75*
G02*
X114577000Y-99846000I-150000J0D01*
G01*
X114277000Y-99846000D01*
G75*
G02*
X114127000Y-99696000I0J150000D01*
G01*
X114127000Y-98046000D01*
G75*
G02*
X114277000Y-97896000I150000J0D01*
G01*
G37*
%TD*%
D10*
%TO.C,A1*%
X99177000Y-116205000D03*
X99177000Y-113665000D03*
X99177000Y-111125000D03*
X99177000Y-108585000D03*
X99177000Y-106045000D03*
X99177000Y-103505000D03*
X99177000Y-100965000D03*
X99177000Y-98425000D03*
X99177000Y-95885000D03*
X99177000Y-93345000D03*
X99177000Y-90805000D03*
X99177000Y-88265000D03*
X99177000Y-85725000D03*
X99177000Y-83185000D03*
X99177000Y-80645000D03*
X83937000Y-80645000D03*
X83937000Y-83185000D03*
X83937000Y-85725000D03*
X83937000Y-88265000D03*
X83937000Y-90805000D03*
X83937000Y-93345000D03*
X83937000Y-95885000D03*
X83937000Y-98425000D03*
X83937000Y-100965000D03*
X83937000Y-103505000D03*
X83937000Y-106045000D03*
X83937000Y-108585000D03*
X83937000Y-111125000D03*
X83937000Y-113665000D03*
X83937000Y-116205000D03*
%TD*%
M02*
