%TF.GenerationSoftware,KiCad,Pcbnew,(6.0.7)*%
%TF.CreationDate,2022-11-13T19:08:48-05:00*%
%TF.ProjectId,single_layer_prototype,73696e67-6c65-45f6-9c61-7965725f7072,rev?*%
%TF.SameCoordinates,Original*%
%TF.FileFunction,Legend,Top*%
%TF.FilePolarity,Positive*%
%FSLAX46Y46*%
G04 Gerber Fmt 4.6, Leading zero omitted, Abs format (unit mm)*
G04 Created by KiCad (PCBNEW (6.0.7)) date 2022-11-13 19:08:48*
%MOMM*%
%LPD*%
G01*
G04 APERTURE LIST*
%ADD10C,0.150000*%
%ADD11C,0.120000*%
G04 APERTURE END LIST*
D10*
%TO.C,U1*%
X115334380Y-102107904D02*
X116143904Y-102107904D01*
X116239142Y-102060285D01*
X116286761Y-102012666D01*
X116334380Y-101917428D01*
X116334380Y-101726952D01*
X116286761Y-101631714D01*
X116239142Y-101584095D01*
X116143904Y-101536476D01*
X115334380Y-101536476D01*
X116334380Y-100536476D02*
X116334380Y-101107904D01*
X116334380Y-100822190D02*
X115334380Y-100822190D01*
X115477238Y-100917428D01*
X115572476Y-101012666D01*
X115620095Y-101107904D01*
%TO.C,A1*%
X90842714Y-121451666D02*
X91318904Y-121451666D01*
X90747476Y-121737380D02*
X91080809Y-120737380D01*
X91414142Y-121737380D01*
X92271285Y-121737380D02*
X91699857Y-121737380D01*
X91985571Y-121737380D02*
X91985571Y-120737380D01*
X91890333Y-120880238D01*
X91795095Y-120975476D01*
X91699857Y-121023095D01*
D11*
%TO.C,U1*%
X115042000Y-101346000D02*
X115042000Y-97896000D01*
X104922000Y-101346000D02*
X104922000Y-103296000D01*
X115042000Y-101346000D02*
X115042000Y-103296000D01*
X104922000Y-101346000D02*
X104922000Y-99396000D01*
%TO.C,A1*%
X97907000Y-117475000D02*
X100577000Y-117475000D01*
X82537000Y-76705000D02*
X82537000Y-120145000D01*
X100577000Y-114935000D02*
X100577000Y-76705000D01*
X97907000Y-79375000D02*
X100577000Y-79375000D01*
X85207000Y-117475000D02*
X85207000Y-79375000D01*
X97907000Y-114935000D02*
X97907000Y-117475000D01*
X85207000Y-79375000D02*
X82537000Y-79375000D01*
X85207000Y-117475000D02*
X82537000Y-117475000D01*
X97907000Y-114935000D02*
X100577000Y-114935000D01*
X82537000Y-120145000D02*
X100577000Y-120145000D01*
X100577000Y-76705000D02*
X82537000Y-76705000D01*
X100577000Y-120145000D02*
X100577000Y-117475000D01*
X97907000Y-114935000D02*
X97907000Y-79375000D01*
%TD*%
M02*
