%TF.GenerationSoftware,KiCad,Pcbnew,(6.0.7)*%
%TF.CreationDate,2022-11-27T12:30:44-05:00*%
%TF.ProjectId,single_layer_prototype,73696e67-6c65-45f6-9c61-7965725f7072,rev?*%
%TF.SameCoordinates,Original*%
%TF.FileFunction,Legend,Top*%
%TF.FilePolarity,Positive*%
%FSLAX46Y46*%
G04 Gerber Fmt 4.6, Leading zero omitted, Abs format (unit mm)*
G04 Created by KiCad (PCBNEW (6.0.7)) date 2022-11-27 12:30:44*
%MOMM*%
%LPD*%
G01*
G04 APERTURE LIST*
%ADD10C,0.150000*%
%ADD11C,0.120000*%
G04 APERTURE END LIST*
D10*
%TO.C,R1*%
X116950609Y-92456695D02*
X116474419Y-92790029D01*
X116950609Y-93028124D02*
X115950609Y-93028124D01*
X115950609Y-92647171D01*
X115998229Y-92551933D01*
X116045848Y-92504314D01*
X116141086Y-92456695D01*
X116283943Y-92456695D01*
X116379181Y-92504314D01*
X116426800Y-92551933D01*
X116474419Y-92647171D01*
X116474419Y-93028124D01*
X116950609Y-91504314D02*
X116950609Y-92075743D01*
X116950609Y-91790029D02*
X115950609Y-91790029D01*
X116093467Y-91885267D01*
X116188705Y-91980505D01*
X116236324Y-92075743D01*
%TO.C,J1*%
X101171648Y-58327095D02*
X100457362Y-58327095D01*
X100314505Y-58279476D01*
X100219267Y-58184238D01*
X100171648Y-58041381D01*
X100171648Y-57946143D01*
X100171648Y-59327095D02*
X100171648Y-58755667D01*
X100171648Y-59041381D02*
X101171648Y-59041381D01*
X101028790Y-58946143D01*
X100933552Y-58850905D01*
X100885933Y-58755667D01*
%TO.C,U1*%
X121935609Y-102551533D02*
X122745133Y-102551533D01*
X122840371Y-102503914D01*
X122887990Y-102456295D01*
X122935609Y-102361057D01*
X122935609Y-102170581D01*
X122887990Y-102075343D01*
X122840371Y-102027724D01*
X122745133Y-101980105D01*
X121935609Y-101980105D01*
X122935609Y-100980105D02*
X122935609Y-101551533D01*
X122935609Y-101265819D02*
X121935609Y-101265819D01*
X122078467Y-101361057D01*
X122173705Y-101456295D01*
X122221324Y-101551533D01*
%TO.C,A1*%
X97443943Y-121895295D02*
X97920133Y-121895295D01*
X97348705Y-122181009D02*
X97682038Y-121181009D01*
X98015371Y-122181009D01*
X98872514Y-122181009D02*
X98301086Y-122181009D01*
X98586800Y-122181009D02*
X98586800Y-121181009D01*
X98491562Y-121323867D01*
X98396324Y-121419105D01*
X98301086Y-121466724D01*
D11*
%TO.C,R1*%
X113768229Y-91562965D02*
X113768229Y-93017093D01*
X115588229Y-91562965D02*
X115588229Y-93017093D01*
%TO.C,U1*%
X121643229Y-101789629D02*
X121643229Y-98339629D01*
X111523229Y-101789629D02*
X111523229Y-99839629D01*
X121643229Y-101789629D02*
X121643229Y-103739629D01*
X111523229Y-101789629D02*
X111523229Y-103739629D01*
%TO.C,A1*%
X89138229Y-77148629D02*
X89138229Y-120588629D01*
X89138229Y-120588629D02*
X107178229Y-120588629D01*
X91808229Y-79818629D02*
X89138229Y-79818629D01*
X91808229Y-117918629D02*
X91808229Y-79818629D01*
X104508229Y-115378629D02*
X104508229Y-79818629D01*
X107178229Y-120588629D02*
X107178229Y-117918629D01*
X104508229Y-79818629D02*
X107178229Y-79818629D01*
X104508229Y-115378629D02*
X104508229Y-117918629D01*
X91808229Y-117918629D02*
X89138229Y-117918629D01*
X104508229Y-115378629D02*
X107178229Y-115378629D01*
X107178229Y-77148629D02*
X89138229Y-77148629D01*
X104508229Y-117918629D02*
X107178229Y-117918629D01*
X107178229Y-115378629D02*
X107178229Y-77148629D01*
%TD*%
M02*
