%TF.GenerationSoftware,KiCad,Pcbnew,(6.0.7)*%
%TF.CreationDate,2022-11-27T12:30:43-05:00*%
%TF.ProjectId,single_layer_prototype,73696e67-6c65-45f6-9c61-7965725f7072,rev?*%
%TF.SameCoordinates,Original*%
%TF.FileFunction,Copper,L1,Top*%
%TF.FilePolarity,Positive*%
%FSLAX46Y46*%
G04 Gerber Fmt 4.6, Leading zero omitted, Abs format (unit mm)*
G04 Created by KiCad (PCBNEW (6.0.7)) date 2022-11-27 12:30:43*
%MOMM*%
%LPD*%
G01*
G04 APERTURE LIST*
%TA.AperFunction,NonConductor*%
%ADD10C,0.667961*%
%TD*%
%TA.AperFunction,SMDPad,CuDef*%
%ADD11R,2.500000X1.750000*%
%TD*%
%TA.AperFunction,ViaPad*%
%ADD12C,0.710000*%
%TD*%
%TA.AperFunction,Conductor*%
%ADD13C,0.250000*%
%TD*%
G04 APERTURE END LIST*
D10*
X112472209Y-86184868D02*
G75*
G03*
X112472209Y-86184868I-333980J0D01*
G01*
X123708170Y-105371029D02*
G75*
G03*
X123708170Y-105371029I-333980J0D01*
G01*
X86770180Y-112087410D02*
G75*
G03*
X86770180Y-112087410I-333980J0D01*
G01*
X128931409Y-122100468D02*
G75*
G03*
X128931409Y-122100468I-333980J0D01*
G01*
%TO.P,R1,1*%
%TO.N,GND*%
%TA.AperFunction,SMDPad,CuDef*%
G36*
G01*
X114053229Y-90265029D02*
X115303229Y-90265029D01*
G75*
G02*
X115553229Y-90515029I0J-250000D01*
G01*
X115553229Y-91140029D01*
G75*
G02*
X115303229Y-91390029I-250000J0D01*
G01*
X114053229Y-91390029D01*
G75*
G02*
X113803229Y-91140029I0J250000D01*
G01*
X113803229Y-90515029D01*
G75*
G02*
X114053229Y-90265029I250000J0D01*
G01*
G37*
%TD.AperFunction*%
%TO.P,R1,2*%
%TO.N,Net-(A1-Pad8)*%
%TA.AperFunction,SMDPad,CuDef*%
G36*
G01*
X114053229Y-93190029D02*
X115303229Y-93190029D01*
G75*
G02*
X115553229Y-93440029I0J-250000D01*
G01*
X115553229Y-94065029D01*
G75*
G02*
X115303229Y-94315029I-250000J0D01*
G01*
X114053229Y-94315029D01*
G75*
G02*
X113803229Y-94065029I0J250000D01*
G01*
X113803229Y-93440029D01*
G75*
G02*
X114053229Y-93190029I250000J0D01*
G01*
G37*
%TD.AperFunction*%
%TD*%
%TO.P,J1,1,Pin_1*%
%TO.N,GND*%
%TA.AperFunction,SMDPad,CuDef*%
G36*
G01*
X92794029Y-47270429D02*
X97294029Y-47270429D01*
G75*
G02*
X98544029Y-48520429I0J-1250000D01*
G01*
X98544029Y-51020429D01*
G75*
G02*
X97294029Y-52270429I-1250000J0D01*
G01*
X92794029Y-52270429D01*
G75*
G02*
X91544029Y-51020429I0J1250000D01*
G01*
X91544029Y-48520429D01*
G75*
G02*
X92794029Y-47270429I1250000J0D01*
G01*
G37*
%TD.AperFunction*%
%TO.P,J1,2,Pin_2*%
%TO.N,Net-(A1-Pad17)*%
%TA.AperFunction,SMDPad,CuDef*%
G36*
G01*
X92794029Y-65050429D02*
X97294029Y-65050429D01*
G75*
G02*
X98544029Y-66300429I0J-1250000D01*
G01*
X98544029Y-68800429D01*
G75*
G02*
X97294029Y-70050429I-1250000J0D01*
G01*
X92794029Y-70050429D01*
G75*
G02*
X91544029Y-68800429I0J1250000D01*
G01*
X91544029Y-66300429D01*
G75*
G02*
X92794029Y-65050429I1250000J0D01*
G01*
G37*
%TD.AperFunction*%
%TD*%
%TO.P,U1,1,D3*%
%TO.N,unconnected-(U1-Pad1)*%
%TA.AperFunction,SMDPad,CuDef*%
G36*
G01*
X120878229Y-98339629D02*
X121178229Y-98339629D01*
G75*
G02*
X121328229Y-98489629I0J-150000D01*
G01*
X121328229Y-100139629D01*
G75*
G02*
X121178229Y-100289629I-150000J0D01*
G01*
X120878229Y-100289629D01*
G75*
G02*
X120728229Y-100139629I0J150000D01*
G01*
X120728229Y-98489629D01*
G75*
G02*
X120878229Y-98339629I150000J0D01*
G01*
G37*
%TD.AperFunction*%
%TO.P,U1,2,D2*%
%TO.N,unconnected-(U1-Pad2)*%
%TA.AperFunction,SMDPad,CuDef*%
G36*
G01*
X119608229Y-98339629D02*
X119908229Y-98339629D01*
G75*
G02*
X120058229Y-98489629I0J-150000D01*
G01*
X120058229Y-100139629D01*
G75*
G02*
X119908229Y-100289629I-150000J0D01*
G01*
X119608229Y-100289629D01*
G75*
G02*
X119458229Y-100139629I0J150000D01*
G01*
X119458229Y-98489629D01*
G75*
G02*
X119608229Y-98339629I150000J0D01*
G01*
G37*
%TD.AperFunction*%
%TO.P,U1,3,D1*%
%TO.N,unconnected-(U1-Pad3)*%
%TA.AperFunction,SMDPad,CuDef*%
G36*
G01*
X118338229Y-98339629D02*
X118638229Y-98339629D01*
G75*
G02*
X118788229Y-98489629I0J-150000D01*
G01*
X118788229Y-100139629D01*
G75*
G02*
X118638229Y-100289629I-150000J0D01*
G01*
X118338229Y-100289629D01*
G75*
G02*
X118188229Y-100139629I0J150000D01*
G01*
X118188229Y-98489629D01*
G75*
G02*
X118338229Y-98339629I150000J0D01*
G01*
G37*
%TD.AperFunction*%
%TO.P,U1,4,D0*%
%TO.N,unconnected-(U1-Pad4)*%
%TA.AperFunction,SMDPad,CuDef*%
G36*
G01*
X117068229Y-98339629D02*
X117368229Y-98339629D01*
G75*
G02*
X117518229Y-98489629I0J-150000D01*
G01*
X117518229Y-100139629D01*
G75*
G02*
X117368229Y-100289629I-150000J0D01*
G01*
X117068229Y-100289629D01*
G75*
G02*
X116918229Y-100139629I0J150000D01*
G01*
X116918229Y-98489629D01*
G75*
G02*
X117068229Y-98339629I150000J0D01*
G01*
G37*
%TD.AperFunction*%
%TO.P,U1,5,Y*%
%TO.N,Net-(A1-Pad8)*%
%TA.AperFunction,SMDPad,CuDef*%
G36*
G01*
X115798229Y-98339629D02*
X116098229Y-98339629D01*
G75*
G02*
X116248229Y-98489629I0J-150000D01*
G01*
X116248229Y-100139629D01*
G75*
G02*
X116098229Y-100289629I-150000J0D01*
G01*
X115798229Y-100289629D01*
G75*
G02*
X115648229Y-100139629I0J150000D01*
G01*
X115648229Y-98489629D01*
G75*
G02*
X115798229Y-98339629I150000J0D01*
G01*
G37*
%TD.AperFunction*%
%TO.P,U1,6,W*%
%TO.N,unconnected-(U1-Pad6)*%
%TA.AperFunction,SMDPad,CuDef*%
G36*
G01*
X114528229Y-98339629D02*
X114828229Y-98339629D01*
G75*
G02*
X114978229Y-98489629I0J-150000D01*
G01*
X114978229Y-100139629D01*
G75*
G02*
X114828229Y-100289629I-150000J0D01*
G01*
X114528229Y-100289629D01*
G75*
G02*
X114378229Y-100139629I0J150000D01*
G01*
X114378229Y-98489629D01*
G75*
G02*
X114528229Y-98339629I150000J0D01*
G01*
G37*
%TD.AperFunction*%
%TO.P,U1,7,G'*%
%TO.N,GND*%
%TA.AperFunction,SMDPad,CuDef*%
G36*
G01*
X113258229Y-98339629D02*
X113558229Y-98339629D01*
G75*
G02*
X113708229Y-98489629I0J-150000D01*
G01*
X113708229Y-100139629D01*
G75*
G02*
X113558229Y-100289629I-150000J0D01*
G01*
X113258229Y-100289629D01*
G75*
G02*
X113108229Y-100139629I0J150000D01*
G01*
X113108229Y-98489629D01*
G75*
G02*
X113258229Y-98339629I150000J0D01*
G01*
G37*
%TD.AperFunction*%
%TO.P,U1,8,GND*%
%TA.AperFunction,SMDPad,CuDef*%
G36*
G01*
X111988229Y-98339629D02*
X112288229Y-98339629D01*
G75*
G02*
X112438229Y-98489629I0J-150000D01*
G01*
X112438229Y-100139629D01*
G75*
G02*
X112288229Y-100289629I-150000J0D01*
G01*
X111988229Y-100289629D01*
G75*
G02*
X111838229Y-100139629I0J150000D01*
G01*
X111838229Y-98489629D01*
G75*
G02*
X111988229Y-98339629I150000J0D01*
G01*
G37*
%TD.AperFunction*%
%TO.P,U1,9,C*%
%TO.N,Net-(A1-Pad7)*%
%TA.AperFunction,SMDPad,CuDef*%
G36*
G01*
X111988229Y-103289629D02*
X112288229Y-103289629D01*
G75*
G02*
X112438229Y-103439629I0J-150000D01*
G01*
X112438229Y-105089629D01*
G75*
G02*
X112288229Y-105239629I-150000J0D01*
G01*
X111988229Y-105239629D01*
G75*
G02*
X111838229Y-105089629I0J150000D01*
G01*
X111838229Y-103439629D01*
G75*
G02*
X111988229Y-103289629I150000J0D01*
G01*
G37*
%TD.AperFunction*%
%TO.P,U1,10,B*%
%TO.N,Net-(A1-Pad6)*%
%TA.AperFunction,SMDPad,CuDef*%
G36*
G01*
X113258229Y-103289629D02*
X113558229Y-103289629D01*
G75*
G02*
X113708229Y-103439629I0J-150000D01*
G01*
X113708229Y-105089629D01*
G75*
G02*
X113558229Y-105239629I-150000J0D01*
G01*
X113258229Y-105239629D01*
G75*
G02*
X113108229Y-105089629I0J150000D01*
G01*
X113108229Y-103439629D01*
G75*
G02*
X113258229Y-103289629I150000J0D01*
G01*
G37*
%TD.AperFunction*%
%TO.P,U1,11,A*%
%TO.N,Net-(A1-Pad5)*%
%TA.AperFunction,SMDPad,CuDef*%
G36*
G01*
X114528229Y-103289629D02*
X114828229Y-103289629D01*
G75*
G02*
X114978229Y-103439629I0J-150000D01*
G01*
X114978229Y-105089629D01*
G75*
G02*
X114828229Y-105239629I-150000J0D01*
G01*
X114528229Y-105239629D01*
G75*
G02*
X114378229Y-105089629I0J150000D01*
G01*
X114378229Y-103439629D01*
G75*
G02*
X114528229Y-103289629I150000J0D01*
G01*
G37*
%TD.AperFunction*%
%TO.P,U1,12,D7*%
%TO.N,unconnected-(U1-Pad12)*%
%TA.AperFunction,SMDPad,CuDef*%
G36*
G01*
X115798229Y-103289629D02*
X116098229Y-103289629D01*
G75*
G02*
X116248229Y-103439629I0J-150000D01*
G01*
X116248229Y-105089629D01*
G75*
G02*
X116098229Y-105239629I-150000J0D01*
G01*
X115798229Y-105239629D01*
G75*
G02*
X115648229Y-105089629I0J150000D01*
G01*
X115648229Y-103439629D01*
G75*
G02*
X115798229Y-103289629I150000J0D01*
G01*
G37*
%TD.AperFunction*%
%TO.P,U1,13,D6*%
%TO.N,unconnected-(U1-Pad13)*%
%TA.AperFunction,SMDPad,CuDef*%
G36*
G01*
X117068229Y-103289629D02*
X117368229Y-103289629D01*
G75*
G02*
X117518229Y-103439629I0J-150000D01*
G01*
X117518229Y-105089629D01*
G75*
G02*
X117368229Y-105239629I-150000J0D01*
G01*
X117068229Y-105239629D01*
G75*
G02*
X116918229Y-105089629I0J150000D01*
G01*
X116918229Y-103439629D01*
G75*
G02*
X117068229Y-103289629I150000J0D01*
G01*
G37*
%TD.AperFunction*%
%TO.P,U1,14,D5*%
%TO.N,unconnected-(U1-Pad14)*%
%TA.AperFunction,SMDPad,CuDef*%
G36*
G01*
X118338229Y-103289629D02*
X118638229Y-103289629D01*
G75*
G02*
X118788229Y-103439629I0J-150000D01*
G01*
X118788229Y-105089629D01*
G75*
G02*
X118638229Y-105239629I-150000J0D01*
G01*
X118338229Y-105239629D01*
G75*
G02*
X118188229Y-105089629I0J150000D01*
G01*
X118188229Y-103439629D01*
G75*
G02*
X118338229Y-103289629I150000J0D01*
G01*
G37*
%TD.AperFunction*%
%TO.P,U1,15,D4*%
%TO.N,unconnected-(U1-Pad15)*%
%TA.AperFunction,SMDPad,CuDef*%
G36*
G01*
X119608229Y-103289629D02*
X119908229Y-103289629D01*
G75*
G02*
X120058229Y-103439629I0J-150000D01*
G01*
X120058229Y-105089629D01*
G75*
G02*
X119908229Y-105239629I-150000J0D01*
G01*
X119608229Y-105239629D01*
G75*
G02*
X119458229Y-105089629I0J150000D01*
G01*
X119458229Y-103439629D01*
G75*
G02*
X119608229Y-103289629I150000J0D01*
G01*
G37*
%TD.AperFunction*%
%TO.P,U1,16,Vcc*%
%TO.N,Net-(A1-Pad17)*%
%TA.AperFunction,SMDPad,CuDef*%
G36*
G01*
X120878229Y-103289629D02*
X121178229Y-103289629D01*
G75*
G02*
X121328229Y-103439629I0J-150000D01*
G01*
X121328229Y-105089629D01*
G75*
G02*
X121178229Y-105239629I-150000J0D01*
G01*
X120878229Y-105239629D01*
G75*
G02*
X120728229Y-105089629I0J150000D01*
G01*
X120728229Y-103439629D01*
G75*
G02*
X120878229Y-103289629I150000J0D01*
G01*
G37*
%TD.AperFunction*%
%TD*%
D11*
%TO.P,A1,1,D1/TX*%
%TO.N,unconnected-(A1-Pad1)*%
X105778229Y-116648629D03*
%TO.P,A1,2,D0/RX*%
%TO.N,unconnected-(A1-Pad2)*%
X105778229Y-114108629D03*
%TO.P,A1,3,~{RESET}*%
%TO.N,unconnected-(A1-Pad3)*%
X105778229Y-111568629D03*
%TO.P,A1,4,GND*%
%TO.N,GND*%
X105778229Y-109028629D03*
%TO.P,A1,5,D2*%
%TO.N,Net-(A1-Pad5)*%
X105778229Y-106488629D03*
%TO.P,A1,6,D3*%
%TO.N,Net-(A1-Pad6)*%
X105778229Y-103948629D03*
%TO.P,A1,7,D4*%
%TO.N,Net-(A1-Pad7)*%
X105778229Y-101408629D03*
%TO.P,A1,8,D5*%
%TO.N,Net-(A1-Pad8)*%
X105778229Y-98868629D03*
%TO.P,A1,9,D6*%
%TO.N,unconnected-(A1-Pad9)*%
X105778229Y-96328629D03*
%TO.P,A1,10,D7*%
%TO.N,unconnected-(A1-Pad10)*%
X105778229Y-93788629D03*
%TO.P,A1,11,D8*%
%TO.N,unconnected-(A1-Pad11)*%
X105778229Y-91248629D03*
%TO.P,A1,12,D9*%
%TO.N,unconnected-(A1-Pad12)*%
X105778229Y-88708629D03*
%TO.P,A1,13,D10*%
%TO.N,unconnected-(A1-Pad13)*%
X105778229Y-86168629D03*
%TO.P,A1,14,D11*%
%TO.N,unconnected-(A1-Pad14)*%
X105778229Y-83628629D03*
%TO.P,A1,15,D12*%
%TO.N,unconnected-(A1-Pad15)*%
X105778229Y-81088629D03*
%TO.P,A1,16,D13*%
%TO.N,unconnected-(A1-Pad16)*%
X90538229Y-81088629D03*
%TO.P,A1,17,3V3*%
%TO.N,Net-(A1-Pad17)*%
X90538229Y-83628629D03*
%TO.P,A1,18,AREF*%
%TO.N,unconnected-(A1-Pad18)*%
X90538229Y-86168629D03*
%TO.P,A1,19,A0*%
%TO.N,unconnected-(A1-Pad19)*%
X90538229Y-88708629D03*
%TO.P,A1,20,A1*%
%TO.N,unconnected-(A1-Pad20)*%
X90538229Y-91248629D03*
%TO.P,A1,21,A2*%
%TO.N,unconnected-(A1-Pad21)*%
X90538229Y-93788629D03*
%TO.P,A1,22,A3*%
%TO.N,unconnected-(A1-Pad22)*%
X90538229Y-96328629D03*
%TO.P,A1,23,A4*%
%TO.N,unconnected-(A1-Pad23)*%
X90538229Y-98868629D03*
%TO.P,A1,24,A5*%
%TO.N,unconnected-(A1-Pad24)*%
X90538229Y-101408629D03*
%TO.P,A1,25,A6*%
%TO.N,unconnected-(A1-Pad25)*%
X90538229Y-103948629D03*
%TO.P,A1,26,A7*%
%TO.N,unconnected-(A1-Pad26)*%
X90538229Y-106488629D03*
%TO.P,A1,27,+5V*%
%TO.N,unconnected-(A1-Pad27)*%
X90538229Y-109028629D03*
%TO.P,A1,28,~{RESET}*%
%TO.N,unconnected-(A1-Pad28)*%
X90538229Y-111568629D03*
%TO.P,A1,29,GND*%
%TO.N,GND*%
X90538229Y-114108629D03*
%TO.P,A1,30,VIN*%
%TO.N,unconnected-(A1-Pad30)*%
X90538229Y-116648629D03*
%TD*%
D12*
%TO.N,*%
X123374190Y-105371029D03*
X86436200Y-112087410D03*
X112138229Y-86184868D03*
X128597429Y-122100468D03*
%TD*%
D13*
%TO.N,Net-(A1-Pad17)*%
X85674200Y-72059800D02*
X90183571Y-67550429D01*
X88008229Y-83908029D02*
X85674200Y-81574000D01*
X85674200Y-81574000D02*
X85674200Y-72059800D01*
X90183571Y-67550429D02*
X95044029Y-67550429D01*
%TO.N,GND*%
X112163629Y-99314629D02*
X113433629Y-99314629D01*
X112138229Y-89089629D02*
X112138229Y-86117829D01*
X114678229Y-62089429D02*
X114678229Y-90827529D01*
X113876129Y-90827529D02*
X112138229Y-89089629D01*
X114678229Y-90827529D02*
X113876129Y-90827529D01*
X95044029Y-49770429D02*
X102359229Y-49770429D01*
X102359229Y-49770429D02*
X114678229Y-62089429D01*
X112138229Y-99314629D02*
X112138229Y-89089629D01*
X88595200Y-114179371D02*
X86436200Y-112020371D01*
X89357200Y-114179371D02*
X88595200Y-114179371D01*
%TO.N,Net-(A1-Pad8)*%
X115948229Y-99716780D02*
X115948229Y-100799029D01*
X115973629Y-99314629D02*
X115973629Y-99691380D01*
X115948229Y-99314629D02*
X115948229Y-97395429D01*
X114678229Y-96125429D02*
X114678229Y-93752529D01*
X115237029Y-101510229D02*
X110385629Y-101510229D01*
X107769429Y-98894029D02*
X105854429Y-98894029D01*
X110385629Y-101510229D02*
X107769429Y-98894029D01*
X115973629Y-99691380D02*
X115948229Y-99716780D01*
X115948229Y-100799029D02*
X115237029Y-101510229D01*
X115948229Y-97395429D02*
X114678229Y-96125429D01*
%TO.N,Net-(A1-Pad5)*%
X114678229Y-106361629D02*
X113357429Y-107682429D01*
X109191829Y-106514029D02*
X105854429Y-106514029D01*
X110360229Y-107682429D02*
X109191829Y-106514029D01*
X114678229Y-104239229D02*
X114678229Y-106361629D01*
X113357429Y-107682429D02*
X110360229Y-107682429D01*
%TO.N,Net-(A1-Pad6)*%
X113408229Y-105904429D02*
X112849429Y-106463229D01*
X113408229Y-104239229D02*
X113408229Y-105904429D01*
X112849429Y-106463229D02*
X110639629Y-106463229D01*
X108150429Y-103974029D02*
X105854429Y-103974029D01*
X110639629Y-106463229D02*
X108150429Y-103974029D01*
%TO.N,Net-(A1-Pad7)*%
X111108029Y-104239229D02*
X108302829Y-101434029D01*
X112138229Y-104239229D02*
X111108029Y-104239229D01*
X108302829Y-101434029D02*
X105854429Y-101434029D01*
%TO.N,Net-(A1-Pad17)*%
X118488229Y-114159429D02*
X115897429Y-111568629D01*
X144012458Y-121988087D02*
X143504458Y-121988087D01*
X135633229Y-109612829D02*
X135684029Y-109663629D01*
X119834429Y-111771829D02*
X118462829Y-110400229D01*
X137309629Y-57669829D02*
X137309629Y-110882829D01*
X176775404Y-40316171D02*
X134112000Y-40316171D01*
X133931429Y-110197029D02*
X132356629Y-111771829D01*
X135331200Y-42119571D02*
X133549085Y-43901685D01*
X162842087Y-122115087D02*
X162862029Y-122095145D01*
X136525000Y-43999171D02*
X134069786Y-46454386D01*
X156486629Y-121982629D02*
X155978629Y-121982629D01*
X125092229Y-83806429D02*
X118488229Y-90410429D01*
X141300200Y-51085771D02*
X140411200Y-51974771D01*
X176043790Y-121643361D02*
X176043790Y-52580761D01*
X125092229Y-52358541D02*
X125092229Y-83806429D01*
X84912200Y-87004058D02*
X88008229Y-83908029D01*
X143761229Y-58457229D02*
X141856229Y-56552229D01*
X156232629Y-121601629D02*
X156613629Y-121982629D01*
X143377458Y-121988087D02*
X143758458Y-121607087D01*
X152321029Y-49155371D02*
X139903200Y-49155371D01*
X169567629Y-121855629D02*
X169313629Y-122109629D01*
X149628629Y-121855629D02*
X149374629Y-122109629D01*
X139645085Y-49413485D02*
X138734800Y-50323771D01*
X182674029Y-121665087D02*
X182648629Y-121665087D01*
X143758458Y-121861087D02*
X143504458Y-122115087D01*
X137309629Y-110882829D02*
X134033029Y-114159429D01*
X141856229Y-56552229D02*
X138427229Y-56552229D01*
X118462829Y-110400229D02*
X118462829Y-104278829D01*
X169440629Y-121601629D02*
X169821629Y-121982629D01*
X135633229Y-56755429D02*
X135633229Y-109612829D01*
X182648629Y-121601629D02*
X183029629Y-121982629D01*
X162306000Y-45573971D02*
X137820400Y-45573971D01*
X176673804Y-40358375D02*
X189204600Y-52889171D01*
X134033029Y-114159429D02*
X118488229Y-114159429D01*
X189201829Y-121220629D02*
X188312829Y-122109629D01*
X143631458Y-121988087D02*
X143758458Y-121861087D01*
X143761229Y-121601629D02*
X143761229Y-58457229D01*
X143758458Y-121607087D02*
X144139458Y-121988087D01*
X134069786Y-46454386D02*
X127632229Y-52891943D01*
X188312829Y-122109629D02*
X85892829Y-122109629D01*
X132356629Y-111771829D02*
X119834429Y-111771829D01*
X176044629Y-121665087D02*
X176050151Y-121665087D01*
X156210000Y-121926371D02*
X156210000Y-53044342D01*
X134069786Y-46454386D02*
X133654800Y-46869371D01*
X134112000Y-40316171D02*
X131974285Y-42453885D01*
X127632229Y-83323829D02*
X119758229Y-91197829D01*
X121028229Y-92493229D02*
X121028229Y-99224229D01*
X182648629Y-121855629D02*
X182394629Y-122109629D01*
X136762185Y-46632185D02*
X135407400Y-47986971D01*
X138427229Y-56552229D02*
X137309629Y-57669829D01*
X183029629Y-121982629D02*
X182521629Y-121982629D01*
X131974285Y-42453885D02*
X131013200Y-43414971D01*
X172262800Y-42119571D02*
X135331200Y-42119571D01*
X163217629Y-121982629D02*
X162709629Y-121982629D01*
X122284029Y-104264629D02*
X123390429Y-105371029D01*
X149628629Y-121601629D02*
X150009629Y-121982629D01*
X162709629Y-121982629D02*
X162836629Y-121855629D01*
X122755429Y-51672741D02*
X122755429Y-83146029D01*
X175917629Y-121982629D02*
X176044629Y-121855629D01*
X176043790Y-52580761D02*
X167462200Y-43999171D01*
X129816629Y-83704829D02*
X121028229Y-92493229D01*
X133549085Y-43901685D02*
X132130800Y-45319971D01*
X136762185Y-46632185D02*
X129816629Y-53577741D01*
X84912200Y-121129000D02*
X84912200Y-87004058D01*
X189204600Y-52889171D02*
X189204600Y-121164371D01*
X172360112Y-42039083D02*
X182651400Y-52330371D01*
X155851629Y-121982629D02*
X156232629Y-121601629D01*
X132051829Y-54187341D02*
X132051829Y-109409629D01*
X162839400Y-122089687D02*
X162839400Y-52750804D01*
X133372629Y-113092629D02*
X119301029Y-113092629D01*
X162836629Y-121601629D02*
X163217629Y-121982629D01*
X182651400Y-52330371D02*
X182651400Y-121659629D01*
X135684029Y-109663629D02*
X135684029Y-110781229D01*
X137600385Y-48638785D02*
X137160000Y-49079171D01*
X182521629Y-121982629D02*
X182648629Y-121855629D01*
X149501629Y-121982629D02*
X149628629Y-121855629D01*
X157415167Y-47326571D02*
X138912600Y-47326571D01*
X119758229Y-91197829D02*
X119758229Y-99224229D01*
X149584888Y-121498859D02*
X149584888Y-52741059D01*
X149247629Y-121982629D02*
X149628629Y-121601629D01*
X176298629Y-121982629D02*
X175790629Y-121982629D01*
X133549085Y-43901685D02*
X125092229Y-52358541D01*
X88008229Y-83908029D02*
X89813629Y-83908029D01*
X156210000Y-53044342D02*
X152321029Y-49155371D01*
X118488229Y-90410429D02*
X118488229Y-99224229D01*
X132051829Y-109409629D02*
X130934229Y-110527229D01*
X140411200Y-51974771D02*
X140411200Y-51977458D01*
X127632229Y-52891943D02*
X127632229Y-83323829D01*
X117167429Y-88734029D02*
X117167429Y-99224229D01*
X156105629Y-121982629D02*
X156232629Y-121855629D01*
X176044629Y-121601629D02*
X176425629Y-121982629D01*
X119301029Y-113092629D02*
X117243629Y-111035229D01*
X133931429Y-55127141D02*
X133931429Y-110197029D01*
X122755429Y-83146029D02*
X117167429Y-88734029D01*
X85892829Y-122109629D02*
X84912200Y-121129000D01*
X156232629Y-121855629D02*
X155978629Y-122109629D01*
X149882629Y-121982629D02*
X149374629Y-121982629D01*
X162963629Y-121855629D02*
X162709629Y-122109629D01*
X138912600Y-47326571D02*
X137600385Y-48638785D01*
X140411200Y-51977458D02*
X135633229Y-56755429D01*
X176050151Y-121665087D02*
X176066419Y-121648819D01*
X119783629Y-109536629D02*
X119783629Y-104278829D01*
X147929600Y-51085771D02*
X141300200Y-51085771D01*
X176171629Y-121855629D02*
X175917629Y-122109629D01*
X139903200Y-49155371D02*
X139645085Y-49413485D01*
X137600385Y-48638785D02*
X132051829Y-54187341D01*
X182267629Y-121982629D02*
X182648629Y-121601629D01*
X169694629Y-121982629D02*
X169186629Y-121982629D01*
X169418000Y-121570771D02*
X169418000Y-52685971D01*
X143758458Y-121657887D02*
X143762746Y-121653599D01*
X121028229Y-104264629D02*
X122284029Y-104264629D01*
X162839400Y-52750804D02*
X157415167Y-47326571D01*
X131974285Y-42453885D02*
X122755429Y-51672741D01*
X169059629Y-121982629D02*
X169440629Y-121601629D01*
X137820400Y-45573971D02*
X136762185Y-46632185D01*
X169313629Y-121982629D02*
X169440629Y-121855629D01*
X175663629Y-121982629D02*
X176044629Y-121601629D01*
X117243629Y-111035229D02*
X117243629Y-104278829D01*
X130934229Y-110527229D02*
X120774229Y-110527229D01*
X129816629Y-53577741D02*
X129816629Y-83704829D01*
X162455629Y-121982629D02*
X162836629Y-121601629D01*
X120774229Y-110527229D02*
X119783629Y-109536629D01*
X167462200Y-43999171D02*
X136525000Y-43999171D01*
X115897429Y-111568629D02*
X115897429Y-104278829D01*
X169418000Y-52685971D02*
X162306000Y-45573971D01*
X135684029Y-110781229D02*
X133372629Y-113092629D01*
X139645085Y-49413485D02*
X133931429Y-55127141D01*
X149584888Y-52741059D02*
X147929600Y-51085771D01*
%TD*%
M02*
