%TF.GenerationSoftware,KiCad,Pcbnew,(5.1.6)-1*%
%TF.CreationDate,2022-05-27T14:46:48-04:00*%
%TF.ProjectId,sensor_v1,73656e73-6f72-45f7-9631-2e6b69636164,rev?*%
%TF.SameCoordinates,Original*%
%TF.FileFunction,Copper,L1,Top*%
%TF.FilePolarity,Positive*%
%FSLAX46Y46*%
G04 Gerber Fmt 4.6, Leading zero omitted, Abs format (unit mm)*
G04 Created by KiCad (PCBNEW (5.1.6)-1) date 2022-05-27 14:46:48*
%MOMM*%
%LPD*%
G01*
G04 APERTURE LIST*
%TA.AperFunction,SMDPad,CuDef*%
%ADD10R,3.000000X1.000000*%
%TD*%
%TA.AperFunction,Conductor*%
%ADD11C,0.250000*%
%TD*%
G04 APERTURE END LIST*
D10*
%TO.P,REF\u002A\u002A,14*%
%TO.N,N/C*%
X149372000Y-91567000D03*
%TO.P,REF\u002A\u002A,13*%
X154412000Y-91567000D03*
%TO.P,REF\u002A\u002A,12*%
X149372000Y-89027000D03*
%TO.P,REF\u002A\u002A,11*%
X154412000Y-89027000D03*
%TO.P,REF\u002A\u002A,10*%
X149372000Y-86487000D03*
%TO.P,REF\u002A\u002A,9*%
X154412000Y-86487000D03*
%TO.P,REF\u002A\u002A,8*%
X149372000Y-83947000D03*
%TO.P,REF\u002A\u002A,7*%
X154412000Y-83947000D03*
%TO.P,REF\u002A\u002A,6*%
X149372000Y-81407000D03*
%TO.P,REF\u002A\u002A,5*%
X154412000Y-81407000D03*
%TO.P,REF\u002A\u002A,4*%
X149372000Y-78867000D03*
%TO.P,REF\u002A\u002A,3*%
X154412000Y-78867000D03*
%TO.P,REF\u002A\u002A,2*%
X149372000Y-76327000D03*
%TO.P,REF\u002A\u002A,1*%
X154412000Y-76327000D03*
%TD*%
%TO.P,REF\u002A\u002A,14*%
%TO.N,N/C*%
X149372000Y-118491000D03*
%TO.P,REF\u002A\u002A,13*%
X154412000Y-118491000D03*
%TO.P,REF\u002A\u002A,12*%
X149372000Y-115951000D03*
%TO.P,REF\u002A\u002A,11*%
X154412000Y-115951000D03*
%TO.P,REF\u002A\u002A,10*%
X149372000Y-113411000D03*
%TO.P,REF\u002A\u002A,9*%
X154412000Y-113411000D03*
%TO.P,REF\u002A\u002A,8*%
X149372000Y-110871000D03*
%TO.P,REF\u002A\u002A,7*%
X154412000Y-110871000D03*
%TO.P,REF\u002A\u002A,6*%
X149372000Y-108331000D03*
%TO.P,REF\u002A\u002A,5*%
X154412000Y-108331000D03*
%TO.P,REF\u002A\u002A,4*%
X149372000Y-105791000D03*
%TO.P,REF\u002A\u002A,3*%
X154412000Y-105791000D03*
%TO.P,REF\u002A\u002A,2*%
X149372000Y-103251000D03*
%TO.P,REF\u002A\u002A,1*%
X154412000Y-103251000D03*
%TD*%
%TO.P,REF\u002A\u002A,1*%
%TO.N,N/C*%
X154412000Y-49276000D03*
%TO.P,REF\u002A\u002A,2*%
X149372000Y-49276000D03*
%TO.P,REF\u002A\u002A,3*%
X154412000Y-51816000D03*
%TO.P,REF\u002A\u002A,4*%
X149372000Y-51816000D03*
%TO.P,REF\u002A\u002A,5*%
X154412000Y-54356000D03*
%TO.P,REF\u002A\u002A,6*%
X149372000Y-54356000D03*
%TO.P,REF\u002A\u002A,7*%
X154412000Y-56896000D03*
%TO.P,REF\u002A\u002A,8*%
X149372000Y-56896000D03*
%TO.P,REF\u002A\u002A,9*%
X154412000Y-59436000D03*
%TO.P,REF\u002A\u002A,10*%
X149372000Y-59436000D03*
%TO.P,REF\u002A\u002A,11*%
X154412000Y-61976000D03*
%TO.P,REF\u002A\u002A,12*%
X149372000Y-61976000D03*
%TO.P,REF\u002A\u002A,13*%
X154412000Y-64516000D03*
%TO.P,REF\u002A\u002A,14*%
X149372000Y-64516000D03*
%TD*%
%TO.P,REF\u002A\u002A,1*%
%TO.N,N/C*%
X102977000Y-103251000D03*
%TO.P,REF\u002A\u002A,2*%
X97937000Y-103251000D03*
%TO.P,REF\u002A\u002A,3*%
X102977000Y-105791000D03*
%TO.P,REF\u002A\u002A,4*%
X97937000Y-105791000D03*
%TO.P,REF\u002A\u002A,5*%
X102977000Y-108331000D03*
%TO.P,REF\u002A\u002A,6*%
X97937000Y-108331000D03*
%TO.P,REF\u002A\u002A,7*%
X102977000Y-110871000D03*
%TO.P,REF\u002A\u002A,8*%
X97937000Y-110871000D03*
%TO.P,REF\u002A\u002A,9*%
X102977000Y-113411000D03*
%TO.P,REF\u002A\u002A,10*%
X97937000Y-113411000D03*
%TO.P,REF\u002A\u002A,11*%
X102977000Y-115951000D03*
%TO.P,REF\u002A\u002A,12*%
X97937000Y-115951000D03*
%TO.P,REF\u002A\u002A,13*%
X102977000Y-118491000D03*
%TO.P,REF\u002A\u002A,14*%
X97937000Y-118491000D03*
%TD*%
%TO.P,REF\u002A\u002A,1*%
%TO.N,N/C*%
X102977000Y-76327000D03*
%TO.P,REF\u002A\u002A,2*%
X97937000Y-76327000D03*
%TO.P,REF\u002A\u002A,3*%
X102977000Y-78867000D03*
%TO.P,REF\u002A\u002A,4*%
X97937000Y-78867000D03*
%TO.P,REF\u002A\u002A,5*%
X102977000Y-81407000D03*
%TO.P,REF\u002A\u002A,6*%
X97937000Y-81407000D03*
%TO.P,REF\u002A\u002A,7*%
X102977000Y-83947000D03*
%TO.P,REF\u002A\u002A,8*%
X97937000Y-83947000D03*
%TO.P,REF\u002A\u002A,9*%
X102977000Y-86487000D03*
%TO.P,REF\u002A\u002A,10*%
X97937000Y-86487000D03*
%TO.P,REF\u002A\u002A,11*%
X102977000Y-89027000D03*
%TO.P,REF\u002A\u002A,12*%
X97937000Y-89027000D03*
%TO.P,REF\u002A\u002A,13*%
X102977000Y-91567000D03*
%TO.P,REF\u002A\u002A,14*%
X97937000Y-91567000D03*
%TD*%
%TO.P,REF\u002A\u002A,14*%
%TO.N,N/C*%
X97937000Y-64516000D03*
%TO.P,REF\u002A\u002A,13*%
X102977000Y-64516000D03*
%TO.P,REF\u002A\u002A,12*%
X97937000Y-61976000D03*
%TO.P,REF\u002A\u002A,11*%
X102977000Y-61976000D03*
%TO.P,REF\u002A\u002A,10*%
X97937000Y-59436000D03*
%TO.P,REF\u002A\u002A,9*%
X102977000Y-59436000D03*
%TO.P,REF\u002A\u002A,8*%
X97937000Y-56896000D03*
%TO.P,REF\u002A\u002A,7*%
X102977000Y-56896000D03*
%TO.P,REF\u002A\u002A,6*%
X97937000Y-54356000D03*
%TO.P,REF\u002A\u002A,5*%
X102977000Y-54356000D03*
%TO.P,REF\u002A\u002A,4*%
X97937000Y-51816000D03*
%TO.P,REF\u002A\u002A,3*%
X102977000Y-51816000D03*
%TO.P,REF\u002A\u002A,2*%
X97937000Y-49276000D03*
%TO.P,REF\u002A\u002A,1*%
X102977000Y-49276000D03*
%TD*%
D11*
%TO.N,*%
X97937000Y-65552000D02*
X97937000Y-64516000D01*
X99822000Y-67437000D02*
X97937000Y-65552000D01*
X108712000Y-64516000D02*
X102977000Y-64516000D01*
X111887000Y-51562000D02*
X111125000Y-51562000D01*
X111125000Y-51562000D02*
X109728000Y-52959000D01*
X109728000Y-52959000D02*
X109728000Y-63500000D01*
X109728000Y-63500000D02*
X108712000Y-64516000D01*
X108966000Y-60833000D02*
X107823000Y-61976000D01*
X107823000Y-61976000D02*
X102977000Y-61976000D01*
X114427000Y-51435000D02*
X113919000Y-50927000D01*
X110617000Y-50927000D02*
X108966000Y-52578000D01*
X108966000Y-52578000D02*
X108966000Y-60833000D01*
X113919000Y-50927000D02*
X110617000Y-50927000D01*
X106807000Y-59436000D02*
X102977000Y-59436000D01*
X108331000Y-57912000D02*
X106807000Y-59436000D01*
X116967000Y-51562000D02*
X115697000Y-50292000D01*
X108331000Y-52324000D02*
X108331000Y-57912000D01*
X115697000Y-50292000D02*
X110363000Y-50292000D01*
X110363000Y-50292000D02*
X108331000Y-52324000D01*
X106934000Y-56896000D02*
X102977000Y-56896000D01*
X119507000Y-51562000D02*
X117602000Y-49657000D01*
X117602000Y-49657000D02*
X110109000Y-49657000D01*
X107696000Y-52070000D02*
X107696000Y-56134000D01*
X107696000Y-56134000D02*
X106934000Y-56896000D01*
X110109000Y-49657000D02*
X107696000Y-52070000D01*
X107061000Y-52832000D02*
X105537000Y-54356000D01*
X105537000Y-54356000D02*
X102977000Y-54356000D01*
X122047000Y-51562000D02*
X119507000Y-49022000D01*
X109728000Y-49022000D02*
X107061000Y-51689000D01*
X119507000Y-49022000D02*
X109728000Y-49022000D01*
X107061000Y-51689000D02*
X107061000Y-52832000D01*
X105918000Y-51816000D02*
X102977000Y-51816000D01*
X121412000Y-48387000D02*
X109347000Y-48387000D01*
X109347000Y-48387000D02*
X105918000Y-51816000D01*
X124587000Y-51562000D02*
X121412000Y-48387000D01*
X107569000Y-49276000D02*
X102977000Y-49276000D01*
X123317000Y-47752000D02*
X109093000Y-47752000D01*
X109093000Y-47752000D02*
X107569000Y-49276000D01*
X127127000Y-51562000D02*
X123317000Y-47752000D01*
X99334000Y-47879000D02*
X97937000Y-49276000D01*
X129667000Y-51562000D02*
X125222000Y-47117000D01*
X125222000Y-47117000D02*
X108839000Y-47117000D01*
X108077000Y-47879000D02*
X99334000Y-47879000D01*
X108839000Y-47117000D02*
X108077000Y-47879000D01*
X95885000Y-51816000D02*
X97937000Y-51816000D01*
X95504000Y-51435000D02*
X95885000Y-51816000D01*
X132207000Y-51562000D02*
X127127000Y-46482000D01*
X95504000Y-48641000D02*
X95504000Y-51435000D01*
X96901000Y-47244000D02*
X95504000Y-48641000D01*
X108585000Y-46482000D02*
X107823000Y-47244000D01*
X127127000Y-46482000D02*
X108585000Y-46482000D01*
X107823000Y-47244000D02*
X96901000Y-47244000D01*
X95758000Y-54356000D02*
X97937000Y-54356000D01*
X94869000Y-53467000D02*
X95758000Y-54356000D01*
X96647000Y-46609000D02*
X94869000Y-48387000D01*
X134747000Y-51562000D02*
X129032000Y-45847000D01*
X108331000Y-45847000D02*
X107569000Y-46609000D01*
X129032000Y-45847000D02*
X108331000Y-45847000D01*
X94869000Y-48387000D02*
X94869000Y-53467000D01*
X107569000Y-46609000D02*
X96647000Y-46609000D01*
X95504000Y-56896000D02*
X97937000Y-56896000D01*
X94234000Y-48133000D02*
X94234000Y-55626000D01*
X137287000Y-51562000D02*
X130810000Y-45085000D01*
X130810000Y-45085000D02*
X108204000Y-45085000D01*
X96393000Y-45974000D02*
X94234000Y-48133000D01*
X108204000Y-45085000D02*
X107315000Y-45974000D01*
X94234000Y-55626000D02*
X95504000Y-56896000D01*
X107315000Y-45974000D02*
X96393000Y-45974000D01*
X108077000Y-74930000D02*
X99334000Y-74930000D01*
X108839000Y-74168000D02*
X108077000Y-74930000D01*
X129667000Y-78613000D02*
X125222000Y-74168000D01*
X125222000Y-74168000D02*
X108839000Y-74168000D01*
X132207000Y-78613000D02*
X127127000Y-73533000D01*
X96901000Y-74295000D02*
X95504000Y-75692000D01*
X95504000Y-75692000D02*
X95504000Y-78486000D01*
X95885000Y-78867000D02*
X97937000Y-78867000D01*
X95504000Y-78486000D02*
X95885000Y-78867000D01*
X108585000Y-73533000D02*
X107823000Y-74295000D01*
X107823000Y-74295000D02*
X96901000Y-74295000D01*
X127127000Y-73533000D02*
X108585000Y-73533000D01*
X107315000Y-73025000D02*
X96393000Y-73025000D01*
X95504000Y-83947000D02*
X97937000Y-83947000D01*
X94234000Y-75184000D02*
X94234000Y-82677000D01*
X137287000Y-78613000D02*
X130810000Y-72136000D01*
X108204000Y-72136000D02*
X107315000Y-73025000D01*
X130810000Y-72136000D02*
X108204000Y-72136000D01*
X96393000Y-73025000D02*
X94234000Y-75184000D01*
X94234000Y-82677000D02*
X95504000Y-83947000D01*
X109728000Y-80010000D02*
X109728000Y-90551000D01*
X109728000Y-90551000D02*
X108712000Y-91567000D01*
X108712000Y-91567000D02*
X102977000Y-91567000D01*
X111125000Y-78613000D02*
X109728000Y-80010000D01*
X111887000Y-78613000D02*
X111125000Y-78613000D01*
X105537000Y-81407000D02*
X102977000Y-81407000D01*
X122047000Y-78613000D02*
X119507000Y-76073000D01*
X109728000Y-76073000D02*
X107061000Y-78740000D01*
X95504000Y-86487000D02*
X97937000Y-86487000D01*
X132715000Y-71501000D02*
X107950000Y-71501000D01*
X119507000Y-76073000D02*
X109728000Y-76073000D01*
X107061000Y-78740000D02*
X107061000Y-79883000D01*
X107061000Y-72390000D02*
X96139000Y-72390000D01*
X139827000Y-94488000D02*
X139827000Y-78613000D01*
X107569000Y-76327000D02*
X102977000Y-76327000D01*
X108331000Y-79375000D02*
X108331000Y-84963000D01*
X139827000Y-78613000D02*
X132715000Y-71501000D01*
X123317000Y-74803000D02*
X109093000Y-74803000D01*
X93599000Y-84582000D02*
X95504000Y-86487000D01*
X93599000Y-74930000D02*
X93599000Y-84582000D01*
X109093000Y-74803000D02*
X107569000Y-76327000D01*
X106807000Y-86487000D02*
X102977000Y-86487000D01*
X115697000Y-77343000D02*
X110363000Y-77343000D01*
X107950000Y-71501000D02*
X107061000Y-72390000D01*
X108331000Y-84963000D02*
X106807000Y-86487000D01*
X110363000Y-77343000D02*
X108331000Y-79375000D01*
X96139000Y-72390000D02*
X93599000Y-74930000D01*
X116967000Y-78613000D02*
X115697000Y-77343000D01*
X107061000Y-79883000D02*
X105537000Y-81407000D01*
X110617000Y-77978000D02*
X108966000Y-79629000D01*
X121412000Y-75438000D02*
X109347000Y-75438000D01*
X99822000Y-94488000D02*
X97937000Y-92603000D01*
X99334000Y-74930000D02*
X97937000Y-76327000D01*
X96647000Y-73660000D02*
X94869000Y-75438000D01*
X109347000Y-75438000D02*
X105918000Y-78867000D01*
X95758000Y-81407000D02*
X97937000Y-81407000D01*
X108966000Y-79629000D02*
X108966000Y-87884000D01*
X94869000Y-80518000D02*
X95758000Y-81407000D01*
X105918000Y-78867000D02*
X102977000Y-78867000D01*
X124587000Y-78613000D02*
X121412000Y-75438000D01*
X108966000Y-87884000D02*
X107823000Y-89027000D01*
X107823000Y-89027000D02*
X102977000Y-89027000D01*
X114427000Y-78486000D02*
X113919000Y-77978000D01*
X134747000Y-78613000D02*
X129032000Y-72898000D01*
X113919000Y-77978000D02*
X110617000Y-77978000D01*
X97937000Y-92603000D02*
X97937000Y-91567000D01*
X127127000Y-78613000D02*
X123317000Y-74803000D01*
X129032000Y-72898000D02*
X108331000Y-72898000D01*
X110109000Y-76708000D02*
X107696000Y-79121000D01*
X119507000Y-78613000D02*
X117602000Y-76708000D01*
X107569000Y-73660000D02*
X96647000Y-73660000D01*
X117602000Y-76708000D02*
X110109000Y-76708000D01*
X107696000Y-79121000D02*
X107696000Y-83185000D01*
X94869000Y-75438000D02*
X94869000Y-80518000D01*
X108331000Y-72898000D02*
X107569000Y-73660000D01*
X106934000Y-83947000D02*
X102977000Y-83947000D01*
X107696000Y-83185000D02*
X106934000Y-83947000D01*
X111887000Y-67437000D02*
X112522000Y-67437000D01*
X111379000Y-67437000D02*
X99822000Y-67437000D01*
X111887000Y-66675000D02*
X111887000Y-51562000D01*
X113919000Y-67437000D02*
X114935000Y-67437000D01*
X112522000Y-67437000D02*
X113919000Y-67437000D01*
X114427000Y-66548000D02*
X114427000Y-51435000D01*
X119507000Y-67310000D02*
X119634000Y-67437000D01*
X119507000Y-66548000D02*
X119507000Y-67310000D01*
X119507000Y-66548000D02*
X119507000Y-51562000D01*
X116586000Y-67437000D02*
X116967000Y-67056000D01*
X116967000Y-67056000D02*
X116967000Y-51562000D01*
X116967000Y-67437000D02*
X116967000Y-67056000D01*
X116967000Y-67056000D02*
X117348000Y-67437000D01*
X116586000Y-67437000D02*
X117348000Y-67437000D01*
X117348000Y-67437000D02*
X118872000Y-67437000D01*
X114427000Y-67056000D02*
X114046000Y-67437000D01*
X113919000Y-67437000D02*
X114046000Y-67437000D01*
X114427000Y-67056000D02*
X114427000Y-66548000D01*
X114427000Y-67437000D02*
X114427000Y-67056000D01*
X114046000Y-67437000D02*
X114808000Y-67437000D01*
X114427000Y-67056000D02*
X114808000Y-67437000D01*
X114808000Y-67437000D02*
X116586000Y-67437000D01*
X111887000Y-67437000D02*
X111506000Y-67437000D01*
X111887000Y-67056000D02*
X111506000Y-67437000D01*
X111506000Y-67437000D02*
X111379000Y-67437000D01*
X111887000Y-67056000D02*
X111887000Y-67437000D01*
X111887000Y-66675000D02*
X111887000Y-67056000D01*
X111887000Y-67056000D02*
X112268000Y-67437000D01*
X111379000Y-67437000D02*
X112268000Y-67437000D01*
X112268000Y-67437000D02*
X112522000Y-67437000D01*
X119126000Y-67437000D02*
X119634000Y-67437000D01*
X118872000Y-67437000D02*
X119126000Y-67437000D01*
X119507000Y-67056000D02*
X119507000Y-66548000D01*
X119507000Y-67056000D02*
X119126000Y-67437000D01*
X119507000Y-67437000D02*
X119507000Y-67056000D01*
X119507000Y-67056000D02*
X119888000Y-67437000D01*
X119634000Y-67437000D02*
X119888000Y-67437000D01*
X119888000Y-67437000D02*
X120142000Y-67437000D01*
X122047000Y-66929000D02*
X122047000Y-67056000D01*
X122047000Y-67056000D02*
X121666000Y-67437000D01*
X122047000Y-67437000D02*
X122047000Y-66929000D01*
X122047000Y-66929000D02*
X122047000Y-51562000D01*
X118872000Y-67437000D02*
X121666000Y-67437000D01*
X121666000Y-67437000D02*
X122428000Y-67437000D01*
X122047000Y-67056000D02*
X122428000Y-67437000D01*
X124587000Y-67056000D02*
X124206000Y-67437000D01*
X122428000Y-67437000D02*
X124206000Y-67437000D01*
X124587000Y-67056000D02*
X124587000Y-51562000D01*
X124587000Y-67437000D02*
X124587000Y-67056000D01*
X124587000Y-67056000D02*
X124968000Y-67437000D01*
X124206000Y-67437000D02*
X124968000Y-67437000D01*
X124968000Y-67437000D02*
X126746000Y-67437000D01*
X127127000Y-67056000D02*
X127127000Y-51562000D01*
X127127000Y-67056000D02*
X126746000Y-67437000D01*
X127127000Y-67437000D02*
X127127000Y-67056000D01*
X127127000Y-67056000D02*
X127508000Y-67437000D01*
X126746000Y-67437000D02*
X127508000Y-67437000D01*
X129667000Y-67056000D02*
X129286000Y-67437000D01*
X129667000Y-67437000D02*
X129667000Y-66929000D01*
X129667000Y-66929000D02*
X129667000Y-51562000D01*
X127508000Y-67437000D02*
X129286000Y-67437000D01*
X129667000Y-67056000D02*
X130048000Y-67437000D01*
X129667000Y-66929000D02*
X129667000Y-67056000D01*
X129286000Y-67437000D02*
X130048000Y-67437000D01*
X132207000Y-67056000D02*
X131826000Y-67437000D01*
X130048000Y-67437000D02*
X131826000Y-67437000D01*
X132207000Y-67056000D02*
X132207000Y-51562000D01*
X132207000Y-67437000D02*
X132207000Y-67056000D01*
X132207000Y-67056000D02*
X132588000Y-67437000D01*
X131826000Y-67437000D02*
X132588000Y-67437000D01*
X132588000Y-67437000D02*
X134366000Y-67437000D01*
X134747000Y-67056000D02*
X134747000Y-51562000D01*
X134747000Y-67056000D02*
X134366000Y-67437000D01*
X134747000Y-67437000D02*
X134747000Y-67056000D01*
X134747000Y-67056000D02*
X135128000Y-67437000D01*
X134366000Y-67437000D02*
X135128000Y-67437000D01*
X137287000Y-67056000D02*
X136906000Y-67437000D01*
X135128000Y-67437000D02*
X136906000Y-67437000D01*
X137287000Y-67437000D02*
X137287000Y-67056000D01*
X137287000Y-67056000D02*
X137668000Y-67437000D01*
X137287000Y-66929000D02*
X137287000Y-67056000D01*
X137287000Y-66929000D02*
X137287000Y-51562000D01*
X136906000Y-67437000D02*
X137668000Y-67437000D01*
X96139000Y-45339000D02*
X93599000Y-47879000D01*
X93599000Y-47879000D02*
X93599000Y-57531000D01*
X139827000Y-67437000D02*
X139827000Y-51562000D01*
X93599000Y-57531000D02*
X95504000Y-59436000D01*
X95504000Y-59436000D02*
X97937000Y-59436000D01*
X107950000Y-44450000D02*
X107061000Y-45339000D01*
X107061000Y-45339000D02*
X96139000Y-45339000D01*
X132715000Y-44450000D02*
X107950000Y-44450000D01*
X139827000Y-51562000D02*
X132715000Y-44450000D01*
X137668000Y-67437000D02*
X139827000Y-67437000D01*
X111887000Y-94107000D02*
X111506000Y-94488000D01*
X111506000Y-94488000D02*
X99822000Y-94488000D01*
X111887000Y-94107000D02*
X111887000Y-78613000D01*
X111887000Y-94488000D02*
X111506000Y-94488000D01*
X111887000Y-94488000D02*
X111887000Y-94107000D01*
X111887000Y-94488000D02*
X112268000Y-94488000D01*
X111887000Y-94107000D02*
X112268000Y-94488000D01*
X114427000Y-94107000D02*
X114046000Y-94488000D01*
X114427000Y-94488000D02*
X114427000Y-93980000D01*
X114427000Y-93980000D02*
X114427000Y-78486000D01*
X112268000Y-94488000D02*
X114046000Y-94488000D01*
X114427000Y-93980000D02*
X114427000Y-94107000D01*
X114427000Y-94107000D02*
X114808000Y-94488000D01*
X114046000Y-94488000D02*
X114808000Y-94488000D01*
X116967000Y-94107000D02*
X116586000Y-94488000D01*
X116967000Y-93980000D02*
X116967000Y-78613000D01*
X114808000Y-94488000D02*
X116586000Y-94488000D01*
X116967000Y-94488000D02*
X116967000Y-93980000D01*
X116967000Y-94107000D02*
X117348000Y-94488000D01*
X116967000Y-93980000D02*
X116967000Y-94107000D01*
X116586000Y-94488000D02*
X117348000Y-94488000D01*
X119507000Y-94488000D02*
X119507000Y-93980000D01*
X119507000Y-93980000D02*
X119507000Y-78613000D01*
X117348000Y-94488000D02*
X119126000Y-94488000D01*
X119507000Y-94107000D02*
X119126000Y-94488000D01*
X119507000Y-93980000D02*
X119507000Y-94107000D01*
X119126000Y-94488000D02*
X119888000Y-94488000D01*
X119507000Y-94107000D02*
X119888000Y-94488000D01*
X122047000Y-94107000D02*
X121666000Y-94488000D01*
X122047000Y-94488000D02*
X122047000Y-93980000D01*
X122047000Y-93980000D02*
X122047000Y-78613000D01*
X119888000Y-94488000D02*
X121666000Y-94488000D01*
X122047000Y-93980000D02*
X122047000Y-94107000D01*
X121666000Y-94488000D02*
X122428000Y-94488000D01*
X122047000Y-94107000D02*
X122428000Y-94488000D01*
X124587000Y-94107000D02*
X124206000Y-94488000D01*
X124587000Y-94488000D02*
X124587000Y-93980000D01*
X124587000Y-93980000D02*
X124587000Y-78613000D01*
X122428000Y-94488000D02*
X124206000Y-94488000D01*
X124587000Y-93980000D02*
X124587000Y-94107000D01*
X124587000Y-94107000D02*
X124968000Y-94488000D01*
X124206000Y-94488000D02*
X124968000Y-94488000D01*
X127127000Y-94107000D02*
X126746000Y-94488000D01*
X127127000Y-94488000D02*
X127127000Y-93980000D01*
X127127000Y-93980000D02*
X127127000Y-78613000D01*
X124968000Y-94488000D02*
X126746000Y-94488000D01*
X127127000Y-94107000D02*
X127508000Y-94488000D01*
X127127000Y-93980000D02*
X127127000Y-94107000D01*
X126746000Y-94488000D02*
X127508000Y-94488000D01*
X129667000Y-94107000D02*
X129286000Y-94488000D01*
X129667000Y-94488000D02*
X129667000Y-93980000D01*
X129667000Y-93980000D02*
X129667000Y-78613000D01*
X127508000Y-94488000D02*
X129286000Y-94488000D01*
X129667000Y-93980000D02*
X129667000Y-94107000D01*
X129286000Y-94488000D02*
X130048000Y-94488000D01*
X129667000Y-94107000D02*
X130048000Y-94488000D01*
X132207000Y-94107000D02*
X131826000Y-94488000D01*
X132207000Y-94488000D02*
X132207000Y-93980000D01*
X132207000Y-93980000D02*
X132207000Y-78613000D01*
X130048000Y-94488000D02*
X131826000Y-94488000D01*
X132207000Y-94107000D02*
X132588000Y-94488000D01*
X132207000Y-93980000D02*
X132207000Y-94107000D01*
X131826000Y-94488000D02*
X132588000Y-94488000D01*
X134747000Y-94107000D02*
X134366000Y-94488000D01*
X134747000Y-94488000D02*
X134747000Y-93980000D01*
X134747000Y-93980000D02*
X134747000Y-78613000D01*
X132588000Y-94488000D02*
X134366000Y-94488000D01*
X134747000Y-94107000D02*
X135128000Y-94488000D01*
X134747000Y-93980000D02*
X134747000Y-94107000D01*
X134366000Y-94488000D02*
X135128000Y-94488000D01*
X137287000Y-94107000D02*
X136906000Y-94488000D01*
X137287000Y-93980000D02*
X137287000Y-78613000D01*
X137287000Y-94488000D02*
X137287000Y-93980000D01*
X135128000Y-94488000D02*
X136906000Y-94488000D01*
X137287000Y-94107000D02*
X137668000Y-94488000D01*
X137287000Y-93980000D02*
X137287000Y-94107000D01*
X136906000Y-94488000D02*
X137668000Y-94488000D01*
X137668000Y-94488000D02*
X139827000Y-94488000D01*
X118872000Y-121412000D02*
X119126000Y-121412000D01*
X137668000Y-121412000D02*
X139827000Y-121412000D01*
X122428000Y-121412000D02*
X124206000Y-121412000D01*
X122047000Y-120904000D02*
X122047000Y-121031000D01*
X118872000Y-121412000D02*
X121666000Y-121412000D01*
X127127000Y-121031000D02*
X127508000Y-121412000D01*
X111379000Y-121412000D02*
X112268000Y-121412000D01*
X129667000Y-121412000D02*
X129667000Y-120904000D01*
X107061000Y-99314000D02*
X96139000Y-99314000D01*
X121666000Y-121412000D02*
X122428000Y-121412000D01*
X119126000Y-121412000D02*
X119634000Y-121412000D01*
X132715000Y-98425000D02*
X107950000Y-98425000D01*
X139827000Y-105537000D02*
X132715000Y-98425000D01*
X136906000Y-121412000D02*
X137668000Y-121412000D01*
X129286000Y-121412000D02*
X130048000Y-121412000D01*
X114427000Y-121031000D02*
X114046000Y-121412000D01*
X132207000Y-121031000D02*
X131826000Y-121412000D01*
X122047000Y-120904000D02*
X122047000Y-105537000D01*
X134747000Y-121031000D02*
X134747000Y-105537000D01*
X124968000Y-121412000D02*
X126746000Y-121412000D01*
X129667000Y-121031000D02*
X129286000Y-121412000D01*
X107950000Y-98425000D02*
X107061000Y-99314000D01*
X111887000Y-121412000D02*
X111506000Y-121412000D01*
X114427000Y-121031000D02*
X114808000Y-121412000D01*
X137287000Y-120904000D02*
X137287000Y-105537000D01*
X124587000Y-121031000D02*
X124587000Y-105537000D01*
X93599000Y-111506000D02*
X95504000Y-113411000D01*
X93599000Y-101854000D02*
X93599000Y-111506000D01*
X122047000Y-121412000D02*
X122047000Y-120904000D01*
X112522000Y-121412000D02*
X113919000Y-121412000D01*
X119634000Y-121412000D02*
X119888000Y-121412000D01*
X134747000Y-121031000D02*
X134366000Y-121412000D01*
X96139000Y-99314000D02*
X93599000Y-101854000D01*
X137287000Y-121031000D02*
X137668000Y-121412000D01*
X129667000Y-121031000D02*
X130048000Y-121412000D01*
X132207000Y-121031000D02*
X132207000Y-105537000D01*
X127127000Y-121031000D02*
X126746000Y-121412000D01*
X114046000Y-121412000D02*
X114808000Y-121412000D01*
X119507000Y-120523000D02*
X119507000Y-121285000D01*
X127508000Y-121412000D02*
X129286000Y-121412000D01*
X131826000Y-121412000D02*
X132588000Y-121412000D01*
X129667000Y-120904000D02*
X129667000Y-105537000D01*
X132207000Y-121412000D02*
X132207000Y-121031000D01*
X111887000Y-121031000D02*
X112268000Y-121412000D01*
X129667000Y-120904000D02*
X129667000Y-121031000D01*
X119507000Y-121031000D02*
X119888000Y-121412000D01*
X119888000Y-121412000D02*
X120142000Y-121412000D01*
X95504000Y-113411000D02*
X97937000Y-113411000D01*
X137287000Y-121412000D02*
X137287000Y-121031000D01*
X124206000Y-121412000D02*
X124968000Y-121412000D01*
X111887000Y-121031000D02*
X111887000Y-121412000D01*
X124587000Y-121031000D02*
X124206000Y-121412000D01*
X134747000Y-121031000D02*
X135128000Y-121412000D01*
X139827000Y-121412000D02*
X139827000Y-105537000D01*
X137287000Y-120904000D02*
X137287000Y-121031000D01*
X130048000Y-121412000D02*
X131826000Y-121412000D01*
X112268000Y-121412000D02*
X112522000Y-121412000D01*
X135128000Y-121412000D02*
X136906000Y-121412000D01*
X127127000Y-121031000D02*
X127127000Y-105537000D01*
X119507000Y-121031000D02*
X119507000Y-120523000D01*
X126746000Y-121412000D02*
X127508000Y-121412000D01*
X122047000Y-121031000D02*
X122428000Y-121412000D01*
X114427000Y-120523000D02*
X114427000Y-105410000D01*
X137287000Y-121031000D02*
X136906000Y-121412000D01*
X124587000Y-121031000D02*
X124968000Y-121412000D01*
X119507000Y-121412000D02*
X119507000Y-121031000D01*
X111887000Y-121412000D02*
X112522000Y-121412000D01*
X122047000Y-121031000D02*
X121666000Y-121412000D01*
X132207000Y-121031000D02*
X132588000Y-121412000D01*
X134747000Y-121412000D02*
X134747000Y-121031000D01*
X111887000Y-120650000D02*
X111887000Y-121031000D01*
X114808000Y-121412000D02*
X116586000Y-121412000D01*
X127127000Y-121412000D02*
X127127000Y-121031000D01*
X134366000Y-121412000D02*
X135128000Y-121412000D01*
X119507000Y-121031000D02*
X119126000Y-121412000D01*
X124587000Y-121412000D02*
X124587000Y-121031000D01*
X132588000Y-121412000D02*
X134366000Y-121412000D01*
X95504000Y-110871000D02*
X97937000Y-110871000D01*
X117348000Y-121412000D02*
X118872000Y-121412000D01*
X94234000Y-102108000D02*
X94234000Y-109601000D01*
X96901000Y-101219000D02*
X95504000Y-102616000D01*
X105918000Y-105791000D02*
X102977000Y-105791000D01*
X107569000Y-103251000D02*
X102977000Y-103251000D01*
X107823000Y-101219000D02*
X96901000Y-101219000D01*
X132207000Y-105537000D02*
X127127000Y-100457000D01*
X116967000Y-121031000D02*
X117348000Y-121412000D01*
X111506000Y-121412000D02*
X111379000Y-121412000D01*
X113919000Y-121412000D02*
X114935000Y-121412000D01*
X124587000Y-105537000D02*
X121412000Y-102362000D01*
X111887000Y-121031000D02*
X111506000Y-121412000D01*
X114427000Y-121412000D02*
X114427000Y-121031000D01*
X114427000Y-121031000D02*
X114427000Y-120523000D01*
X116586000Y-121412000D02*
X116967000Y-121031000D01*
X134747000Y-105537000D02*
X129032000Y-99822000D01*
X127127000Y-100457000D02*
X108585000Y-100457000D01*
X107823000Y-115951000D02*
X102977000Y-115951000D01*
X94234000Y-109601000D02*
X95504000Y-110871000D01*
X95504000Y-102616000D02*
X95504000Y-105410000D01*
X109093000Y-101727000D02*
X107569000Y-103251000D01*
X117602000Y-103632000D02*
X110109000Y-103632000D01*
X96647000Y-100584000D02*
X94869000Y-102362000D01*
X108839000Y-101092000D02*
X108077000Y-101854000D01*
X123317000Y-101727000D02*
X109093000Y-101727000D01*
X109347000Y-102362000D02*
X105918000Y-105791000D01*
X115697000Y-104267000D02*
X110363000Y-104267000D01*
X121412000Y-102362000D02*
X109347000Y-102362000D01*
X108204000Y-99060000D02*
X107315000Y-99949000D01*
X129032000Y-99822000D02*
X108331000Y-99822000D01*
X109728000Y-102997000D02*
X107061000Y-105664000D01*
X106807000Y-113411000D02*
X102977000Y-113411000D01*
X116967000Y-121031000D02*
X116967000Y-105537000D01*
X119507000Y-120523000D02*
X119507000Y-105537000D01*
X111379000Y-121412000D02*
X99822000Y-121412000D01*
X111887000Y-120650000D02*
X111887000Y-105537000D01*
X95504000Y-105410000D02*
X95885000Y-105791000D01*
X107569000Y-100584000D02*
X96647000Y-100584000D01*
X107315000Y-99949000D02*
X96393000Y-99949000D01*
X108585000Y-100457000D02*
X107823000Y-101219000D01*
X113919000Y-104902000D02*
X110617000Y-104902000D01*
X96393000Y-99949000D02*
X94234000Y-102108000D01*
X95885000Y-105791000D02*
X97937000Y-105791000D01*
X108331000Y-99822000D02*
X107569000Y-100584000D01*
X130810000Y-99060000D02*
X108204000Y-99060000D01*
X110109000Y-103632000D02*
X107696000Y-106045000D01*
X94869000Y-102362000D02*
X94869000Y-107442000D01*
X95758000Y-108331000D02*
X97937000Y-108331000D01*
X99334000Y-101854000D02*
X97937000Y-103251000D01*
X127127000Y-105537000D02*
X123317000Y-101727000D01*
X122047000Y-105537000D02*
X119507000Y-102997000D01*
X107061000Y-106807000D02*
X105537000Y-108331000D01*
X119507000Y-105537000D02*
X117602000Y-103632000D01*
X108331000Y-111887000D02*
X106807000Y-113411000D01*
X119507000Y-121285000D02*
X119634000Y-121412000D01*
X113919000Y-121412000D02*
X114046000Y-121412000D01*
X116586000Y-121412000D02*
X117348000Y-121412000D01*
X116967000Y-121412000D02*
X116967000Y-121031000D01*
X108077000Y-101854000D02*
X99334000Y-101854000D01*
X110363000Y-104267000D02*
X108331000Y-106299000D01*
X107696000Y-106045000D02*
X107696000Y-110109000D01*
X137287000Y-105537000D02*
X130810000Y-99060000D01*
X94869000Y-107442000D02*
X95758000Y-108331000D01*
X108331000Y-106299000D02*
X108331000Y-111887000D01*
X114427000Y-105410000D02*
X113919000Y-104902000D01*
X125222000Y-101092000D02*
X108839000Y-101092000D01*
X109728000Y-106934000D02*
X109728000Y-117475000D01*
X105537000Y-108331000D02*
X102977000Y-108331000D01*
X107696000Y-110109000D02*
X106934000Y-110871000D01*
X116967000Y-105537000D02*
X115697000Y-104267000D01*
X108966000Y-106553000D02*
X108966000Y-114808000D01*
X119507000Y-102997000D02*
X109728000Y-102997000D01*
X108966000Y-114808000D02*
X107823000Y-115951000D01*
X109728000Y-117475000D02*
X108712000Y-118491000D01*
X111887000Y-105537000D02*
X111125000Y-105537000D01*
X108712000Y-118491000D02*
X102977000Y-118491000D01*
X99822000Y-121412000D02*
X97937000Y-119527000D01*
X129667000Y-105537000D02*
X125222000Y-101092000D01*
X111125000Y-105537000D02*
X109728000Y-106934000D01*
X97937000Y-119527000D02*
X97937000Y-118491000D01*
X107061000Y-105664000D02*
X107061000Y-106807000D01*
X106934000Y-110871000D02*
X102977000Y-110871000D01*
X110617000Y-104902000D02*
X108966000Y-106553000D01*
X145669000Y-55626000D02*
X146939000Y-56896000D01*
X160274000Y-74168000D02*
X159512000Y-74930000D01*
X178562000Y-73533000D02*
X160020000Y-73533000D01*
X146304000Y-48387000D02*
X146304000Y-53467000D01*
X176657000Y-74168000D02*
X160274000Y-74168000D01*
X159004000Y-49276000D02*
X154412000Y-49276000D01*
X159512000Y-47879000D02*
X150769000Y-47879000D01*
X158750000Y-73025000D02*
X147828000Y-73025000D01*
X158750000Y-45974000D02*
X147828000Y-45974000D01*
X148336000Y-74295000D02*
X146939000Y-75692000D01*
X160274000Y-47117000D02*
X159512000Y-47879000D01*
X146939000Y-83947000D02*
X149372000Y-83947000D01*
X145669000Y-75184000D02*
X145669000Y-82677000D01*
X178562000Y-51562000D02*
X174752000Y-47752000D01*
X188722000Y-78613000D02*
X182245000Y-72136000D01*
X159639000Y-72136000D02*
X158750000Y-73025000D01*
X174752000Y-47752000D02*
X160528000Y-47752000D01*
X160020000Y-46482000D02*
X159258000Y-47244000D01*
X158496000Y-51689000D02*
X158496000Y-52832000D01*
X169037000Y-49657000D02*
X161544000Y-49657000D01*
X160782000Y-48387000D02*
X157353000Y-51816000D01*
X186182000Y-51562000D02*
X180467000Y-45847000D01*
X159004000Y-46609000D02*
X148082000Y-46609000D01*
X145669000Y-48133000D02*
X145669000Y-55626000D01*
X172847000Y-48387000D02*
X160782000Y-48387000D01*
X178562000Y-46482000D02*
X160020000Y-46482000D01*
X147320000Y-51816000D02*
X149372000Y-51816000D01*
X188722000Y-51562000D02*
X182245000Y-45085000D01*
X160528000Y-47752000D02*
X159004000Y-49276000D01*
X161544000Y-49657000D02*
X159131000Y-52070000D01*
X181102000Y-51562000D02*
X176657000Y-47117000D01*
X150769000Y-47879000D02*
X149372000Y-49276000D01*
X146939000Y-48641000D02*
X146939000Y-51435000D01*
X182245000Y-45085000D02*
X159639000Y-45085000D01*
X159639000Y-45085000D02*
X158750000Y-45974000D01*
X147193000Y-54356000D02*
X149372000Y-54356000D01*
X183642000Y-78613000D02*
X178562000Y-73533000D01*
X159512000Y-74930000D02*
X150769000Y-74930000D01*
X146939000Y-51435000D02*
X147320000Y-51816000D01*
X159766000Y-45847000D02*
X159004000Y-46609000D01*
X181102000Y-78613000D02*
X176657000Y-74168000D01*
X146939000Y-75692000D02*
X146939000Y-78486000D01*
X148082000Y-46609000D02*
X146304000Y-48387000D01*
X159131000Y-52070000D02*
X159131000Y-56134000D01*
X176657000Y-47117000D02*
X160274000Y-47117000D01*
X158496000Y-52832000D02*
X156972000Y-54356000D01*
X173482000Y-51562000D02*
X170942000Y-49022000D01*
X176022000Y-51562000D02*
X172847000Y-48387000D01*
X148336000Y-47244000D02*
X146939000Y-48641000D01*
X146939000Y-56896000D02*
X149372000Y-56896000D01*
X147320000Y-78867000D02*
X149372000Y-78867000D01*
X146939000Y-78486000D02*
X147320000Y-78867000D01*
X157353000Y-51816000D02*
X154412000Y-51816000D01*
X146304000Y-53467000D02*
X147193000Y-54356000D01*
X183642000Y-51562000D02*
X178562000Y-46482000D01*
X180467000Y-45847000D02*
X159766000Y-45847000D01*
X147828000Y-45974000D02*
X145669000Y-48133000D01*
X160020000Y-73533000D02*
X159258000Y-74295000D01*
X159258000Y-74295000D02*
X148336000Y-74295000D01*
X159131000Y-56134000D02*
X158369000Y-56896000D01*
X170942000Y-49022000D02*
X161163000Y-49022000D01*
X161163000Y-49022000D02*
X158496000Y-51689000D01*
X156972000Y-54356000D02*
X154412000Y-54356000D01*
X159258000Y-47244000D02*
X148336000Y-47244000D01*
X145034000Y-84582000D02*
X146939000Y-86487000D01*
X174752000Y-74803000D02*
X160528000Y-74803000D01*
X173482000Y-78613000D02*
X170942000Y-76073000D01*
X145034000Y-74930000D02*
X145034000Y-84582000D01*
X162052000Y-77978000D02*
X160401000Y-79629000D01*
X167132000Y-77343000D02*
X161798000Y-77343000D01*
X160528000Y-74803000D02*
X159004000Y-76327000D01*
X172847000Y-75438000D02*
X160782000Y-75438000D01*
X151257000Y-94488000D02*
X149372000Y-92603000D01*
X161163000Y-76073000D02*
X158496000Y-78740000D01*
X191262000Y-94488000D02*
X191262000Y-78613000D01*
X159766000Y-79375000D02*
X159766000Y-84963000D01*
X147574000Y-72390000D02*
X145034000Y-74930000D01*
X145669000Y-82677000D02*
X146939000Y-83947000D01*
X162560000Y-78613000D02*
X161163000Y-80010000D01*
X150769000Y-74930000D02*
X149372000Y-76327000D01*
X158242000Y-86487000D02*
X154412000Y-86487000D01*
X168402000Y-78613000D02*
X167132000Y-77343000D01*
X161163000Y-90551000D02*
X160147000Y-91567000D01*
X161798000Y-77343000D02*
X159766000Y-79375000D01*
X148082000Y-73660000D02*
X146304000Y-75438000D01*
X160782000Y-75438000D02*
X157353000Y-78867000D01*
X163322000Y-78613000D02*
X162560000Y-78613000D01*
X147828000Y-73025000D02*
X145669000Y-75184000D01*
X184150000Y-71501000D02*
X159385000Y-71501000D01*
X159004000Y-76327000D02*
X154412000Y-76327000D01*
X147193000Y-81407000D02*
X149372000Y-81407000D01*
X159385000Y-71501000D02*
X158496000Y-72390000D01*
X160401000Y-79629000D02*
X160401000Y-87884000D01*
X170942000Y-76073000D02*
X161163000Y-76073000D01*
X146939000Y-86487000D02*
X149372000Y-86487000D01*
X158496000Y-78740000D02*
X158496000Y-79883000D01*
X158496000Y-72390000D02*
X147574000Y-72390000D01*
X160147000Y-91567000D02*
X154412000Y-91567000D01*
X191262000Y-78613000D02*
X184150000Y-71501000D01*
X161163000Y-80010000D02*
X161163000Y-90551000D01*
X159766000Y-84963000D02*
X158242000Y-86487000D01*
X156972000Y-81407000D02*
X154412000Y-81407000D01*
X158496000Y-79883000D02*
X156972000Y-81407000D01*
X182245000Y-72136000D02*
X159639000Y-72136000D01*
X163703000Y-67437000D02*
X163957000Y-67437000D01*
X165862000Y-67056000D02*
X165862000Y-66548000D01*
X180467000Y-72898000D02*
X159766000Y-72898000D01*
X159004000Y-73660000D02*
X148082000Y-73660000D01*
X166243000Y-67437000D02*
X168021000Y-67437000D01*
X165354000Y-77978000D02*
X162052000Y-77978000D01*
X170942000Y-67056000D02*
X170942000Y-66548000D01*
X169037000Y-76708000D02*
X161544000Y-76708000D01*
X168021000Y-67437000D02*
X168783000Y-67437000D01*
X149372000Y-92603000D02*
X149372000Y-91567000D01*
X170561000Y-67437000D02*
X171069000Y-67437000D01*
X163322000Y-66675000D02*
X163322000Y-67056000D01*
X176022000Y-78613000D02*
X172847000Y-75438000D01*
X162814000Y-67437000D02*
X151257000Y-67437000D01*
X146304000Y-75438000D02*
X146304000Y-80518000D01*
X170942000Y-66548000D02*
X170942000Y-67310000D01*
X159131000Y-83185000D02*
X158369000Y-83947000D01*
X170942000Y-67056000D02*
X170561000Y-67437000D01*
X170942000Y-67056000D02*
X171323000Y-67437000D01*
X171069000Y-67437000D02*
X171323000Y-67437000D01*
X162941000Y-67437000D02*
X162814000Y-67437000D01*
X163322000Y-67056000D02*
X163322000Y-67437000D01*
X173482000Y-67056000D02*
X173101000Y-67437000D01*
X186182000Y-78613000D02*
X180467000Y-72898000D01*
X157353000Y-78867000D02*
X154412000Y-78867000D01*
X161544000Y-76708000D02*
X159131000Y-79121000D01*
X165862000Y-67056000D02*
X165481000Y-67437000D01*
X165481000Y-67437000D02*
X166243000Y-67437000D01*
X163322000Y-67437000D02*
X162941000Y-67437000D01*
X170942000Y-67437000D02*
X170942000Y-67056000D01*
X170307000Y-67437000D02*
X173101000Y-67437000D01*
X171323000Y-67437000D02*
X171577000Y-67437000D01*
X165862000Y-67056000D02*
X166243000Y-67437000D01*
X173482000Y-67437000D02*
X173482000Y-66929000D01*
X162814000Y-67437000D02*
X163703000Y-67437000D01*
X173101000Y-67437000D02*
X173863000Y-67437000D01*
X170942000Y-78613000D02*
X169037000Y-76708000D01*
X170942000Y-67310000D02*
X171069000Y-67437000D01*
X165862000Y-67437000D02*
X165862000Y-67056000D01*
X170307000Y-67437000D02*
X170561000Y-67437000D01*
X170942000Y-66548000D02*
X170942000Y-51562000D01*
X173482000Y-66929000D02*
X173482000Y-67056000D01*
X158369000Y-83947000D02*
X154412000Y-83947000D01*
X165354000Y-67437000D02*
X165481000Y-67437000D01*
X173482000Y-66929000D02*
X173482000Y-51562000D01*
X159258000Y-89027000D02*
X154412000Y-89027000D01*
X178562000Y-78613000D02*
X174752000Y-74803000D01*
X163322000Y-67437000D02*
X163957000Y-67437000D01*
X168021000Y-67437000D02*
X168402000Y-67056000D01*
X165862000Y-78486000D02*
X165354000Y-77978000D01*
X163957000Y-67437000D02*
X165354000Y-67437000D01*
X159131000Y-79121000D02*
X159131000Y-83185000D01*
X159766000Y-72898000D02*
X159004000Y-73660000D01*
X168402000Y-67056000D02*
X168402000Y-51562000D01*
X146304000Y-80518000D02*
X147193000Y-81407000D01*
X168402000Y-67437000D02*
X168402000Y-67056000D01*
X163322000Y-67056000D02*
X162941000Y-67437000D01*
X163322000Y-66675000D02*
X163322000Y-51562000D01*
X165354000Y-67437000D02*
X166370000Y-67437000D01*
X163322000Y-67056000D02*
X163703000Y-67437000D01*
X165862000Y-66548000D02*
X165862000Y-51435000D01*
X168402000Y-67056000D02*
X168783000Y-67437000D01*
X168783000Y-67437000D02*
X170307000Y-67437000D01*
X160401000Y-87884000D02*
X159258000Y-89027000D01*
X145034000Y-47879000D02*
X145034000Y-57531000D01*
X178562000Y-67056000D02*
X178943000Y-67437000D01*
X159385000Y-44450000D02*
X158496000Y-45339000D01*
X183642000Y-67056000D02*
X183261000Y-67437000D01*
X173863000Y-67437000D02*
X175641000Y-67437000D01*
X186182000Y-67437000D02*
X186182000Y-67056000D01*
X163322000Y-94488000D02*
X163703000Y-94488000D01*
X158496000Y-45339000D02*
X147574000Y-45339000D01*
X163703000Y-94488000D02*
X165481000Y-94488000D01*
X165862000Y-93980000D02*
X165862000Y-94107000D01*
X163322000Y-94107000D02*
X163322000Y-78613000D01*
X176403000Y-67437000D02*
X178181000Y-67437000D01*
X175641000Y-67437000D02*
X176403000Y-67437000D01*
X188722000Y-67437000D02*
X188722000Y-67056000D01*
X191262000Y-67437000D02*
X191262000Y-51562000D01*
X183642000Y-67056000D02*
X183642000Y-51562000D01*
X176022000Y-67437000D02*
X176022000Y-67056000D01*
X162941000Y-94488000D02*
X151257000Y-94488000D01*
X165862000Y-94107000D02*
X165481000Y-94488000D01*
X186182000Y-67056000D02*
X186563000Y-67437000D01*
X183642000Y-67056000D02*
X184023000Y-67437000D01*
X188722000Y-67056000D02*
X188341000Y-67437000D01*
X181102000Y-66929000D02*
X181102000Y-51562000D01*
X186563000Y-67437000D02*
X188341000Y-67437000D01*
X145034000Y-57531000D02*
X146939000Y-59436000D01*
X163322000Y-94107000D02*
X162941000Y-94488000D01*
X176022000Y-67056000D02*
X175641000Y-67437000D01*
X165862000Y-94107000D02*
X166243000Y-94488000D01*
X183261000Y-67437000D02*
X184023000Y-67437000D01*
X163322000Y-94107000D02*
X163703000Y-94488000D01*
X165862000Y-93980000D02*
X165862000Y-78486000D01*
X165862000Y-94488000D02*
X165862000Y-93980000D01*
X165481000Y-94488000D02*
X166243000Y-94488000D01*
X184023000Y-67437000D02*
X185801000Y-67437000D01*
X188722000Y-67056000D02*
X189103000Y-67437000D01*
X188722000Y-66929000D02*
X188722000Y-67056000D01*
X168402000Y-94107000D02*
X168021000Y-94488000D01*
X181102000Y-67056000D02*
X181483000Y-67437000D01*
X186182000Y-67056000D02*
X186182000Y-51562000D01*
X147574000Y-45339000D02*
X145034000Y-47879000D01*
X178181000Y-67437000D02*
X178943000Y-67437000D01*
X180721000Y-67437000D02*
X181483000Y-67437000D01*
X176022000Y-67056000D02*
X176022000Y-51562000D01*
X178943000Y-67437000D02*
X180721000Y-67437000D01*
X188341000Y-67437000D02*
X189103000Y-67437000D01*
X184150000Y-44450000D02*
X159385000Y-44450000D01*
X189103000Y-67437000D02*
X191262000Y-67437000D01*
X176022000Y-67056000D02*
X176403000Y-67437000D01*
X181102000Y-67437000D02*
X181102000Y-66929000D01*
X178562000Y-67056000D02*
X178181000Y-67437000D01*
X181483000Y-67437000D02*
X183261000Y-67437000D01*
X163322000Y-94488000D02*
X162941000Y-94488000D01*
X183642000Y-67437000D02*
X183642000Y-67056000D01*
X163322000Y-94488000D02*
X163322000Y-94107000D01*
X186182000Y-67056000D02*
X185801000Y-67437000D01*
X185801000Y-67437000D02*
X186563000Y-67437000D01*
X181102000Y-67056000D02*
X180721000Y-67437000D01*
X178562000Y-67056000D02*
X178562000Y-51562000D01*
X146939000Y-59436000D02*
X149372000Y-59436000D01*
X188722000Y-66929000D02*
X188722000Y-51562000D01*
X173482000Y-67056000D02*
X173863000Y-67437000D01*
X178562000Y-67437000D02*
X178562000Y-67056000D01*
X191262000Y-51562000D02*
X184150000Y-44450000D01*
X181102000Y-66929000D02*
X181102000Y-67056000D01*
X181483000Y-94488000D02*
X183261000Y-94488000D01*
X181102000Y-94107000D02*
X181483000Y-94488000D01*
X168402000Y-93980000D02*
X168402000Y-94107000D01*
X186182000Y-94488000D02*
X186182000Y-93980000D01*
X186182000Y-93980000D02*
X186182000Y-78613000D01*
X186182000Y-94107000D02*
X186563000Y-94488000D01*
X186182000Y-93980000D02*
X186182000Y-94107000D01*
X170561000Y-94488000D02*
X171323000Y-94488000D01*
X185801000Y-94488000D02*
X186563000Y-94488000D01*
X188722000Y-94107000D02*
X188341000Y-94488000D01*
X188722000Y-93980000D02*
X188722000Y-78613000D01*
X188722000Y-94488000D02*
X188722000Y-93980000D01*
X188722000Y-94107000D02*
X189103000Y-94488000D01*
X175641000Y-94488000D02*
X176403000Y-94488000D01*
X181102000Y-93980000D02*
X181102000Y-78613000D01*
X178943000Y-94488000D02*
X180721000Y-94488000D01*
X168402000Y-94488000D02*
X168402000Y-93980000D01*
X170942000Y-93980000D02*
X170942000Y-78613000D01*
X173482000Y-94488000D02*
X173482000Y-93980000D01*
X176022000Y-93980000D02*
X176022000Y-78613000D01*
X170942000Y-93980000D02*
X170942000Y-94107000D01*
X184023000Y-94488000D02*
X185801000Y-94488000D01*
X188722000Y-93980000D02*
X188722000Y-94107000D01*
X178562000Y-94107000D02*
X178943000Y-94488000D01*
X176022000Y-94107000D02*
X175641000Y-94488000D01*
X168402000Y-93980000D02*
X168402000Y-78613000D01*
X168021000Y-94488000D02*
X168783000Y-94488000D01*
X189103000Y-94488000D02*
X191262000Y-94488000D01*
X170307000Y-121412000D02*
X170561000Y-121412000D01*
X170942000Y-94107000D02*
X171323000Y-94488000D01*
X173863000Y-94488000D02*
X175641000Y-94488000D01*
X181102000Y-94107000D02*
X180721000Y-94488000D01*
X173482000Y-93980000D02*
X173482000Y-94107000D01*
X181102000Y-94488000D02*
X181102000Y-93980000D01*
X183261000Y-94488000D02*
X184023000Y-94488000D01*
X178562000Y-94488000D02*
X178562000Y-93980000D01*
X183642000Y-94107000D02*
X184023000Y-94488000D01*
X186182000Y-94107000D02*
X185801000Y-94488000D01*
X170942000Y-94107000D02*
X170561000Y-94488000D01*
X183642000Y-93980000D02*
X183642000Y-94107000D01*
X178181000Y-94488000D02*
X178943000Y-94488000D01*
X178562000Y-93980000D02*
X178562000Y-94107000D01*
X183642000Y-94107000D02*
X183261000Y-94488000D01*
X186563000Y-94488000D02*
X188341000Y-94488000D01*
X188341000Y-94488000D02*
X189103000Y-94488000D01*
X166243000Y-94488000D02*
X168021000Y-94488000D01*
X170942000Y-94488000D02*
X170942000Y-93980000D01*
X173482000Y-94107000D02*
X173101000Y-94488000D01*
X168402000Y-94107000D02*
X168783000Y-94488000D01*
X173101000Y-94488000D02*
X173863000Y-94488000D01*
X176022000Y-94488000D02*
X176022000Y-93980000D01*
X178562000Y-94107000D02*
X178181000Y-94488000D01*
X178562000Y-93980000D02*
X178562000Y-78613000D01*
X181102000Y-93980000D02*
X181102000Y-94107000D01*
X168783000Y-94488000D02*
X170561000Y-94488000D01*
X173482000Y-94107000D02*
X173863000Y-94488000D01*
X173482000Y-93980000D02*
X173482000Y-78613000D01*
X176022000Y-93980000D02*
X176022000Y-94107000D01*
X176403000Y-94488000D02*
X178181000Y-94488000D01*
X180721000Y-94488000D02*
X181483000Y-94488000D01*
X183642000Y-94488000D02*
X183642000Y-93980000D01*
X171323000Y-94488000D02*
X173101000Y-94488000D01*
X176022000Y-94107000D02*
X176403000Y-94488000D01*
X183642000Y-93980000D02*
X183642000Y-78613000D01*
X178562000Y-121031000D02*
X178181000Y-121412000D01*
X145034000Y-101854000D02*
X145034000Y-111506000D01*
X184150000Y-98425000D02*
X159385000Y-98425000D01*
X189103000Y-121412000D02*
X191262000Y-121412000D01*
X170942000Y-120523000D02*
X170942000Y-121285000D01*
X163322000Y-121412000D02*
X162941000Y-121412000D01*
X170942000Y-121031000D02*
X171323000Y-121412000D01*
X181102000Y-120904000D02*
X181102000Y-105537000D01*
X188722000Y-121412000D02*
X188722000Y-121031000D01*
X175641000Y-121412000D02*
X176403000Y-121412000D01*
X176022000Y-121031000D02*
X175641000Y-121412000D01*
X186182000Y-121031000D02*
X186563000Y-121412000D01*
X191262000Y-121412000D02*
X191262000Y-105537000D01*
X178943000Y-121412000D02*
X180721000Y-121412000D01*
X173482000Y-120904000D02*
X173482000Y-105537000D01*
X163322000Y-121031000D02*
X163322000Y-121412000D01*
X181102000Y-121031000D02*
X180721000Y-121412000D01*
X188722000Y-120904000D02*
X188722000Y-121031000D01*
X170561000Y-121412000D02*
X171069000Y-121412000D01*
X173863000Y-121412000D02*
X175641000Y-121412000D01*
X181483000Y-121412000D02*
X183261000Y-121412000D01*
X181102000Y-120904000D02*
X181102000Y-121031000D01*
X163703000Y-121412000D02*
X163957000Y-121412000D01*
X186563000Y-121412000D02*
X188341000Y-121412000D01*
X146939000Y-113411000D02*
X149372000Y-113411000D01*
X191262000Y-105537000D02*
X184150000Y-98425000D01*
X178562000Y-121031000D02*
X178562000Y-105537000D01*
X170942000Y-121031000D02*
X170942000Y-120523000D01*
X178181000Y-121412000D02*
X178943000Y-121412000D01*
X181102000Y-121412000D02*
X181102000Y-120904000D01*
X183261000Y-121412000D02*
X184023000Y-121412000D01*
X162814000Y-121412000D02*
X163703000Y-121412000D01*
X173482000Y-121031000D02*
X173863000Y-121412000D01*
X165862000Y-120523000D02*
X165862000Y-105410000D01*
X171069000Y-121412000D02*
X171323000Y-121412000D01*
X188722000Y-121031000D02*
X188341000Y-121412000D01*
X188341000Y-121412000D02*
X189103000Y-121412000D01*
X183642000Y-121031000D02*
X183642000Y-105537000D01*
X178562000Y-121031000D02*
X178943000Y-121412000D01*
X176022000Y-121031000D02*
X176403000Y-121412000D01*
X173482000Y-121412000D02*
X173482000Y-120904000D01*
X165481000Y-121412000D02*
X166243000Y-121412000D01*
X173482000Y-120904000D02*
X173482000Y-121031000D01*
X165862000Y-121031000D02*
X165481000Y-121412000D01*
X176403000Y-121412000D02*
X178181000Y-121412000D01*
X176022000Y-121031000D02*
X176022000Y-105537000D01*
X173101000Y-121412000D02*
X173863000Y-121412000D01*
X159385000Y-98425000D02*
X158496000Y-99314000D01*
X158496000Y-99314000D02*
X147574000Y-99314000D01*
X147574000Y-99314000D02*
X145034000Y-101854000D01*
X181102000Y-121031000D02*
X181483000Y-121412000D01*
X183642000Y-121031000D02*
X183261000Y-121412000D01*
X186182000Y-121031000D02*
X186182000Y-105537000D01*
X163322000Y-121031000D02*
X163703000Y-121412000D01*
X163957000Y-121412000D02*
X165354000Y-121412000D01*
X183642000Y-121412000D02*
X183642000Y-121031000D01*
X171323000Y-121412000D02*
X171577000Y-121412000D01*
X170307000Y-121412000D02*
X173101000Y-121412000D01*
X165862000Y-121031000D02*
X166243000Y-121412000D01*
X188722000Y-120904000D02*
X188722000Y-105537000D01*
X180721000Y-121412000D02*
X181483000Y-121412000D01*
X145034000Y-111506000D02*
X146939000Y-113411000D01*
X186182000Y-121031000D02*
X185801000Y-121412000D01*
X188722000Y-121031000D02*
X189103000Y-121412000D01*
X184023000Y-121412000D02*
X185801000Y-121412000D01*
X145669000Y-109601000D02*
X146939000Y-110871000D01*
X165354000Y-104902000D02*
X162052000Y-104902000D01*
X168402000Y-121031000D02*
X168783000Y-121412000D01*
X148082000Y-100584000D02*
X146304000Y-102362000D01*
X163322000Y-120650000D02*
X163322000Y-105537000D01*
X147828000Y-99949000D02*
X145669000Y-102108000D01*
X176022000Y-121412000D02*
X176022000Y-121031000D01*
X147193000Y-108331000D02*
X149372000Y-108331000D01*
X169037000Y-103632000D02*
X161544000Y-103632000D01*
X150769000Y-101854000D02*
X149372000Y-103251000D01*
X147320000Y-105791000D02*
X149372000Y-105791000D01*
X183642000Y-121031000D02*
X184023000Y-121412000D01*
X146939000Y-105410000D02*
X147320000Y-105791000D01*
X182245000Y-99060000D02*
X159639000Y-99060000D01*
X178562000Y-105537000D02*
X174752000Y-101727000D01*
X173482000Y-105537000D02*
X170942000Y-102997000D01*
X178562000Y-121412000D02*
X178562000Y-121031000D01*
X185801000Y-121412000D02*
X186563000Y-121412000D01*
X160274000Y-101092000D02*
X159512000Y-101854000D01*
X160782000Y-102362000D02*
X157353000Y-105791000D01*
X167132000Y-104267000D02*
X161798000Y-104267000D01*
X172847000Y-102362000D02*
X160782000Y-102362000D01*
X168021000Y-121412000D02*
X168402000Y-121031000D01*
X186182000Y-121412000D02*
X186182000Y-121031000D01*
X146939000Y-110871000D02*
X149372000Y-110871000D01*
X176022000Y-105537000D02*
X172847000Y-102362000D01*
X178562000Y-100457000D02*
X160020000Y-100457000D01*
X160528000Y-101727000D02*
X159004000Y-103251000D01*
X157353000Y-105791000D02*
X154412000Y-105791000D01*
X159004000Y-100584000D02*
X148082000Y-100584000D01*
X158750000Y-99949000D02*
X147828000Y-99949000D01*
X161544000Y-103632000D02*
X159131000Y-106045000D01*
X159766000Y-99822000D02*
X159004000Y-100584000D01*
X180467000Y-99822000D02*
X159766000Y-99822000D01*
X170942000Y-121412000D02*
X170942000Y-121031000D01*
X168783000Y-121412000D02*
X170307000Y-121412000D01*
X162941000Y-121412000D02*
X162814000Y-121412000D01*
X146939000Y-102616000D02*
X146939000Y-105410000D01*
X168402000Y-121031000D02*
X168402000Y-105537000D01*
X162814000Y-121412000D02*
X151257000Y-121412000D01*
X145669000Y-102108000D02*
X145669000Y-109601000D01*
X148336000Y-101219000D02*
X146939000Y-102616000D01*
X183642000Y-105537000D02*
X178562000Y-100457000D01*
X159258000Y-115951000D02*
X154412000Y-115951000D01*
X166243000Y-121412000D02*
X168021000Y-121412000D01*
X165862000Y-121031000D02*
X165862000Y-120523000D01*
X158242000Y-113411000D02*
X154412000Y-113411000D01*
X146304000Y-102362000D02*
X146304000Y-107442000D01*
X173482000Y-121031000D02*
X173101000Y-121412000D01*
X165354000Y-121412000D02*
X166370000Y-121412000D01*
X163322000Y-121031000D02*
X162941000Y-121412000D01*
X163322000Y-121412000D02*
X163957000Y-121412000D01*
X159258000Y-101219000D02*
X148336000Y-101219000D01*
X165862000Y-121412000D02*
X165862000Y-121031000D01*
X174752000Y-101727000D02*
X160528000Y-101727000D01*
X170942000Y-121031000D02*
X170561000Y-121412000D01*
X163322000Y-120650000D02*
X163322000Y-121031000D01*
X159004000Y-103251000D02*
X154412000Y-103251000D01*
X159639000Y-99060000D02*
X158750000Y-99949000D01*
X186182000Y-105537000D02*
X180467000Y-99822000D01*
X161163000Y-102997000D02*
X158496000Y-105664000D01*
X160020000Y-100457000D02*
X159258000Y-101219000D01*
X170942000Y-120523000D02*
X170942000Y-105537000D01*
X151257000Y-121412000D02*
X149372000Y-119527000D01*
X159131000Y-110109000D02*
X158369000Y-110871000D01*
X176657000Y-101092000D02*
X160274000Y-101092000D01*
X168402000Y-105537000D02*
X167132000Y-104267000D01*
X159766000Y-106299000D02*
X159766000Y-111887000D01*
X160401000Y-114808000D02*
X159258000Y-115951000D01*
X159766000Y-111887000D02*
X158242000Y-113411000D01*
X188722000Y-105537000D02*
X182245000Y-99060000D01*
X161163000Y-117475000D02*
X160147000Y-118491000D01*
X158496000Y-105664000D02*
X158496000Y-106807000D01*
X162052000Y-104902000D02*
X160401000Y-106553000D01*
X161798000Y-104267000D02*
X159766000Y-106299000D01*
X158496000Y-106807000D02*
X156972000Y-108331000D01*
X170942000Y-102997000D02*
X161163000Y-102997000D01*
X160401000Y-106553000D02*
X160401000Y-114808000D01*
X181102000Y-105537000D02*
X176657000Y-101092000D01*
X168402000Y-121412000D02*
X168402000Y-121031000D01*
X170942000Y-105537000D02*
X169037000Y-103632000D01*
X146304000Y-107442000D02*
X147193000Y-108331000D01*
X149372000Y-119527000D02*
X149372000Y-118491000D01*
X159131000Y-106045000D02*
X159131000Y-110109000D01*
X163322000Y-105537000D02*
X162560000Y-105537000D01*
X159512000Y-101854000D02*
X150769000Y-101854000D01*
X160147000Y-118491000D02*
X154412000Y-118491000D01*
X161163000Y-106934000D02*
X161163000Y-117475000D01*
X170942000Y-121285000D02*
X171069000Y-121412000D01*
X158369000Y-110871000D02*
X154412000Y-110871000D01*
X168021000Y-121412000D02*
X168783000Y-121412000D01*
X156972000Y-108331000D02*
X154412000Y-108331000D01*
X165354000Y-121412000D02*
X165481000Y-121412000D01*
X165862000Y-105410000D02*
X165354000Y-104902000D01*
X162560000Y-105537000D02*
X161163000Y-106934000D01*
X159766000Y-52324000D02*
X159766000Y-57912000D01*
X159258000Y-61976000D02*
X154412000Y-61976000D01*
X167132000Y-50292000D02*
X161798000Y-50292000D01*
X161798000Y-50292000D02*
X159766000Y-52324000D01*
X161163000Y-52959000D02*
X161163000Y-63500000D01*
X149372000Y-65552000D02*
X149372000Y-64516000D01*
X158242000Y-59436000D02*
X154412000Y-59436000D01*
X160147000Y-64516000D02*
X154412000Y-64516000D01*
X151257000Y-67437000D02*
X149372000Y-65552000D01*
X162560000Y-51562000D02*
X161163000Y-52959000D01*
X163322000Y-51562000D02*
X162560000Y-51562000D01*
X161163000Y-63500000D02*
X160147000Y-64516000D01*
X160401000Y-60833000D02*
X159258000Y-61976000D01*
X165862000Y-51435000D02*
X165354000Y-50927000D01*
X162052000Y-50927000D02*
X160401000Y-52578000D01*
X160401000Y-52578000D02*
X160401000Y-60833000D01*
X165354000Y-50927000D02*
X162052000Y-50927000D01*
X159766000Y-57912000D02*
X158242000Y-59436000D01*
X168402000Y-51562000D02*
X167132000Y-50292000D01*
X158369000Y-56896000D02*
X154412000Y-56896000D01*
X170942000Y-51562000D02*
X169037000Y-49657000D01*
%TD*%
M02*
